<?xml version="1.0" encoding="UTF-8" standalone="no"?><!DOCTYPE svg PUBLIC "-//W3C//DTD SVG 1.1//EN" "http://www.w3.org/Graphics/SVG/1.1/DTD/svg11.dtd"><svg width="100%" height="100%" viewBox="0 0 4820 4016" version="1.1" xmlns="http://www.w3.org/2000/svg" xmlns:xlink="http://www.w3.org/1999/xlink" xml:space="preserve" xmlns:serif="http://www.serif.com/" style="fill-rule:evenodd;clip-rule:evenodd;stroke-linecap:round;stroke-linejoin:round;stroke-miterlimit:1.5;"><rect id="Artboard5" x="0" y="0" width="4819.65" height="4015.75" style="fill:none;"/><clipPath id="_clip1"><rect x="0" y="0" width="4819.65" height="4015.75"/></clipPath><g clip-path="url(#_clip1)"><g><path d="M796.109,1177.55l-219.481,-2.046" style="fill:none;stroke:#000;stroke-width:20.83px;"/><path d="M723.988,1222.64l-355.64,-11.623" style="fill:none;stroke:#000;stroke-width:20.83px;"/><path d="M711.441,1512.95c-87.634,27.952 -162.85,62.181 -224.539,103.248" style="fill:none;stroke:#000;stroke-width:20.83px;"/><path d="M682.493,1479.96c-87.635,27.952 -162.85,62.182 -224.539,103.248" style="fill:none;stroke:#000;stroke-width:20.83px;"/><path d="M665.312,1429.74c-87.635,27.952 -192.955,66.816 -254.644,107.883" style="fill:none;stroke:#000;stroke-width:20.83px;"/><path d="M645.418,1384.63c-87.634,27.952 -292.084,94.623 -353.773,135.69" style="fill:none;stroke:#000;stroke-width:20.83px;"/><path d="M645.113,1383.72c-93.894,8.131 -449.903,59.243 -506.412,116.717" style="fill:none;stroke:#000;stroke-width:20.83px;"/><path d="M637.562,1352.57c-93.894,8.131 -580.662,59.063 -637.171,116.536" style="fill:none;stroke:#000;stroke-width:20.83px;"/><path d="M631.785,1315.02c-78.053,6.221 -570.339,-13.384 -631.785,44.685" style="fill:none;stroke:#000;stroke-width:20.83px;"/><path d="M638.223,1268.93c-78.053,6.221 -570.339,-13.383 -631.785,44.685" style="fill:none;stroke:#000;stroke-width:20.83px;"/><path d="M779.011,1643.8c-160.491,98.752 -305.044,216.588 -438.107,348.185" style="fill:none;stroke:#000;stroke-width:20.83px;"/><path d="M758.505,1613.04c-161.185,90.559 -298.422,191.571 -414.025,302.026" style="fill:none;stroke:#000;stroke-width:20.83px;"/><path d="M743.805,1584.59c-130.309,63.159 -253.802,138.618 -371.779,224.03" style="fill:none;stroke:#000;stroke-width:20.83px;"/><path d="M336.153,2164.39c148.625,-195.751 313.914,-359.979 499.81,-485.221" style="fill:none;stroke:#000;stroke-width:20.83px;"/><path d="M350.967,2055.74c148.626,-195.751 299.335,-252.344 485.231,-377.587" style="fill:none;stroke:#000;stroke-width:20.83px;"/><path d="M721.179,1560.74c-111.303,38.847 -217.29,97.161 -319.364,169.805" style="fill:none;stroke:#000;stroke-width:20.83px;"/><path d="M837.631,1681.04c-117.088,176.673 -258.469,316.691 -400.978,455.008" style="fill:none;stroke:#000;stroke-width:20.83px;"/><path d="M1569.69,1822.37c-94.017,161.969 -252.684,276.097 -369.031,256.97" style="fill:none;stroke:#000;stroke-width:20.83px;"/><path d="M2350.51,2118.55c-94.018,161.969 -240.808,188.052 -357.155,168.924" style="fill:none;stroke:#000;stroke-width:20.83px;"/><path d="M2247.87,2073.26c-94.018,161.969 -240.808,188.052 -357.155,168.924" style="fill:none;stroke:#000;stroke-width:20.83px;"/><path d="M2074.81,2041.96c-28.579,58.518 -101.333,75.309 -184.33,82.425" style="fill:none;stroke:#000;stroke-width:20.83px;"/><path d="M2145.61,2080.91c-28.579,58.518 -183.894,84.924 -266.891,92.04" style="fill:none;stroke:#000;stroke-width:20.83px;"/><path d="M1481.96,1810.97c-114.321,148.458 -224.757,218.205 -322.087,211.733" style="fill:none;stroke:#000;stroke-width:20.83px;"/><path d="M1433.21,1767.12c-114.32,148.458 -190.94,174.803 -288.27,168.331" style="fill:none;stroke:#000;stroke-width:20.83px;"/><path d="M1360.74,1726.28c-81.853,126.132 -136.662,148.555 -206.257,143.128" style="fill:none;stroke:#000;stroke-width:20.83px;"/><path d="M1313.83,1688.08c-60.508,103.779 -100.996,122.245 -152.394,117.812" style="fill:none;stroke:#000;stroke-width:20.83px;"/><path d="M1295.83,1670.72c-74.121,81.529 -111.617,72.225 -154.302,82.033" style="fill:none;stroke:#000;stroke-width:20.83px;"/><path d="M3353.03,2035.16c45.294,184.005 85.688,366.167 32.12,451.029" style="fill:none;stroke:#000;stroke-width:20.83px;"/><path d="M3353.03,2035.16c45.294,184.005 85.688,366.167 32.12,451.029" style="fill:none;stroke:#000;stroke-width:20.83px;"/><path d="M3237.93,1964.15c58.886,162.518 43.596,384.631 -25.529,450.076" style="fill:none;stroke:#000;stroke-width:20.83px;"/><path d="M3231.3,2075.21c79.723,111.719 63.285,381.693 -5.74,416.129" style="fill:none;stroke:#000;stroke-width:20.83px;"/><path d="M3231.38,2076.08c12.678,200.965 -31.344,435.225 -104.204,413.531" style="fill:none;stroke:#000;stroke-width:20.83px;"/><path d="M3176.49,2119.78c12.677,200.965 -66.479,333.204 -139.338,311.511" style="fill:none;stroke:#000;stroke-width:20.83px;"/><path d="M3141.82,2137.59c-15.007,183.555 -115.613,250.532 -159.231,247.226" style="fill:none;stroke:#000;stroke-width:20.83px;"/><path d="M3140.94,2137.88c-75.986,167.895 -173.46,180.732 -175.72,188.047" style="fill:none;stroke:#000;stroke-width:20.83px;"/><path d="M3140.94,2137.88c-75.986,167.895 -173.46,180.732 -175.72,188.047" style="fill:none;stroke:#000;stroke-width:20.83px;"/><path d="M3138.84,2140.99c-94.857,140.237 -247.398,158.493 -256.973,142.82" style="fill:none;stroke:#000;stroke-width:20.83px;"/><path d="M2960.4,226.143c-146.471,-118.288 -385.478,-136.509 -626.036,-105.484" style="fill:none;stroke:#000;stroke-width:20.83px;"/><path d="M2526.67,221.152c-136.062,-103.817 -230.501,-65.285 -476.977,-62.581" style="fill:none;stroke:#000;stroke-width:20.83px;"/><path d="M2202.66,256.777c-147.415,-71.913 -209.979,-51.271 -344.662,-48.076" style="fill:none;stroke:#000;stroke-width:20.83px;"/><path d="M2075.52,299.693c-147.415,-71.914 -209.979,-51.272 -344.661,-48.077" style="fill:none;stroke:#000;stroke-width:20.83px;"/><path d="M1948.73,360.599c-147.414,-71.914 -209.979,-51.272 -344.661,-48.077" style="fill:none;stroke:#000;stroke-width:20.83px;"/><path d="M1845.8,431.467c-115.317,-98.05 -180.95,-82.966 -338.948,-74.493" style="fill:none;stroke:#000;stroke-width:20.83px;"/><path d="M1723.31,471.85c-107.35,-90.149 -110.967,-70.007 -274.574,-67.097" style="fill:none;stroke:#000;stroke-width:20.83px;"/><path d="M1670.82,516.508c-107.351,-90.149 -110.968,-70.008 -274.574,-67.097" style="fill:none;stroke:#000;stroke-width:20.83px;"/><path d="M1563.89,518.351c-3.851,-25.738 -101.086,-25.085 -219.283,-24.115" style="fill:none;stroke:#000;stroke-width:20.83px;"/><path d="M1513.25,545.675c-3.857,-24.536 -102.212,-24.958 -220.406,-24.46" style="fill:none;stroke:#000;stroke-width:20.83px;"/><path d="M1460.62,593.892c-3.85,-25.738 -98.613,-33.088 -216.81,-32.118" style="fill:none;stroke:#000;stroke-width:20.83px;"/><path d="M1385.3,652.337c-3.851,-25.738 -93.783,-34.541 -211.979,-33.571" style="fill:none;stroke:#000;stroke-width:20.83px;"/><path d="M1352.56,700.504c-3.851,-25.738 -82.598,-27.537 -200.795,-26.567" style="fill:none;stroke:#000;stroke-width:20.83px;"/><path d="M1277.41,757.747c-15.029,-33.676 -146.503,-38.059 -220.284,-5.546" style="fill:none;stroke:#000;stroke-width:20.83px;"/><path d="M1247.7,811.1c-42.278,-32.606 -172.854,-20.776 -187.259,-1.253" style="fill:none;stroke:#000;stroke-width:20.83px;"/><path d="M1192.16,849.699c-48.53,-23.747 -178.169,43.935 -165.359,48.045" style="fill:none;stroke:#000;stroke-width:20.83px;"/><path d="M2397.19,232.045c-116.052,-66.56 -149.346,-49.884 -410.549,-69.431" style="fill:none;stroke:#000;stroke-width:20.83px;"/><path d="M2713.75,199.199c-154.51,-93.529 -288.05,-70.439 -519.621,-67.091" style="fill:none;stroke:#000;stroke-width:20.83px;"/><path d="M3068.82,1445.41c-76.333,55.059 -41.146,159.364 6.49,175.136" style="fill:none;stroke:#000;stroke-width:20.83px;"/><path d="M2978.56,1452.03c-76.333,55.059 -41.146,159.364 6.49,175.136" style="fill:none;stroke:#000;stroke-width:20.83px;"/><path d="M2929.01,1292.02c-107.275,47.584 -71.153,202.172 2.413,224.208" style="fill:none;stroke:#000;stroke-width:20.83px;"/><path d="M2804.06,1315.67c-107.275,47.584 -71.152,202.172 2.414,224.208" style="fill:none;stroke:#000;stroke-width:20.83px;"/><path d="M3102.57,1138.06c-87.979,25.854 -107.156,163.243 -49.191,204.918" style="fill:none;stroke:#000;stroke-width:20.83px;"/><path d="M3080.62,977.695c-87.979,25.854 -96.907,151.373 -38.941,193.048" style="fill:none;stroke:#000;stroke-width:20.83px;"/><path d="M3001.79,769.339c-87.979,25.854 -62.777,133.651 -4.812,175.326" style="fill:none;stroke:#000;stroke-width:20.83px;"/><path d="M2972.75,1003.74c-87.979,25.854 -96.907,151.372 -38.942,193.048" style="fill:none;stroke:#000;stroke-width:20.83px;"/><path d="M3000.74,1128.47c-87.979,25.853 -88.019,183.692 -30.053,225.368" style="fill:none;stroke:#000;stroke-width:20.83px;"/><path d="M2899.72,1149.56c-103.626,19.842 -119.103,185.344 -45.081,233.188" style="fill:none;stroke:#000;stroke-width:20.83px;"/><path d="M2797.96,1163.27c-103.625,19.842 -122.89,140.551 -48.868,188.396" style="fill:none;stroke:#000;stroke-width:20.83px;"/><path d="M2880.36,1010.42c-103.625,19.842 -122.891,140.551 -48.868,188.395" style="fill:none;stroke:#000;stroke-width:20.83px;"/><path d="M2939.55,768.606c-103.626,19.842 -122.891,140.551 -48.869,188.395" style="fill:none;stroke:#000;stroke-width:20.83px;"/><path d="M2984.15,597.921c-103.625,19.841 -99.355,139.87 -25.333,187.714" style="fill:none;stroke:#000;stroke-width:20.83px;"/><path d="M3077.87,585.067c-63.011,47.844 -18.601,84.558 22.96,110.022" style="fill:none;stroke:#000;stroke-width:20.83px;"/><path d="M3020.28,1310.54c-85.689,27.455 -50.839,149.165 4.123,188.741" style="fill:none;stroke:#000;stroke-width:20.83px;"/><path d="M3094.63,1314.03c-82.955,37.181 -32.657,142.12 17.163,171.994" style="fill:none;stroke:#000;stroke-width:20.83px;"/><path d="M3250.13,743.893c-122.779,49.94 -113.232,176.651 -32.651,212.325" style="fill:none;stroke:#000;stroke-width:20.83px;"/><path d="M3320.58,649.407c-116.901,68.58 -68.053,154.072 8.761,177.798" style="fill:none;stroke:#000;stroke-width:20.83px;"/><path d="M3392.28,542.866c-116.901,68.58 -70.038,142.244 6.776,165.97" style="fill:none;stroke:#000;stroke-width:20.83px;"/><path d="M4810.42,1590.95c-314.123,-388.937 -702.183,-711.006 -1033.03,-815.3c-298.394,95.162 -495.59,257.373 -567.476,502.607c-31.074,282.878 -8.016,526.156 245.18,601.077c250.54,56.231 1063.49,-42.74 1272.18,-165.632l-261.169,-0.423c121.284,-13.164 344.311,-122.329 344.311,-122.329Z" style="stroke:#000;stroke-width:20.83px;"/><path d="M3773.46,695.18c-63.571,47.507 -91.115,94.615 -73.077,141.219" style="fill:none;stroke:#000;stroke-width:20.83px;"/><path d="M3663.69,675.372c-77.511,52.23 -49.524,136.877 -12.539,177.061" style="fill:none;stroke:#000;stroke-width:20.83px;"/><path d="M3582.62,560.179c-108.107,64.395 -43.692,182.803 25.169,210.313" style="fill:none;stroke:#000;stroke-width:20.83px;"/><path d="M3516.75,461.253c-108.107,64.395 -61.315,155.055 7.546,182.565" style="fill:none;stroke:#000;stroke-width:20.83px;"/><path d="M3456.38,426.743c-108.107,64.394 -61.315,155.054 7.546,182.565" style="fill:none;stroke:#000;stroke-width:20.83px;"/><path d="M3356,365.735c-108.107,64.395 -32.598,151.685 36.263,179.196" style="fill:none;stroke:#000;stroke-width:20.83px;"/><path d="M3270.07,347.88c-58.677,65.167 1.191,77.538 30.665,103.838" style="fill:none;stroke:#000;stroke-width:20.83px;"/><path d="M3126.41,299.614c-24.179,70.748 13.505,79.349 23.419,101.989" style="fill:none;stroke:#000;stroke-width:20.83px;"/><path d="M3035.72,257.275c-55.816,68.364 -14.993,83.104 10.847,106.566" style="fill:none;stroke:#000;stroke-width:20.83px;"/><path d="M3297.51,448.025c-108.107,64.395 -45.917,164.91 22.945,192.42" style="fill:none;stroke:#000;stroke-width:20.83px;"/><path d="M3233.92,550.801c-108.107,64.394 -57.052,169.934 11.809,197.444" style="fill:none;stroke:#000;stroke-width:20.83px;"/><path d="M3132.28,451.113c-108.106,64.395 -57.052,169.935 11.81,197.445" style="fill:none;stroke:#000;stroke-width:20.83px;"/><path d="M3037.45,450.401c-108.107,64.395 -57.052,169.935 11.809,197.445" style="fill:none;stroke:#000;stroke-width:20.83px;"/><path d="M3008.55,325.499c-86.828,54.22 -75.566,142.718 -29.59,181.172" style="fill:none;stroke:#000;stroke-width:20.83px;"/><path d="M2941.89,441.096c-99.394,48.81 -67.425,132.174 -9.222,175.892" style="fill:none;stroke:#000;stroke-width:20.83px;"/><path d="M2888.16,590.945c-99.393,48.81 -58.518,151.604 -0.316,195.322" style="fill:none;stroke:#000;stroke-width:20.83px;"/><path d="M2840.56,741.679c-99.393,48.809 -89.835,140.81 -31.633,184.528" style="fill:none;stroke:#000;stroke-width:20.83px;"/><path d="M2772.9,577.489c-99.393,48.809 -50.371,160.87 7.831,204.588" style="fill:none;stroke:#000;stroke-width:20.83px;"/><path d="M2823.11,451.321c-99.393,48.81 -47.098,139.76 11.104,183.478" style="fill:none;stroke:#000;stroke-width:20.83px;"/><path d="M2900.84,331.588c-101.129,53.797 -83.771,146.049 -24.096,182.457" style="fill:none;stroke:#000;stroke-width:20.83px;"/><path d="M2964.12,229.444c-78.662,59.298 -64.906,126.049 -21.819,148.964" style="fill:none;stroke:#000;stroke-width:20.83px;"/><path d="M2875.69,203.283c-82.446,59.658 -84.855,152.769 -39.684,175.839" style="fill:none;stroke:#000;stroke-width:20.83px;"/><path d="M2803.96,290.29c-104.648,45.25 -97.302,162.958 -36.661,203.613" style="fill:none;stroke:#000;stroke-width:20.83px;"/><path d="M2721.98,420.555c-104.648,45.25 -58.104,154.865 2.536,195.52" style="fill:none;stroke:#000;stroke-width:20.83px;"/><path d="M2688.84,580.93c-117.36,37.409 -52.141,161.944 15.116,206.681" style="fill:none;stroke:#000;stroke-width:20.83px;"/><path d="M2595.78,445.912c-110.702,63.14 -39.804,188.704 21.053,208.702" style="fill:none;stroke:#000;stroke-width:20.83px;"/><path d="M2554.05,364.397c-110.702,63.14 -77.308,165.166 -16.452,185.164" style="fill:none;stroke:#000;stroke-width:20.83px;"/><path d="M2554.05,364.397c-110.702,63.14 -77.308,165.166 -16.452,185.164" style="fill:none;stroke:#000;stroke-width:20.83px;"/><path d="M2611.93,210.647c-86.08,68.075 -57.89,169.058 -16.452,185.164" style="fill:none;stroke:#000;stroke-width:20.83px;"/><path d="M2525.73,226.851c-86.08,68.075 -75.439,164.358 -34,180.464" style="fill:none;stroke:#000;stroke-width:20.83px;"/><path d="M2454.21,346.571c-86.08,68.075 -75.439,164.358 -34,180.464" style="fill:none;stroke:#000;stroke-width:20.83px;"/><path d="M2386.29,507.448c-86.08,68.075 -75.439,164.359 -34.001,180.464" style="fill:none;stroke:#000;stroke-width:20.83px;"/><path d="M2401.98,656.188c-104.023,39.902 -69.788,134.52 -4.951,187.364" style="fill:none;stroke:#000;stroke-width:20.83px;"/><path d="M2377.53,926.902c-83.68,39.513 -76.309,123.174 -35.26,176.475" style="fill:none;stroke:#000;stroke-width:20.83px;"/><path d="M2310.25,1053.64c-118.294,48.349 -125.789,199.494 -57.624,245.871" style="fill:none;stroke:#000;stroke-width:20.83px;"/><path d="M2210.17,1237.5c-116.872,55.77 -58.232,183.627 7.405,216.81" style="fill:none;stroke:#000;stroke-width:20.83px;"/><path d="M2154.53,1389.63c-116.871,55.769 -57.613,155.401 8.024,188.585" style="fill:none;stroke:#000;stroke-width:20.83px;"/><path d="M2095.26,1512.17c-95.261,63.745 -43.126,153.846 -0.27,171.312" style="fill:none;stroke:#000;stroke-width:20.83px;"/><path d="M1953.82,1450.54c-95.26,63.745 -23.358,158.63 19.498,176.096" style="fill:none;stroke:#000;stroke-width:20.83px;"/><path d="M1919.25,1588.68c-95.261,63.745 -43.126,153.846 -0.27,171.312" style="fill:none;stroke:#000;stroke-width:20.83px;"/><path d="M1870.55,1451.69c-95.261,63.746 -43.126,153.847 -0.27,171.312" style="fill:none;stroke:#000;stroke-width:20.83px;"/><path d="M1803.14,1325.42c-111.167,30.898 -41.687,171.263 3.122,198.988" style="fill:none;stroke:#000;stroke-width:20.83px;"/><path d="M1970.75,1717.07c-95.26,63.745 -43.125,153.846 -0.269,171.311" style="fill:none;stroke:#000;stroke-width:20.83px;"/><path d="M2030.88,1828.6c-95.26,63.745 -42.658,194.45 0.198,211.915" style="fill:none;stroke:#000;stroke-width:20.83px;"/><path d="M1913.29,1769.72c-128.478,77.031 -77.307,223.26 5.009,224.944" style="fill:none;stroke:#000;stroke-width:20.83px;"/><path d="M1859,1673.27c-109.796,59.015 -74.418,149.321 -24.756,182.492" style="fill:none;stroke:#000;stroke-width:20.83px;"/><path d="M1817.82,1529.33c-109.795,59.015 -74.417,149.32 -24.755,182.492" style="fill:none;stroke:#000;stroke-width:20.83px;"/><path d="M2080.84,1862.9c-95.261,63.745 -25.636,156.656 17.22,174.122" style="fill:none;stroke:#000;stroke-width:20.83px;"/><path d="M2198.63,1926.49c-114.235,49.364 -53.464,181.919 -3.517,204.759" style="fill:none;stroke:#000;stroke-width:20.83px;"/><path d="M2134.57,1802.05c-95.261,63.745 -43.126,153.846 -0.27,171.311" style="fill:none;stroke:#000;stroke-width:20.83px;"/><path d="M2085.07,1695.18c-95.261,63.745 -47.898,152.002 -5.042,169.467" style="fill:none;stroke:#000;stroke-width:20.83px;"/><path d="M2035.49,1586.78c-112.309,53.066 -57.733,149.05 -7.039,171.425" style="fill:none;stroke:#000;stroke-width:20.83px;"/><path d="M2053.84,1389.22c-112.309,53.065 -57.733,149.049 -7.039,171.424" style="fill:none;stroke:#000;stroke-width:20.83px;"/><path d="M2005.76,1287.07c-103.823,53.421 -59.563,168.149 -17.852,190.148" style="fill:none;stroke:#000;stroke-width:20.83px;"/><path d="M1888.3,1273.69c-103.823,53.422 -18.528,176.809 23.183,198.809" style="fill:none;stroke:#000;stroke-width:20.83px;"/><path d="M1878.39,1129.1c-116.639,40.389 -103.423,176.407 -44.613,211.751" style="fill:none;stroke:#000;stroke-width:20.83px;"/><path d="M1772.48,1129.43c-116.64,40.389 -87.177,199.926 -28.368,235.27" style="fill:none;stroke:#000;stroke-width:20.83px;"/><path d="M1692.82,1288.09c-116.639,40.389 -67.056,185.041 -8.246,220.386" style="fill:none;stroke:#000;stroke-width:20.83px;"/><path d="M1752.28,1472.08c-116.639,40.388 -62.715,144.977 -3.905,180.322" style="fill:none;stroke:#000;stroke-width:20.83px;"/><path d="M1636.35,1450.21c-101.358,40.469 -59.259,142.175 -14.325,177.446" style="fill:none;stroke:#000;stroke-width:20.83px;"/><path d="M1513.11,1464.19c-107.017,59.053 -59.062,181.279 -4.77,185.819" style="fill:none;stroke:#000;stroke-width:20.83px;"/><path d="M1416.18,1445.41c-82.857,49.452 -62.129,176.499 -19.874,185.823" style="fill:none;stroke:#000;stroke-width:20.83px;"/><path d="M1316.35,1453.13c-81.191,36.607 -67.555,138.635 -26.013,153.455" style="fill:none;stroke:#000;stroke-width:20.83px;"/><path d="M1352.72,1566.77c-108.315,37.578 -43.803,150.753 27.757,164.497" style="fill:none;stroke:#000;stroke-width:20.83px;"/><path d="M1245.68,1540.86c-83.545,39.308 -17.736,123.209 33.527,135.535" style="fill:none;stroke:#000;stroke-width:20.83px;"/><path d="M1205.58,1464.68c-110.256,41.761 -77.859,146.107 -3.676,156.328" style="fill:none;stroke:#000;stroke-width:20.83px;"/><path d="M1137.27,1386.51c-89.906,25.328 -55.154,127.772 -3.676,156.328" style="fill:none;stroke:#000;stroke-width:20.83px;"/><path d="M1051.45,1388.33c-93.423,32.608 -59.255,164.576 3.43,169.938" style="fill:none;stroke:#000;stroke-width:20.83px;"/><path d="M957.129,1375.55c-93.424,32.607 -75.85,170.994 -13.165,176.356" style="fill:none;stroke:#000;stroke-width:20.83px;"/><path d="M895.895,1242.15c-93.424,32.607 -63.516,177.551 -0.831,182.913" style="fill:none;stroke:#000;stroke-width:20.83px;"/><path d="M992.697,1520.24c-93.424,32.608 -47.901,186.907 14.784,192.269" style="fill:none;stroke:#000;stroke-width:20.83px;"/><path d="M938.617,1611.74c-70.619,33.226 -44.888,150.558 -5.733,155.282" style="fill:none;stroke:#000;stroke-width:20.83px;"/><path d="M896.775,1514.03c-70.619,33.226 -32.046,120.505 7.11,125.229" style="fill:none;stroke:#000;stroke-width:20.83px;"/><path d="M851.61,1399.25c-70.618,33.227 -32.459,157.39 6.696,162.114" style="fill:none;stroke:#000;stroke-width:20.83px;"/><path d="M1004.18,1236.34c-93.423,32.608 -59.255,164.576 3.43,169.938" style="fill:none;stroke:#000;stroke-width:20.83px;"/><path d="M958.909,1078.31c-119.451,26.37 -92.292,185.26 -9.175,195.518" style="fill:none;stroke:#000;stroke-width:20.83px;"/><path d="M1006.5,1019.28c-72.051,32.715 -36.346,128.758 3.587,134.006" style="fill:none;stroke:#000;stroke-width:20.83px;"/><path d="M873.231,1054.96c-72.05,32.715 -36.345,128.757 3.588,134.005" style="fill:none;stroke:#000;stroke-width:20.83px;"/><path d="M834.469,1155.58c-85.864,37.283 -61.744,170.092 -8.49,170.935" style="fill:none;stroke:#000;stroke-width:20.83px;"/><path d="M796.997,1312.25c-85.865,37.283 -42.144,153.752 11.109,154.595" style="fill:none;stroke:#000;stroke-width:20.83px;"/><path d="M1097.55,1527.32c-89.906,25.328 -22.705,144.935 28.773,173.492" style="fill:none;stroke:#000;stroke-width:20.83px;"/><path d="M1216.77,1206.56c-133.627,17.369 -104.369,184.726 -20.163,215.675" style="fill:none;stroke:#000;stroke-width:20.83px;"/><path d="M1216.77,1206.56c-133.627,17.369 -104.369,184.726 -20.163,215.675" style="fill:none;stroke:#000;stroke-width:20.83px;"/><path d="M1254.49,1019.4c-115.989,20.184 -76.186,159.167 -28.254,184.325" style="fill:none;stroke:#000;stroke-width:20.83px;"/><path d="M1433.58,682.034c-98.501,43.762 -66.954,171.614 -28.255,184.325" style="fill:none;stroke:#000;stroke-width:20.83px;"/><path d="M1364.88,760.738c-110.562,49.945 -88.225,176.021 -40.801,184.26" style="fill:none;stroke:#000;stroke-width:20.83px;"/><path d="M1291.2,829.239c-125.642,48.033 -104.708,177.898 -35.293,188.924" style="fill:none;stroke:#000;stroke-width:20.83px;"/><path d="M1208.26,885.141c-125.642,48.033 -104.708,177.898 -35.293,188.924" style="fill:none;stroke:#000;stroke-width:20.83px;"/><path d="M1175.62,1074.32c-100.789,43.853 -74.209,161.367 -39.473,178.224" style="fill:none;stroke:#000;stroke-width:20.83px;"/><path d="M1127.12,939.088c-95.763,61.89 -54.164,196.842 -20.68,191.203" style="fill:none;stroke:#000;stroke-width:20.83px;"/><path d="M1067.9,1077.84c-95.764,61.89 -54.164,196.842 -20.681,191.204" style="fill:none;stroke:#000;stroke-width:20.83px;"/><path d="M1106.92,1215.86c-95.764,61.89 -54.164,196.842 -20.68,191.203" style="fill:none;stroke:#000;stroke-width:20.83px;"/><path d="M1489.03,1646.89c-107.017,59.053 -37.103,164.998 17.19,169.538" style="fill:none;stroke:#000;stroke-width:20.83px;"/><path d="M1447.01,1593.62c-110.719,53.037 -69.123,166.035 -12.339,173.765" style="fill:none;stroke:#000;stroke-width:20.83px;"/><path d="M1567.31,1314.21c-104.431,53.243 -52.095,182.957 -1.823,196.033" style="fill:none;stroke:#000;stroke-width:20.83px;"/><path d="M1474.12,1280.03c-104.43,53.242 -60.833,197.51 -10.561,210.587" style="fill:none;stroke:#000;stroke-width:20.83px;"/><path d="M1440.05,1143.52c-128.657,58.504 -100.577,204.941 -34.02,214.481" style="fill:none;stroke:#000;stroke-width:20.83px;"/><path d="M1287.34,1158.35c-128.658,58.504 -65.199,182.735 1.358,192.275" style="fill:none;stroke:#000;stroke-width:20.83px;"/><path d="M1345.44,1279.52c-104.43,53.243 -32.56,204.622 17.713,217.699" style="fill:none;stroke:#000;stroke-width:20.83px;"/><path d="M1252.01,1342.23c-88.624,53.325 -29.626,165.564 2.112,178.544" style="fill:none;stroke:#000;stroke-width:20.83px;"/><path d="M1670.08,1129.84c-117.496,44.025 -122.136,214.662 -53.195,244.643" style="fill:none;stroke:#000;stroke-width:20.83px;"/><path d="M1734.26,1007.91c-88.432,57.237 -67.782,164.241 -31.266,179.481" style="fill:none;stroke:#000;stroke-width:20.83px;"/><path d="M1812.73,893.37c-88.433,57.237 -78.648,138.209 -42.133,153.449" style="fill:none;stroke:#000;stroke-width:20.83px;"/><path d="M1775.69,738.925c-88.432,57.237 -47.704,171.662 -11.189,186.902" style="fill:none;stroke:#000;stroke-width:20.83px;"/><path d="M1788.9,581.099c-88.432,57.237 -28.883,156.981 7.632,172.221" style="fill:none;stroke:#000;stroke-width:20.83px;"/><path d="M1724.59,603.582c-88.433,57.236 -28.884,156.98 7.632,172.22" style="fill:none;stroke:#000;stroke-width:20.83px;"/><path d="M1698.98,504.292c-91.427,45.026 -71.457,150.908 -23.77,176.316" style="fill:none;stroke:#000;stroke-width:20.83px;"/><path d="M1696.39,754.127c-88.432,57.237 -53.84,161.671 -17.325,176.912" style="fill:none;stroke:#000;stroke-width:20.83px;"/><path d="M1571.7,752.402c-145.577,65.373 -54.233,161.13 -15.836,180.399" style="fill:none;stroke:#000;stroke-width:20.83px;"/><path d="M1640.68,654.683c-121.697,76.083 -39.843,171.884 -7.332,189.487" style="fill:none;stroke:#000;stroke-width:20.83px;"/><path d="M1605.23,516.41c-85.182,88.357 -29.413,175.499 -19.84,185.392" style="fill:none;stroke:#000;stroke-width:20.83px;"/><path d="M1548.41,605.65c-117.625,57.323 -74.732,160.536 -46.693,188.094" style="fill:none;stroke:#000;stroke-width:20.83px;"/><path d="M1481.79,767.177c-117.625,57.322 -64.591,159.798 -36.552,187.356" style="fill:none;stroke:#000;stroke-width:20.83px;"/><path d="M1401.99,870.625c-117.624,57.323 -64.59,159.799 -36.551,187.356" style="fill:none;stroke:#000;stroke-width:20.83px;"/><path d="M1325.12,969.052c-117.624,57.322 -64.59,159.798 -36.551,187.356" style="fill:none;stroke:#000;stroke-width:20.83px;"/><path d="M1738.83,902.422c-99.628,39.8 -112.12,138.806 -63.038,173.619" style="fill:none;stroke:#000;stroke-width:20.83px;"/><path d="M1638.41,884.766c-99.628,39.801 -112.12,138.807 -63.038,173.619" style="fill:none;stroke:#000;stroke-width:20.83px;"/><path d="M1642.59,1005.32c-99.628,39.8 -94.349,145.189 -45.267,180.001" style="fill:none;stroke:#000;stroke-width:20.83px;"/><path d="M1540.3,1005.14c-112.144,47.262 -117.784,171.386 -50.598,195.421" style="fill:none;stroke:#000;stroke-width:20.83px;"/><path d="M1361.01,1072.29c-98.098,46.753 -84.343,172.683 -25.802,197.03" style="fill:none;stroke:#000;stroke-width:20.83px;"/><path d="M1447.89,965.547c-98.099,46.754 -98.324,171.393 -39.783,195.74" style="fill:none;stroke:#000;stroke-width:20.83px;"/><path d="M1502.55,892.511c-54.008,45.843 -63.779,134.279 -34.03,159.221" style="fill:none;stroke:#000;stroke-width:20.83px;"/><path d="M1560.48,1140.2c-99.628,39.801 -90.799,168.278 -41.717,203.091" style="fill:none;stroke:#000;stroke-width:20.83px;"/><path d="M1879.55,424.19c-124.869,34.731 -112.261,174.709 -46.517,188.158" style="fill:none;stroke:#000;stroke-width:20.83px;"/><path d="M1949.36,374c-104.512,37.137 -102.754,164.295 -49.235,195.294" style="fill:none;stroke:#000;stroke-width:20.83px;"/><path d="M1789.45,419.614c-104.512,37.137 -102.754,164.296 -49.236,195.294" style="fill:none;stroke:#000;stroke-width:20.83px;"/><path d="M1784.54,1782.11c-81.301,20.413 -66.026,147.543 19.853,165.518" style="fill:none;stroke:#000;stroke-width:20.83px;"/><path d="M1742.08,1656.38c-59.014,14.808 -59.46,126.624 0.01,151.241" style="fill:none;stroke:#000;stroke-width:20.83px;"/><path d="M1691.94,1738.81c-106.65,17.485 -86.125,120.515 1.523,150.159" style="fill:none;stroke:#000;stroke-width:20.83px;"/><path d="M1619.75,1696.62c-88.057,0.31 -78.002,125.897 -6.046,170.035" style="fill:none;stroke:#000;stroke-width:20.83px;"/><path d="M1693.03,1591.99c-106.651,17.485 -86.126,120.515 1.523,150.158" style="fill:none;stroke:#000;stroke-width:20.83px;"/><path d="M1573.88,1566.18c-79.363,14.181 -70.242,136.719 -15.812,170.384" style="fill:none;stroke:#000;stroke-width:20.83px;"/><path d="M2104.29,1210.92c-122.449,45.804 -50.442,198.522 4.75,206.721" style="fill:none;stroke:#000;stroke-width:20.83px;"/><path d="M2204.28,1062.55c-131.266,49.302 -112.256,181.095 -47.677,216.618" style="fill:none;stroke:#000;stroke-width:20.83px;"/><path d="M2087.62,1087.11c-131.267,49.302 -119.086,177.458 -54.507,212.982" style="fill:none;stroke:#000;stroke-width:20.83px;"/><path d="M2005.44,1129.16c-147.997,47.041 -135.288,163.955 -52.649,201.92" style="fill:none;stroke:#000;stroke-width:20.83px;"/><path d="M1948.64,999.224c-97.567,49.326 -81.304,146.83 -36.063,183.1" style="fill:none;stroke:#000;stroke-width:20.83px;"/><path d="M1833.44,986.308c-97.568,49.327 -74.645,149.556 -29.403,185.826" style="fill:none;stroke:#000;stroke-width:20.83px;"/><path d="M1903.32,874.978c-97.568,49.327 -71.742,145.409 -26.5,181.679" style="fill:none;stroke:#000;stroke-width:20.83px;"/><path d="M1984.16,854.342c-97.568,49.327 -39.938,149.432 5.304,185.701" style="fill:none;stroke:#000;stroke-width:20.83px;"/><path d="M1946.06,711.877c-97.567,49.327 -54.225,156.999 -8.984,193.268" style="fill:none;stroke:#000;stroke-width:20.83px;"/><path d="M2049.44,759.263c-97.568,49.327 -39.937,149.432 5.304,185.701" style="fill:none;stroke:#000;stroke-width:20.83px;"/><path d="M2101.05,658.112c-97.567,49.326 -39.937,149.431 5.305,185.701" style="fill:none;stroke:#000;stroke-width:20.83px;"/><path d="M2011,615.399c-97.568,49.327 -47.537,139.456 -2.296,175.725" style="fill:none;stroke:#000;stroke-width:20.83px;"/><path d="M1901.89,568.898c-120.556,28.486 -62.327,126.047 -2.295,175.725" style="fill:none;stroke:#000;stroke-width:20.83px;"/><path d="M2183.25,523.87c-106.773,49.735 -89.517,150.611 -34.723,186.457" style="fill:none;stroke:#000;stroke-width:20.83px;"/><path d="M2105.08,516.963c-110.332,41.24 -101.012,143.155 -49.186,183.173" style="fill:none;stroke:#000;stroke-width:20.83px;"/><path d="M1994.06,483.774c-110.332,41.24 -101.012,143.155 -49.186,183.173" style="fill:none;stroke:#000;stroke-width:20.83px;"/><path d="M1870.03,712.583c-110.332,41.24 -78.996,154.581 -27.17,194.599" style="fill:none;stroke:#000;stroke-width:20.83px;"/><path d="M1870.03,712.583c-110.332,41.24 -78.996,154.581 -27.17,194.599" style="fill:none;stroke:#000;stroke-width:20.83px;"/><path d="M2175.64,361.889c-106.772,49.735 -89.517,150.611 -34.722,186.456" style="fill:none;stroke:#000;stroke-width:20.83px;"/><path d="M2058.99,413.062c-92.288,47.76 -80.759,133.769 -34.641,170.798" style="fill:none;stroke:#000;stroke-width:20.83px;"/><path d="M2241.97,227.989c-94.643,55.02 -59.678,172.104 -26.193,198.666" style="fill:none;stroke:#000;stroke-width:20.83px;"/><path d="M2122.41,261.481c-94.643,55.02 -59.677,172.104 -26.193,198.666" style="fill:none;stroke:#000;stroke-width:20.83px;"/><path d="M2023.31,285.125c-94.642,55.019 -69.36,184.705 -35.875,211.267" style="fill:none;stroke:#000;stroke-width:20.83px;"/><path d="M2277.76,932.304c-104.824,52.412 -80.506,139.879 -40.814,171.074" style="fill:none;stroke:#000;stroke-width:20.83px;"/><path d="M2359.67,817.033c-104.824,52.412 -80.505,139.879 -40.814,171.074" style="fill:none;stroke:#000;stroke-width:20.83px;"/><path d="M2260.86,808.312c-104.823,52.412 -80.505,139.878 -40.813,171.074" style="fill:none;stroke:#000;stroke-width:20.83px;"/><path d="M2148.87,819.41c-88.416,51.556 -58.891,124.77 -36.607,156.874" style="fill:none;stroke:#000;stroke-width:20.83px;"/><path d="M2177.48,924.536c-104.823,52.411 -100.519,166.179 -60.827,197.374" style="fill:none;stroke:#000;stroke-width:20.83px;"/><path d="M2081.89,933.233c-104.824,52.412 -100.519,166.179 -60.828,197.374" style="fill:none;stroke:#000;stroke-width:20.83px;"/><path d="M2321.58,660.861c-120.969,52.327 -69.158,152.267 -10.88,183.56" style="fill:none;stroke:#000;stroke-width:20.83px;"/><path d="M2202.73,672.361c-58.439,25.279 -76.555,61.67 -73.099,96.065c3.699,36.802 32.095,71.32 62.22,87.495" style="fill:none;stroke:#000;stroke-width:20.83px;"/><path d="M2270.3,536.863c-120.969,52.327 -77.738,155.591 -19.459,186.884" style="fill:none;stroke:#000;stroke-width:20.83px;"/><path d="M2344.05,394.843c-120.969,52.328 -77.738,155.592 -19.459,186.884" style="fill:none;stroke:#000;stroke-width:20.83px;"/><path d="M2310.87,240.852c-74.12,53.495 -43.136,156.454 -19.46,186.884" style="fill:none;stroke:#000;stroke-width:20.83px;"/><path d="M2263.21,380.501c-74.119,53.495 -80.921,161.89 -57.245,192.32" style="fill:none;stroke:#000;stroke-width:20.83px;"/><path d="M2401.45,234.887c-85.911,61.185 -60.332,182.653 -19.46,186.884" style="fill:none;stroke:#000;stroke-width:20.83px;"/><path d="M2161.86,1606.85c-109.548,50.757 -53.516,159.875 -1.314,202.25" style="fill:none;stroke:#000;stroke-width:20.83px;"/><path d="M2621.89,663.227c-110.702,63.141 -51.035,171.638 9.822,191.636" style="fill:none;stroke:#000;stroke-width:20.83px;"/><path d="M2552.5,758.034c-138.223,71.562 -70.565,182.197 21.117,192.762" style="fill:none;stroke:#000;stroke-width:20.83px;"/><path d="M2673.08,308.134c-108.282,61.307 -75.714,177.429 -15.006,204.922" style="fill:none;stroke:#000;stroke-width:20.83px;"/><path d="M2757.21,168.568c-97.73,57.494 -94.232,160.991 -39.451,186.755" style="fill:none;stroke:#000;stroke-width:20.83px;"/><path d="M2750.02,754.849c-79.557,37.524 -50.047,98.053 -12.6,145.85" style="fill:none;stroke:#000;stroke-width:20.83px;"/><path d="M2691.07,780.608c-92.245,36.254 -46.272,113.108 -1.168,161.671" style="fill:none;stroke:#000;stroke-width:20.83px;"/><path d="M2635.68,856.069c-102.563,51.515 -41.995,144.05 9.778,182.75" style="fill:none;stroke:#000;stroke-width:20.83px;"/><path d="M2571.46,951.113c-94.882,57.781 -54.349,125.245 -11.069,157.016" style="fill:none;stroke:#000;stroke-width:20.83px;"/><path d="M2507.38,1047.13c-102.86,51.556 -83.077,210.937 -31.409,249.255" style="fill:none;stroke:#000;stroke-width:20.83px;"/><path d="M2438.98,1238.04c-102.86,51.556 -49.045,165.44 2.623,203.757" style="fill:none;stroke:#000;stroke-width:20.83px;"/><path d="M2321.34,1212.38c-112.896,67.664 -54.831,212.214 13.142,224.364" style="fill:none;stroke:#000;stroke-width:20.83px;"/><path d="M2403.9,1042.13c-116.41,76.711 -87.312,237.918 -14.376,245.284" style="fill:none;stroke:#000;stroke-width:20.83px;"/><path d="M2477.18,888.67c-102.103,79.837 -70.885,199.42 -30.903,204.517" style="fill:none;stroke:#000;stroke-width:20.83px;"/><path d="M2446.09,821.508c-101.297,56.111 -78.338,115.335 -39.239,146.402" style="fill:none;stroke:#000;stroke-width:20.83px;"/><path d="M2470.16,675.515c-119.763,61.233 -49.356,131.641 2.482,159.175" style="fill:none;stroke:#000;stroke-width:20.83px;"/><path d="M2546.12,584.778c-111.814,50.203 -61.002,144.088 -15.774,178.598" style="fill:none;stroke:#000;stroke-width:20.83px;"/><path d="M2475.68,496.229c-111.813,50.203 -82.335,158.351 -37.107,192.86" style="fill:none;stroke:#000;stroke-width:20.83px;"/><path d="M2391.71,1384.08c-92.891,31.242 -39.945,169.979 20.315,184.602" style="fill:none;stroke:#000;stroke-width:20.83px;"/><path d="M2354.93,1517.71c-92.89,31.242 -69.643,158.567 -9.383,173.189" style="fill:none;stroke:#000;stroke-width:20.83px;"/><path d="M2233.85,1503.82c-92.89,31.242 -69.643,158.567 -9.383,173.19" style="fill:none;stroke:#000;stroke-width:20.83px;"/><path d="M2268.54,1383.64c-84.433,49.757 -33.385,171.19 28.596,173.049" style="fill:none;stroke:#000;stroke-width:20.83px;"/><path d="M2285.36,1626.63c-92.89,31.242 -69.643,158.567 -9.382,173.19" style="fill:none;stroke:#000;stroke-width:20.83px;"/><path d="M2219.24,1731.07c-92.89,31.243 -58.094,176.586 2.166,191.209" style="fill:none;stroke:#000;stroke-width:20.83px;"/><path d="M2273.71,1886.93c-106.805,34.15 -80.928,170.072 -15.62,183.639" style="fill:none;stroke:#000;stroke-width:20.83px;"/><path d="M2845.72,909.04c-74.635,38.228 -70.775,96.417 -46.113,154.469" style="fill:none;stroke:#000;stroke-width:20.83px;"/><path d="M2773.08,1008.24c-103.887,33.967 -111.007,147.379 -62.021,208.975" style="fill:none;stroke:#000;stroke-width:20.83px;"/><path d="M2700.21,1288.79c-103.368,54.574 -54.128,173.323 -5.736,211.287" style="fill:none;stroke:#000;stroke-width:20.83px;"/><path d="M2601.76,1588.59c-103.367,54.574 -58.949,147.952 -10.558,185.916" style="fill:none;stroke:#000;stroke-width:20.83px;"/><path d="M2555.47,1447.48c-103.367,54.574 -58.949,147.952 -10.558,185.916" style="fill:none;stroke:#000;stroke-width:20.83px;"/><path d="M2455.57,1533.4c-103.368,54.574 -55.714,143.17 -7.323,181.134" style="fill:none;stroke:#000;stroke-width:20.83px;"/><path d="M2481.85,1410c-88.629,59.143 -28.814,127.704 9.325,162.49" style="fill:none;stroke:#000;stroke-width:20.83px;"/><path d="M2615.62,1320.17c-103.367,54.575 -59.795,135.563 -11.404,173.527" style="fill:none;stroke:#000;stroke-width:20.83px;"/><path d="M2521.95,1256.26c-103.368,54.574 -34.462,163.701 13.929,201.665" style="fill:none;stroke:#000;stroke-width:20.83px;"/><path d="M2586.04,1094.29c-103.368,54.575 -56.465,202.354 -8.073,240.318" style="fill:none;stroke:#000;stroke-width:20.83px;"/><path d="M2682.18,1172.14c-103.368,54.574 -89.314,139.041 -40.923,177.005" style="fill:none;stroke:#000;stroke-width:20.83px;"/><path d="M2666.79,1024.86c-103.368,54.575 -89.315,139.042 -40.923,177.005" style="fill:none;stroke:#000;stroke-width:20.83px;"/><path d="M2774.51,885.365c-106.405,59.369 -130.796,147.508 -73.471,171.365" style="fill:none;stroke:#000;stroke-width:20.83px;"/><path d="M2523.48,1626.91c-103.368,54.575 -72.913,143.169 -24.522,181.132" style="fill:none;stroke:#000;stroke-width:20.83px;"/><path d="M2398.54,1643.93c-103.368,54.574 -60.013,140.237 -11.622,178.2" style="fill:none;stroke:#000;stroke-width:20.83px;"/><path d="M2627.06,1757.55c-103.368,54.574 -37.674,138.228 10.717,176.191" style="fill:none;stroke:#000;stroke-width:20.83px;"/><path d="M2563.32,1760.87c-116.142,49.637 -45.31,152.151 13.015,193.956" style="fill:none;stroke:#000;stroke-width:20.83px;"/><path d="M2460.68,1766.64c-116.141,49.636 -45.31,152.15 13.016,193.955" style="fill:none;stroke:#000;stroke-width:20.83px;"/><path d="M2331.2,1756.63c-116.142,49.636 -45.31,152.151 13.015,193.955" style="fill:none;stroke:#000;stroke-width:20.83px;"/><path d="M2605.98,1902.8c-65.193,66.682 11.442,83.781 27.698,100.199" style="fill:none;stroke:#000;stroke-width:20.83px;"/><path d="M2517.69,1909.69c-65.193,66.682 11.442,83.781 27.699,100.2" style="fill:none;stroke:#000;stroke-width:20.83px;"/><path d="M2658.01,1453.9c-103.368,54.574 -60.372,154.879 -11.981,192.843" style="fill:none;stroke:#000;stroke-width:20.83px;"/><path d="M3217.92,350.4c-128.248,64.868 -80.393,170.482 11.809,197.445" style="fill:none;stroke:#000;stroke-width:20.83px;"/><path d="M3098.93,298.472c-93.673,73.563 -65.952,171.197 -12.226,188.484" style="fill:none;stroke:#000;stroke-width:20.83px;"/><path d="M3164.18,634.341c-108.107,64.394 -71.469,164.169 -2.608,191.679" style="fill:none;stroke:#000;stroke-width:20.83px;"/><path d="M3041.34,650.217c-96.359,65.751 -28.815,149.387 23.95,175.039" style="fill:none;stroke:#000;stroke-width:20.83px;"/><path d="M3150.37,852.629c-101.806,54.959 -82.267,148.324 -21.668,188.208" style="fill:none;stroke:#000;stroke-width:20.83px;"/><path d="M3048.83,907.39c-85.184,49.09 -80.968,83.192 -40.232,132.347" style="fill:none;stroke:#000;stroke-width:20.83px;"/><path d="M3112.86,801.417c-78.929,34.517 -77.666,75.498 -40.232,132.348" style="fill:none;stroke:#000;stroke-width:20.83px;"/><path d="M2959.62,906.064c-84.528,43.708 -98.34,95.881 -53.95,141.312" style="fill:none;stroke:#000;stroke-width:20.83px;"/><path d="M3163.58,1202.45c-101.807,54.959 -86.111,116.556 -25.512,156.439" style="fill:none;stroke:#000;stroke-width:20.83px;"/><path d="M3201.96,1301.68c-101.807,54.96 -58.273,118.829 2.326,158.712" style="fill:none;stroke:#000;stroke-width:20.83px;"/><path d="M3172.39,1441.85c-108.787,59.195 -76.446,156.142 -10.324,192.675" style="fill:none;stroke:#000;stroke-width:20.83px;"/><path d="M3201.62,1609.93c-104.547,59.573 14.29,166.492 67.394,181.713" style="fill:none;stroke:#000;stroke-width:20.83px;"/><path d="M3251.59,1784.56c-56.078,85.726 30.281,160.089 58.628,159.807" style="fill:none;stroke:#000;stroke-width:20.83px;"/><path d="M3239.21,1897.43c-83.982,44.688 -52.645,154.895 -9.07,177.008" style="fill:none;stroke:#000;stroke-width:20.83px;"/><path d="M3182.55,1735.2c-99.789,44.359 -55.804,181.875 6.592,204.38" style="fill:none;stroke:#000;stroke-width:20.83px;"/><path d="M3088.68,1761.62c-99.789,44.359 -55.804,181.875 6.592,204.38" style="fill:none;stroke:#000;stroke-width:20.83px;"/><path d="M2981.54,1731.42c-99.79,44.359 -55.805,181.876 6.592,204.38" style="fill:none;stroke:#000;stroke-width:20.83px;"/><path d="M2872.86,1683.38c-117.358,38.527 -73.014,178.931 -1.065,204.607" style="fill:none;stroke:#000;stroke-width:20.83px;"/><path d="M2753.59,1717.13c-117.359,38.527 -73.015,178.932 -1.065,204.607" style="fill:none;stroke:#000;stroke-width:20.83px;"/><path d="M2924.83,1851.01c-99.79,44.359 -66.332,152.857 -3.935,175.362" style="fill:none;stroke:#000;stroke-width:20.83px;"/><path d="M2820.63,1850.03c-99.789,44.359 -66.331,152.857 -3.935,175.362" style="fill:none;stroke:#000;stroke-width:20.83px;"/><path d="M2700.37,1877.48c-99.789,44.359 -66.331,152.857 -3.935,175.362" style="fill:none;stroke:#000;stroke-width:20.83px;"/><path d="M2679.67,1623.76c-99.789,44.358 -66.331,152.856 -3.935,175.361" style="fill:none;stroke:#000;stroke-width:20.83px;"/><path d="M3160.45,1912.1c-99.79,44.359 -55.805,181.876 6.591,204.381" style="fill:none;stroke:#000;stroke-width:20.83px;"/><path d="M3094.99,1971.29c-99.79,44.358 -51.687,134.811 10.709,157.315" style="fill:none;stroke:#000;stroke-width:20.83px;"/><path d="M3035.38,1912.46c-99.789,44.359 -55.804,181.876 6.592,204.38" style="fill:none;stroke:#000;stroke-width:20.83px;"/><path d="M2968.62,1999.3c-111.593,39.94 -65.038,139.086 1.878,163.282" style="fill:none;stroke:#000;stroke-width:20.83px;"/><path d="M2872.8,2002.65c-111.593,39.94 -65.038,139.085 1.877,163.282" style="fill:none;stroke:#000;stroke-width:20.83px;"/><path d="M2768.29,1992.86c-111.594,39.94 -58.516,157.861 8.399,182.058" style="fill:none;stroke:#000;stroke-width:20.83px;"/><path d="M2637.39,2000.15c-111.593,39.94 -58.516,157.861 8.4,182.058" style="fill:none;stroke:#000;stroke-width:20.83px;"/><path d="M2594.33,1949.48c-80.864,36.493 -58.141,120.496 -26.335,148.631" style="fill:none;stroke:#000;stroke-width:20.83px;"/><path d="M2496.41,1956.36c-80.865,36.493 -23.751,169.906 8.055,198.041" style="fill:none;stroke:#000;stroke-width:20.83px;"/><path d="M2399.18,1896.61c-107.177,61.945 -79.178,237.88 -11.12,230.948" style="fill:none;stroke:#000;stroke-width:20.83px;"/><path d="M3034.93,1592.22c-99.789,44.359 -55.805,181.876 6.592,204.381" style="fill:none;stroke:#000;stroke-width:20.83px;"/><path d="M3034.93,1592.22c-99.789,44.359 -55.805,181.876 6.592,204.381" style="fill:none;stroke:#000;stroke-width:20.83px;"/><path d="M2933.53,1570.72c-99.79,44.359 -60.365,175.795 2.031,198.299" style="fill:none;stroke:#000;stroke-width:20.83px;"/><path d="M2812.53,1583.83c-99.789,44.359 -76.656,151.957 -14.26,174.462" style="fill:none;stroke:#000;stroke-width:20.83px;"/><path d="M2735.49,1481.45c-99.79,44.358 -62.015,158.929 0.381,181.434" style="fill:none;stroke:#000;stroke-width:20.83px;"/><path d="M2874.79,1468.67c-99.789,44.359 -66.653,183.243 -4.257,205.748" style="fill:none;stroke:#000;stroke-width:20.83px;"/><path d="M3115.95,1585.88c-99.789,44.358 -55.805,181.875 6.592,204.38" style="fill:none;stroke:#000;stroke-width:20.83px;"/><path d="M3339.68,1890.01c-57.16,79.307 17.113,150.632 46.402,155.935" style="fill:none;stroke:#000;stroke-width:20.83px;"/><path d="M3546.39,727.703c-108.107,64.395 -43.692,182.803 25.169,210.313" style="fill:none;stroke:#000;stroke-width:20.83px;"/><path d="M3463.8,618.142c-108.107,64.395 -43.692,182.803 25.169,210.313" style="fill:none;stroke:#000;stroke-width:20.83px;"/><path d="M3472.89,829.78c-108.107,64.394 -43.692,182.802 25.169,210.312" style="fill:none;stroke:#000;stroke-width:20.83px;"/><path d="M3402,931.275c-108.106,64.395 -43.692,182.803 25.17,210.313" style="fill:none;stroke:#000;stroke-width:20.83px;"/><path d="M3396.44,720.612c-108.107,64.395 -51.903,175.19 16.958,202.7" style="fill:none;stroke:#000;stroke-width:20.83px;"/><path d="M3328.11,827.371c-108.107,64.394 -51.903,175.189 16.958,202.699" style="fill:none;stroke:#000;stroke-width:20.83px;"/><path d="M3338.17,1036.12c-108.107,64.395 -61.428,180.91 7.434,208.42" style="fill:none;stroke:#000;stroke-width:20.83px;"/><path d="M3261.83,930.956c-116.901,68.58 -72.725,184.459 4.089,208.184" style="fill:none;stroke:#000;stroke-width:20.83px;"/><path d="M3230.6,1118.81c-111.096,67.194 -62.466,178.85 10.548,203.483" style="fill:none;stroke:#000;stroke-width:20.83px;"/><path d="M3186.59,999.03c-123.944,54.835 -97.655,171.823 -24.039,204.133" style="fill:none;stroke:#000;stroke-width:20.83px;"/><path d="M3996.92,1172.55c-107.742,-10.189 -203.114,65.063 -212.843,167.94c-9.729,102.878 69.846,194.674 177.589,204.863c107.742,10.189 203.115,-65.063 212.843,-167.941c9.729,-102.878 -69.846,-194.673 -177.589,-204.862Z" style="fill:#fff;stroke:#000;stroke-width:1px;"/><path d="M3906.71,1270.8c-32.536,-3.077 -61.45,20.841 -64.527,53.377c-3.076,32.536 20.841,61.449 53.377,64.526c32.536,3.077 61.449,-20.84 64.526,-53.377c3.077,-32.536 -20.84,-61.449 -53.376,-64.526Z" style="stroke:#000;stroke-width:1px;"/><path d="M2659.66,2080.32l-457.666,46.922l339.831,1021.75l-338.884,681.277c288.773,124.68 501.363,201.749 559.934,182.566l70.815,-139.514l-282.007,-217.973l280.378,-612.188l-241.42,-578.327l480.737,173.89l-230.824,600.285c101.711,60.631 219.316,167.663 371.981,377.034l223.027,-108.659l-348.116,-456.287l344.398,-607.97l-772.184,-362.805Z"/></g></g></svg>