<?xml version="1.0" encoding="UTF-8" standalone="no"?><!DOCTYPE svg PUBLIC "-//W3C//DTD SVG 1.1//EN" "http://www.w3.org/Graphics/SVG/1.1/DTD/svg11.dtd"><svg width="100%" height="100%" viewBox="0 0 4820 4016" version="1.1" xmlns="http://www.w3.org/2000/svg" xmlns:xlink="http://www.w3.org/1999/xlink" xml:space="preserve" xmlns:serif="http://www.serif.com/" style="fill-rule:evenodd;clip-rule:evenodd;stroke-linecap:round;stroke-linejoin:round;stroke-miterlimit:1.5;"><rect id="Artboard4" x="0" y="0" width="4819.65" height="4015.75" style="fill:none;"/><clipPath id="_clip1"><rect x="0" y="0" width="4819.65" height="4015.75"/></clipPath><g clip-path="url(#_clip1)"><g><path d="M865.441,1531.6l-215.233,-11.211" style="fill:none;stroke:#000;stroke-width:20.83px;"/><path d="M792.787,1572.64l-348.405,-26.283" style="fill:none;stroke:#000;stroke-width:20.83px;"/><path d="M768.246,1855.79c-87.15,23.636 -162.381,53.926 -224.63,91.466" style="fill:none;stroke:#000;stroke-width:20.83px;"/><path d="M741.236,1822.34c-87.15,23.635 -162.381,53.926 -224.63,91.465" style="fill:none;stroke:#000;stroke-width:20.83px;"/><path d="M726.498,1772.54c-87.15,23.635 -192.111,57.191 -254.36,94.731" style="fill:none;stroke:#000;stroke-width:20.83px;"/><path d="M708.882,1727.63c-87.15,23.635 -290.531,80.202 -352.781,117.741" style="fill:none;stroke:#000;stroke-width:20.83px;"/><path d="M708.621,1726.72c-92.455,4.005 -443.866,39.008 -501.724,92.797" style="fill:none;stroke:#000;stroke-width:20.83px;"/><path d="M702.526,1695.97c-92.455,4.004 -572.138,33.343 -629.996,87.132" style="fill:none;stroke:#000;stroke-width:20.83px;"/><path d="M698.441,1659.03c-76.835,2.804 -558.958,-37.013 -621.685,17.149" style="fill:none;stroke:#000;stroke-width:20.83px;"/><path d="M706.699,1614.27c-76.835,2.803 -558.958,-37.014 -621.686,17.149" style="fill:none;stroke:#000;stroke-width:20.83px;"/><path d="M829.02,1986.49c-161.607,89.76 -308.384,198.837 -444.467,321.843" style="fill:none;stroke:#000;stroke-width:20.83px;"/><path d="M810.2,1955.57c-161.944,81.726 -300.835,174.67 -418.898,277.749" style="fill:none;stroke:#000;stroke-width:20.83px;"/><path d="M796.978,1927.15c-130.499,56.247 -254.829,124.799 -374.168,203.309" style="fill:none;stroke:#000;stroke-width:20.83px;"/><path d="M372.627,2476.59c154.055,-185.042 323.128,-338.58 510.775,-453.159" style="fill:none;stroke:#000;stroke-width:20.83px;"/><path d="M391.738,2371.05c154.055,-185.041 304.29,-234.017 491.937,-348.596" style="fill:none;stroke:#000;stroke-width:20.83px;"/><path d="M775.786,1902.89c-110.829,33.289 -217.263,85.822 -320.462,152.522" style="fill:none;stroke:#000;stroke-width:20.83px;"/><path d="M884.96,2025.33c-122.311,167.723 -266.911,298.608 -412.545,427.784" style="fill:none;stroke:#000;stroke-width:20.83px;"/><path d="M1597.18,2194.16c-99.059,154.323 -259.525,259.184 -372.859,235.611" style="fill:none;stroke:#000;stroke-width:20.83px;"/><path d="M2350.71,2516.35c-99.059,154.323 -244.164,173.649 -357.499,150.075" style="fill:none;stroke:#000;stroke-width:20.83px;"/><path d="M2251.93,2467.78c-99.059,154.323 -244.164,173.649 -357.499,150.076" style="fill:none;stroke:#000;stroke-width:20.83px;"/><path d="M2083.46,2429.93c-30.502,55.981 -102.585,69.335 -184.307,72.806" style="fill:none;stroke:#000;stroke-width:20.83px;"/><path d="M2151.28,2470.96c-30.502,55.981 -183.984,75.266 -265.707,78.736" style="fill:none;stroke:#000;stroke-width:20.83px;"/><path d="M1511.6,2179.33c-118.407,140.268 -229.687,203.787 -324.899,193.378" style="fill:none;stroke:#000;stroke-width:20.83px;"/><path d="M1465.62,2134.44c-118.407,140.268 -194.684,162.796 -289.896,152.387" style="fill:none;stroke:#000;stroke-width:20.83px;"/><path d="M1396.24,2091.49c-85.615,119.815 -140.328,139.425 -208.375,131.201" style="fill:none;stroke:#000;stroke-width:20.83px;"/><path d="M1351.83,2052.2c-63.734,98.869 -104.232,115.215 -154.468,108.725" style="fill:none;stroke:#000;stroke-width:20.83px;"/><path d="M1334.9,2034.48c-76.15,76.555 -112.542,65.891 -154.831,73.683" style="fill:none;stroke:#000;stroke-width:20.83px;"/><path d="M3337.73,2476.93c36.682,181.701 68.635,361.397 12.507,442.072" style="fill:none;stroke:#000;stroke-width:20.83px;"/><path d="M3337.73,2476.93c36.682,181.701 68.635,361.397 12.507,442.072" style="fill:none;stroke:#000;stroke-width:20.83px;"/><path d="M3270.37,2503.18c65.121,156.126 60.184,373.823 -4.657,440.881" style="fill:none;stroke:#000;stroke-width:20.83px;"/><path d="M3216.62,2510.95c73.504,112.512 46.002,375.628 -23.165,406.381" style="fill:none;stroke:#000;stroke-width:20.83px;"/><path d="M3216.66,2511.81c3.97,196.906 -49.088,423.966 -119.652,399.71" style="fill:none;stroke:#000;stroke-width:20.83px;"/><path d="M3160.97,2552.2c3.97,196.905 -79.257,322.802 -149.82,298.546" style="fill:none;stroke:#000;stroke-width:20.83px;"/><path d="M3126.21,2568.15c-22.457,178.732 -123.976,239.956 -166.628,234.895" style="fill:none;stroke:#000;stroke-width:20.83px;"/><path d="M3125.33,2568.4c-81.619,160.871 -177.785,169.324 -180.311,176.377" style="fill:none;stroke:#000;stroke-width:20.83px;"/><path d="M3125.33,2568.4c-81.619,160.871 -177.785,169.324 -180.311,176.377" style="fill:none;stroke:#000;stroke-width:20.83px;"/><path d="M3123.15,2571.35c-98.967,133.051 -249.384,144.488 -258.117,128.772" style="fill:none;stroke:#000;stroke-width:20.83px;"/><path d="M3028.77,692.766c-138.71,-121.733 -372.415,-149.568 -609.718,-129.348" style="fill:none;stroke:#000;stroke-width:20.83px;"/><path d="M2603.48,669.687c-129.107,-107.156 -223.379,-73.468 -465.294,-81.17" style="fill:none;stroke:#000;stroke-width:20.83px;"/><path d="M2284.11,690.899c-141.589,-76.457 -203.836,-58.913 -336.099,-61.443" style="fill:none;stroke:#000;stroke-width:20.83px;"/><path d="M2157.57,727.498c-141.588,-76.458 -203.836,-58.913 -336.098,-61.443" style="fill:none;stroke:#000;stroke-width:20.83px;"/><path d="M2030.63,781.692c-141.589,-76.458 -203.836,-58.913 -336.099,-61.444" style="fill:none;stroke:#000;stroke-width:20.83px;"/><path d="M1926.66,846.621c-108.999,-100.65 -174.023,-88.665 -329.381,-87.017" style="fill:none;stroke:#000;stroke-width:20.83px;"/><path d="M1804.79,880.941c-101.515,-92.595 -105.912,-73.066 -266.538,-77.088" style="fill:none;stroke:#000;stroke-width:20.83px;"/><path d="M1751.41,922.375c-101.516,-92.595 -105.913,-73.065 -266.539,-77.087" style="fill:none;stroke:#000;stroke-width:20.83px;"/><path d="M1646.43,919.688c-2.693,-25.311 -98.112,-28.754 -214.108,-32.766" style="fill:none;stroke:#000;stroke-width:20.83px;"/><path d="M1595.6,944.263c-2.75,-24.138 -99.222,-28.678 -215.195,-33.152" style="fill:none;stroke:#000;stroke-width:20.83px;"/><path d="M1541.94,989.169c-2.693,-25.311 -95.35,-36.47 -211.345,-40.483" style="fill:none;stroke:#000;stroke-width:20.83px;"/><path d="M1465.59,1043.12c-2.694,-25.311 -90.549,-37.688 -206.545,-41.7" style="fill:none;stroke:#000;stroke-width:20.83px;"/><path d="M1431.44,1088.81c-2.694,-25.312 -79.871,-30.375 -195.867,-34.388" style="fill:none;stroke:#000;stroke-width:20.83px;"/><path d="M1355.3,1141.59c-13.324,-33.537 -142.12,-43.338 -215.872,-14.664" style="fill:none;stroke:#000;stroke-width:20.83px;"/><path d="M1323.9,1192.48c-40.102,-33.636 -168.701,-27.556 -183.654,-9.084" style="fill:none;stroke:#000;stroke-width:20.83px;"/><path d="M1267.79,1227.86c-46.609,-25.241 -176.641,35.455 -164.248,40.008" style="fill:none;stroke:#000;stroke-width:20.83px;"/><path d="M2475.99,674.896c-111.046,-69.91 -144.411,-55.013 -399.836,-85.075" style="fill:none;stroke:#000;stroke-width:20.83px;"/><path d="M2787.94,656.086c-147.639,-97.877 -279.619,-80.919 -506.939,-87.366" style="fill:none;stroke:#000;stroke-width:20.83px;"/><path d="M3083.76,1888.73c-77.205,50.597 -47.081,153.996 -1.013,171.407" style="fill:none;stroke:#000;stroke-width:20.83px;"/><path d="M2994.94,1891.41c-77.205,50.598 -47.08,153.997 -1.012,171.408" style="fill:none;stroke:#000;stroke-width:20.83px;"/><path d="M2953.06,1732.97c-107.246,41.994 -78.322,194.566 -7.08,219.186" style="fill:none;stroke:#000;stroke-width:20.83px;"/><path d="M2829.49,1750.84c-107.246,41.994 -78.322,194.566 -7.08,219.186" style="fill:none;stroke:#000;stroke-width:20.83px;"/><path d="M3129.82,1589.82c-87.4,21.571 -112.003,155.016 -56.892,198.172" style="fill:none;stroke:#000;stroke-width:20.83px;"/><path d="M3115.04,1432.19c-87.4,21.57 -101.448,143.847 -46.338,187.003" style="fill:none;stroke:#000;stroke-width:20.83px;"/><path d="M3046.48,1225.29c-87.4,21.571 -67.218,127.962 -12.108,171.118" style="fill:none;stroke:#000;stroke-width:20.83px;"/><path d="M3008.12,1453.11c-87.4,21.57 -101.448,143.847 -46.337,187.003" style="fill:none;stroke:#000;stroke-width:20.83px;"/><path d="M3030.32,1576.17c-87.4,21.571 -94.09,175.802 -38.98,218.958" style="fill:none;stroke:#000;stroke-width:20.83px;"/><path d="M2930.33,1592.54c-102.496,15.039 -124.653,176.11 -54.051,225.969" style="fill:none;stroke:#000;stroke-width:20.83px;"/><path d="M2829.93,1601.66c-102.496,15.039 -126.482,132.182 -55.88,182.04" style="fill:none;stroke:#000;stroke-width:20.83px;"/><path d="M2917.2,1455.77c-102.496,15.04 -126.482,132.182 -55.88,182.04" style="fill:none;stroke:#000;stroke-width:20.83px;"/><path d="M2985.46,1221.96c-102.496,15.039 -126.482,132.181 -55.88,182.04" style="fill:none;stroke:#000;stroke-width:20.83px;"/><path d="M3036.4,1057.05c-102.496,15.04 -103.364,132.505 -32.762,182.363" style="fill:none;stroke:#000;stroke-width:20.83px;"/><path d="M3128.89,1048.42c-63.832,44.106 -21.811,81.846 17.888,108.472" style="fill:none;stroke:#000;stroke-width:20.83px;"/><path d="M3041.83,1754.9c-85.22,23.231 -56.159,143.623 -3.907,184.602" style="fill:none;stroke:#000;stroke-width:20.83px;"/><path d="M3114.62,1761.43c-82.948,32.849 -38.026,137.502 9.59,168.784" style="fill:none;stroke:#000;stroke-width:20.83px;"/><path d="M3291.19,1210.85c-122.554,43.646 -118.527,167.863 -40.977,206.104" style="fill:none;stroke:#000;stroke-width:20.83px;"/><path d="M3364.28,1121.48c-117.574,62.107 -73.255,147.696 1.103,174.103" style="fill:none;stroke:#000;stroke-width:20.83px;"/><path d="M3439.11,1020.38c-117.573,62.107 -74.702,136.054 -0.345,162.461" style="fill:none;stroke:#000;stroke-width:20.83px;"/><path d="M4747.12,2145.21c-300.809,-399.323 -677.772,-734.313 -1004.9,-849.721c-301.438,85.032 -503.999,240.49 -584.125,483.157c-40.61,281.667 -25.781,525.585 224.741,609.014c248.499,64.66 1064.32,-6.802 1277.05,-122.576l-261.006,-9.242c121.66,-9.061 348.246,-110.632 348.246,-110.632Z" style="stroke:#000;stroke-width:20.83px;"/><path d="M3806.65,1185.21c-64.367,43.754 -93.374,88.63 -77.641,134.926" style="fill:none;stroke:#000;stroke-width:20.83px;"/><path d="M3699.79,1161.25c-78.24,47.783 -54.352,131.671 -19.761,172.489" style="fill:none;stroke:#000;stroke-width:20.83px;"/><path d="M3625.11,1045.28c-108.77,58.387 -50.566,176.793 15.83,206.564" style="fill:none;stroke:#000;stroke-width:20.83px;"/><path d="M3564.66,945.854c-108.77,58.387 -66.686,148.939 -0.289,178.711" style="fill:none;stroke:#000;stroke-width:20.83px;"/><path d="M3506.89,909.598c-108.77,58.386 -66.685,148.939 -0.289,178.711" style="fill:none;stroke:#000;stroke-width:20.83px;"/><path d="M3410.99,845.771c-108.77,58.387 -38.371,146.852 28.025,176.624" style="fill:none;stroke:#000;stroke-width:20.83px;"/><path d="M3327.44,824.718c-60.31,61.216 -2.098,75.816 25.708,102.753" style="fill:none;stroke:#000;stroke-width:20.83px;"/><path d="M3188.53,771.526c-26.701,68.116 9.906,78.102 18.677,100.641" style="fill:none;stroke:#000;stroke-width:20.83px;"/><path d="M3101.35,726.348c-57.638,64.46 -18.21,80.576 6.151,104.586" style="fill:none;stroke:#000;stroke-width:20.83px;"/><path d="M3350.14,923.726c-108.769,58.387 -51.994,159.216 14.402,188.987" style="fill:none;stroke:#000;stroke-width:20.83px;"/><path d="M3283.42,1021.49c-108.77,58.387 -63.13,163.658 3.266,193.43" style="fill:none;stroke:#000;stroke-width:20.83px;"/><path d="M3187.91,919.81c-108.769,58.387 -63.13,163.658 3.266,193.429" style="fill:none;stroke:#000;stroke-width:20.83px;"/><path d="M3094.91,915.134c-108.77,58.387 -63.131,163.658 3.265,193.43" style="fill:none;stroke:#000;stroke-width:20.83px;"/><path d="M3071.82,791.873c-87.465,49.337 -80.146,136.286 -36.662,175.791" style="fill:none;stroke:#000;stroke-width:20.83px;"/><path d="M3001.56,902.032c-99.565,43.522 -71.715,126.324 -16.459,171.486" style="fill:none;stroke:#000;stroke-width:20.83px;"/><path d="M2942.53,1046.2c-99.565,43.523 -63.796,145.684 -8.54,190.846" style="fill:none;stroke:#000;stroke-width:20.83px;"/><path d="M2889.49,1191.49c-99.565,43.523 -94.065,133.823 -38.808,178.985" style="fill:none;stroke:#000;stroke-width:20.83px;"/><path d="M2830.02,1028.22c-99.565,43.522 -56.195,155.08 -0.938,200.242" style="fill:none;stroke:#000;stroke-width:20.83px;"/><path d="M2884.6,907.038c-99.565,43.523 -52.093,134.59 3.163,179.752" style="fill:none;stroke:#000;stroke-width:20.83px;"/><path d="M2965.89,793.302c-101.478,48.324 -88.336,139.197 -31.327,177.278" style="fill:none;stroke:#000;stroke-width:20.83px;"/><path d="M3032.29,696.148c-79.669,54.641 -68.986,120.445 -27.682,144.645" style="fill:none;stroke:#000;stroke-width:20.83px;"/><path d="M2946.63,666.873c-83.396,54.834 -89.683,145.717 -46.34,170.156" style="fill:none;stroke:#000;stroke-width:20.83px;"/><path d="M2872.6,748.882c-104.57,39.824 -102.323,155.151 -44.546,197.422" style="fill:none;stroke:#000;stroke-width:20.83px;"/><path d="M2786.68,872.73c-104.57,39.825 -63.528,148.888 -5.751,191.159" style="fill:none;stroke:#000;stroke-width:20.83px;"/><path d="M2747.41,1028.05c-116.709,31.629 -57.975,156.056 6.122,202.594" style="fill:none;stroke:#000;stroke-width:20.83px;"/><path d="M2661.8,892.211c-111.263,57.052 -47,182.723 11.86,204.817" style="fill:none;stroke:#000;stroke-width:20.83px;"/><path d="M2624.31,810.808c-111.263,57.051 -82.802,158.148 -23.942,180.242" style="fill:none;stroke:#000;stroke-width:20.83px;"/><path d="M2624.31,810.808c-111.263,57.051 -82.802,158.148 -23.942,180.242" style="fill:none;stroke:#000;stroke-width:20.83px;"/><path d="M2687.57,662.999c-87.315,62.907 -63.915,162.766 -23.941,180.243" style="fill:none;stroke:#000;stroke-width:20.83px;"/><path d="M2602.31,675.215c-87.315,62.907 -80.933,157.437 -40.959,174.914" style="fill:none;stroke:#000;stroke-width:20.83px;"/><path d="M2527.11,789.198c-87.316,62.907 -80.934,157.437 -40.96,174.914" style="fill:none;stroke:#000;stroke-width:20.83px;"/><path d="M2453.7,943.55c-87.316,62.907 -80.934,157.437 -40.959,174.914" style="fill:none;stroke:#000;stroke-width:20.83px;"/><path d="M2462.82,1089.55c-103.731,34.625 -74.132,128.517 -12.751,182.875" style="fill:none;stroke:#000;stroke-width:20.83px;"/><path d="M2427.43,1353.05c-83.757,35.098 -80.051,117.157 -42.027,170.962" style="fill:none;stroke:#000;stroke-width:20.83px;"/><path d="M2356.09,1474.07c-118.087,42.279 -131.809,189.656 -66.891,237.835" style="fill:none;stroke:#000;stroke-width:20.83px;"/><path d="M2250.15,1649.53c-117.005,49.59 -64.864,176.987 -1.871,212.167" style="fill:none;stroke:#000;stroke-width:20.83px;"/><path d="M2189.16,1795.85c-117.005,49.59 -63.068,149.432 -0.074,184.612" style="fill:none;stroke:#000;stroke-width:20.83px;"/><path d="M2125.85,1913.1c-96.139,58.291 -48.789,148.522 -7.482,167.387" style="fill:none;stroke:#000;stroke-width:20.83px;"/><path d="M1989.69,1846.94c-96.139,58.29 -29.599,154.025 11.709,172.89" style="fill:none;stroke:#000;stroke-width:20.83px;"/><path d="M1949.95,1980.48c-96.14,58.291 -48.79,148.522 -7.482,167.387" style="fill:none;stroke:#000;stroke-width:20.83px;"/><path d="M1907.95,1844.57c-96.14,58.291 -48.79,148.521 -7.483,167.386" style="fill:none;stroke:#000;stroke-width:20.83px;"/><path d="M1847.14,1718.36c-110.361,25.526 -48.113,165.601 -5.322,194.573" style="fill:none;stroke:#000;stroke-width:20.83px;"/><path d="M1995.07,2108.1c-96.139,58.291 -48.789,148.521 -7.482,167.387" style="fill:none;stroke:#000;stroke-width:20.83px;"/><path d="M2049.36,2219.61c-96.14,58.291 -50.043,188.216 -8.735,207.082" style="fill:none;stroke:#000;stroke-width:20.83px;"/><path d="M1936.48,2157.13c-129.287,69.879 -85.248,214.915 -4.564,220.015" style="fill:none;stroke:#000;stroke-width:20.83px;"/><path d="M1887.29,2060.61c-110.199,53.058 -79.297,142.785 -31.975,177.283" style="fill:none;stroke:#000;stroke-width:20.83px;"/><path d="M1852.95,1918.23c-110.2,53.059 -79.298,142.786 -31.976,177.284" style="fill:none;stroke:#000;stroke-width:20.83px;"/><path d="M2096.93,2255.21c-96.14,58.29 -31.75,152.001 9.557,170.866" style="fill:none;stroke:#000;stroke-width:20.83px;"/><path d="M2209.81,2322.29c-114.148,43.442 -60.115,175.519 -12.077,199.933" style="fill:none;stroke:#000;stroke-width:20.83px;"/><path d="M2152.2,2198.01c-96.14,58.291 -48.79,148.521 -7.483,167.386" style="fill:none;stroke:#000;stroke-width:20.83px;"/><path d="M2108.14,2091.5c-96.139,58.291 -53.394,146.519 -12.086,165.384" style="fill:none;stroke:#000;stroke-width:20.83px;"/><path d="M2064.07,1983.5c-112.415,47.14 -62.918,143.221 -14.128,167.213" style="fill:none;stroke:#000;stroke-width:20.83px;"/><path d="M2090.4,1791.22c-112.415,47.14 -62.918,143.221 -14.128,167.213" style="fill:none;stroke:#000;stroke-width:20.83px;"/><path d="M2047.53,1689.39c-104.104,47.844 -65.519,161.807 -25.525,185.054" style="fill:none;stroke:#000;stroke-width:20.83px;"/><path d="M1932.86,1671.38c-104.104,47.844 -25.626,171.992 14.367,195.24" style="fill:none;stroke:#000;stroke-width:20.83px;"/><path d="M1929.24,1529.68c-116.129,34.57 -108.895,168.036 -52.689,205.041" style="fill:none;stroke:#000;stroke-width:20.83px;"/><path d="M1825.32,1525.56c-116.129,34.571 -93.947,191.7 -37.742,228.705" style="fill:none;stroke:#000;stroke-width:20.83px;"/><path d="M1740.49,1677.25c-116.129,34.571 -73.582,177.999 -17.377,215.005" style="fill:none;stroke:#000;stroke-width:20.83px;"/><path d="M1791.07,1859.54c-116.129,34.571 -67.634,139.034 -11.429,176.039" style="fill:none;stroke:#000;stroke-width:20.83px;"/><path d="M1678.25,1833.3c-101.14,35.29 -64.125,136.439 -21.53,172.791" style="fill:none;stroke:#000;stroke-width:20.83px;"/><path d="M1556.77,1841.79c-107.476,53.211 -65.581,174.658 -12.509,181.373" style="fill:none;stroke:#000;stroke-width:20.83px;"/><path d="M1462.46,1819.37c-83.369,44.844 -68.387,169.858 -27.327,180.743" style="fill:none;stroke:#000;stroke-width:20.83px;"/><path d="M1364.2,1822.72c-81.194,32.363 -72.116,132.633 -31.985,148.857" style="fill:none;stroke:#000;stroke-width:20.83px;"/><path d="M1395.1,1935.3c-107.844,32.173 -49.324,145.47 20.3,161.903" style="fill:none;stroke:#000;stroke-width:20.83px;"/><path d="M1291.17,1905.48c-83.616,34.904 -22.591,119.649 27.181,133.846" style="fill:none;stroke:#000;stroke-width:20.83px;"/><path d="M1255.05,1829.36c-109.925,36.18 -82.539,139.501 -10.194,152.602" style="fill:none;stroke:#000;stroke-width:20.83px;"/><path d="M1191.32,1750.11c-89.268,20.975 -59.492,122.537 -10.194,152.602" style="fill:none;stroke:#000;stroke-width:20.83px;"/><path d="M1107.06,1748.28c-93.026,27.941 -65.067,158.329 -3.796,166.199" style="fill:none;stroke:#000;stroke-width:20.83px;"/><path d="M1015.06,1731.83c-93.025,27.941 -81.615,163.904 -20.345,171.775" style="fill:none;stroke:#000;stroke-width:20.83px;"/><path d="M960.612,1598.91c-93.026,27.941 -69.792,170.828 -8.522,178.699" style="fill:none;stroke:#000;stroke-width:20.83px;"/><path d="M1043.86,1874.71c-93.025,27.942 -54.867,180.627 6.403,188.497" style="fill:none;stroke:#000;stroke-width:20.83px;"/><path d="M986.951,1961.85c-70.68,29.503 -50.381,145.234 -12.167,151.494" style="fill:none;stroke:#000;stroke-width:20.83px;"/><path d="M950.019,1864.62c-70.679,29.503 -36.515,116.407 1.699,122.666" style="fill:none;stroke:#000;stroke-width:20.83px;"/><path d="M910.547,1750.57c-70.679,29.503 -38.475,152.432 -0.261,158.691" style="fill:none;stroke:#000;stroke-width:20.83px;"/><path d="M1067.08,1597.78c-93.026,27.942 -65.067,158.329 -3.797,166.2" style="fill:none;stroke:#000;stroke-width:20.83px;"/><path d="M1029.34,1441.46c-118.297,20.755 -98.348,177.155 -17.24,190.667" style="fill:none;stroke:#000;stroke-width:20.83px;"/><path d="M1078.51,1385.78c-72.062,28.944 -41.082,124.291 -2.127,131.094" style="fill:none;stroke:#000;stroke-width:20.83px;"/><path d="M946.265,1415.05c-72.062,28.944 -41.081,124.291 -2.127,131.094" style="fill:none;stroke:#000;stroke-width:20.83px;"/><path d="M903.999,1511.74c-85.807,32.827 -67.74,163.614 -15.532,166.673" style="fill:none;stroke:#000;stroke-width:20.83px;"/><path d="M860.635,1663.26c-85.807,32.828 -47.823,148.471 4.386,151.53" style="fill:none;stroke:#000;stroke-width:20.83px;"/><path d="M1146.42,1886.04c-89.268,20.975 -28.381,140.67 20.917,170.735" style="fill:none;stroke:#000;stroke-width:20.83px;"/><path d="M1276.9,1577.6c-131.825,11.363 -110.174,176.125 -28.868,209.901" style="fill:none;stroke:#000;stroke-width:20.83px;"/><path d="M1276.9,1577.6c-131.825,11.363 -110.174,176.125 -28.868,209.901" style="fill:none;stroke:#000;stroke-width:20.83px;"/><path d="M1321.79,1396.31c-114.639,14.856 -81.448,152.333 -35.485,178.928" style="fill:none;stroke:#000;stroke-width:20.83px;"/><path d="M1511.7,1074.16c-98.476,38.628 -72.915,164.883 -35.485,178.927" style="fill:none;stroke:#000;stroke-width:20.83px;"/><path d="M1440.98,1148.18c-110.569,44.164 -93.968,168.297 -47.791,178.337" style="fill:none;stroke:#000;stroke-width:20.83px;"/><path d="M1365.82,1212.03c-125.283,41.663 -110.218,169.439 -42.585,183.126" style="fill:none;stroke:#000;stroke-width:20.83px;"/><path d="M1282.09,1263.17c-125.283,41.663 -110.218,169.439 -42.584,183.126" style="fill:none;stroke:#000;stroke-width:20.83px;"/><path d="M1242.1,1446.66c-100.725,38.621 -79.6,154.565 -46.233,172.496" style="fill:none;stroke:#000;stroke-width:20.83px;"/><path d="M1200.22,1312.48c-96.555,56.457 -61.43,190.072 -28.344,185.968" style="fill:none;stroke:#000;stroke-width:20.83px;"/><path d="M1136.27,1445.58c-96.555,56.458 -61.43,190.072 -28.344,185.968" style="fill:none;stroke:#000;stroke-width:20.83px;"/><path d="M1168.74,1582.08c-96.555,56.457 -61.43,190.072 -28.344,185.967" style="fill:none;stroke:#000;stroke-width:20.83px;"/><path d="M1525.44,2019.3c-107.476,53.212 -43.351,159.67 9.72,166.386" style="fill:none;stroke:#000;stroke-width:20.83px;"/><path d="M1486.47,1965.49c-110.854,47.178 -74.809,159.34 -19.427,169.276" style="fill:none;stroke:#000;stroke-width:20.83px;"/><path d="M1616.25,1697.5c-104.694,47.643 -58.816,176.59 -10.048,191.478" style="fill:none;stroke:#000;stroke-width:20.83px;"/><path d="M1526.28,1660.19c-104.693,47.643 -68.002,190.445 -19.234,205.332" style="fill:none;stroke:#000;stroke-width:20.83px;"/><path d="M1498.6,1525.37c-128.682,51.767 -107.305,196.038 -42.412,208.153" style="fill:none;stroke:#000;stroke-width:20.83px;"/><path d="M1348.16,1533.46c-128.682,51.768 -71.661,175.823 -6.769,187.939" style="fill:none;stroke:#000;stroke-width:20.83px;"/><path d="M1400.06,1654.29c-104.693,47.643 -40.564,198.581 8.204,213.468" style="fill:none;stroke:#000;stroke-width:20.83px;"/><path d="M1305.75,1711.65c-89.19,48.387 -36.04,160.538 -5.451,174.553" style="fill:none;stroke:#000;stroke-width:20.83px;"/><path d="M1724.85,1521.66c-117.122,38.088 -128.864,204.632 -62.493,236.821" style="fill:none;stroke:#000;stroke-width:20.83px;"/><path d="M1792.95,1405.21c-89.167,52.218 -73.417,157.643 -38.236,174.068" style="fill:none;stroke:#000;stroke-width:20.83px;"/><path d="M1874.75,1296.58c-89.167,52.218 -82.981,131.751 -47.799,148.176" style="fill:none;stroke:#000;stroke-width:20.83px;"/><path d="M1844.93,1144.11c-89.167,52.218 -54.033,165.737 -18.852,182.162" style="fill:none;stroke:#000;stroke-width:20.83px;"/><path d="M1864.54,990.447c-89.167,52.217 -34.95,152.181 0.231,168.606" style="fill:none;stroke:#000;stroke-width:20.83px;"/><path d="M1800.5,1009.72c-89.167,52.218 -34.95,152.182 0.231,168.606" style="fill:none;stroke:#000;stroke-width:20.83px;"/><path d="M1779.56,911.62c-91.591,40.16 -76.461,144.461 -30.748,171.29" style="fill:none;stroke:#000;stroke-width:20.83px;"/><path d="M1766.48,1155.64c-89.166,52.218 -59.631,155.718 -24.45,172.143" style="fill:none;stroke:#000;stroke-width:20.83px;"/><path d="M1644.24,1148.72c-145.571,57.77 -59.994,155.172 -23.137,175.612" style="fill:none;stroke:#000;stroke-width:20.83px;"/><path d="M1716.03,1056.13c-122.595,69.238 -46.329,166.285 -15.177,184.851" style="fill:none;stroke:#000;stroke-width:20.83px;"/><path d="M1687.07,919.526c-87.289,82.764 -36.249,170.256 -27.275,180.324" style="fill:none;stroke:#000;stroke-width:20.83px;"/><path d="M1627.57,1004.34c-117.809,51.076 -80.079,153.732 -53.733,181.837" style="fill:none;stroke:#000;stroke-width:20.83px;"/><path d="M1555.41,1159.38c-117.809,51.076 -70.098,153.436 -43.753,181.541" style="fill:none;stroke:#000;stroke-width:20.83px;"/><path d="M1472.76,1257.12c-117.809,51.076 -70.099,153.436 -43.753,181.541" style="fill:none;stroke:#000;stroke-width:20.83px;"/><path d="M1393.2,1350.07c-117.809,51.076 -70.098,153.437 -43.753,181.541" style="fill:none;stroke:#000;stroke-width:20.83px;"/><path d="M1801.88,1302.33c-99.415,34.71 -115.842,130.93 -69.158,167.007" style="fill:none;stroke:#000;stroke-width:20.83px;"/><path d="M1704.11,1280.86c-99.416,34.71 -115.843,130.93 -69.158,167.006" style="fill:none;stroke:#000;stroke-width:20.83px;"/><path d="M1703.12,1398.83c-99.415,34.71 -98.677,137.913 -51.992,173.989" style="fill:none;stroke:#000;stroke-width:20.83px;"/><path d="M1602.78,1394.37c-112.008,41.475 -122.771,162.527 -57.872,188.832" style="fill:none;stroke:#000;stroke-width:20.83px;"/><path d="M1424.07,1452.45c-98.208,41.568 -90.02,165.198 -33.616,191.446" style="fill:none;stroke:#000;stroke-width:20.83px;"/><path d="M1513.79,1351.8c-98.208,41.568 -103.681,163.35 -47.276,189.598" style="fill:none;stroke:#000;stroke-width:20.83px;"/><path d="M1570.49,1282.73c-54.915,42.53 -68.226,128.534 -40.093,154.155" style="fill:none;stroke:#000;stroke-width:20.83px;"/><path d="M1616.88,1527.19c-99.416,34.71 -96.168,160.623 -49.484,196.699" style="fill:none;stroke:#000;stroke-width:20.83px;"/><path d="M1960.08,840.927c-123.964,28.697 -117.494,166.005 -53.564,181.906" style="fill:none;stroke:#000;stroke-width:20.83px;"/><path d="M2030.68,794.813c-104.094,31.902 -107.728,156.229 -56.53,188.765" style="fill:none;stroke:#000;stroke-width:20.83px;"/><path d="M1871.87,832.674c-104.094,31.902 -107.728,156.229 -56.53,188.765" style="fill:none;stroke:#000;stroke-width:20.83px;"/><path d="M1809.65,2163.83c-80.619,16.535 -70.99,141.401 12.502,162.57" style="fill:none;stroke:#000;stroke-width:20.83px;"/><path d="M1773.29,2039.19c-58.519,11.993 -63.668,121.236 -6.363,147.786" style="fill:none;stroke:#000;stroke-width:20.83px;"/><path d="M1720.63,2117.63c-105.365,12.61 -89.57,114.147 -4.833,146.792" style="fill:none;stroke:#000;stroke-width:20.83px;"/><path d="M1651.59,2073.38c-86.399,-3.392 -81.827,119.747 -13.095,165.897" style="fill:none;stroke:#000;stroke-width:20.83px;"/><path d="M1727.88,1974.22c-105.365,12.61 -89.57,114.148 -4.833,146.792" style="fill:none;stroke:#000;stroke-width:20.83px;"/><path d="M1612.09,1944c-78.455,10.527 -74.67,130.648 -22.691,165.829" style="fill:none;stroke:#000;stroke-width:20.83px;"/><path d="M2147.41,1619.11c-122.056,39.619 -57.849,191.869 -4.05,202.197" style="fill:none;stroke:#000;stroke-width:20.83px;"/><path d="M2251.75,1478.33c-130.854,42.667 -117.758,172.246 -55.901,209.669" style="fill:none;stroke:#000;stroke-width:20.83px;"/><path d="M2136.26,1497.43c-130.854,42.666 -124.304,168.406 -62.447,205.828" style="fill:none;stroke:#000;stroke-width:20.83px;"/><path d="M2053.87,1535.08c-147.172,39.755 -139.63,154.532 -60.158,195.098" style="fill:none;stroke:#000;stroke-width:20.83px;"/><path d="M2003.62,1405.72c-97.796,44.105 -85.949,140.063 -43.094,177.403" style="fill:none;stroke:#000;stroke-width:20.83px;"/><path d="M1891.16,1388.27c-97.796,44.105 -79.531,143.006 -36.676,180.346" style="fill:none;stroke:#000;stroke-width:20.83px;"/><path d="M1964.4,1282.41c-97.795,44.105 -76.508,139.075 -33.652,176.415" style="fill:none;stroke:#000;stroke-width:20.83px;"/><path d="M2044.58,1265.64c-97.795,44.105 -45.476,144.341 -2.621,181.681" style="fill:none;stroke:#000;stroke-width:20.83px;"/><path d="M2013.2,1124.83c-97.795,44.105 -59.812,151.136 -16.957,188.476" style="fill:none;stroke:#000;stroke-width:20.83px;"/><path d="M2112.62,1175.47c-97.796,44.105 -45.477,144.341 -2.621,181.681" style="fill:none;stroke:#000;stroke-width:20.83px;"/><path d="M2167.52,1078.8c-97.795,44.105 -45.476,144.342 -2.621,181.682" style="fill:none;stroke:#000;stroke-width:20.83px;"/><path d="M2080.98,1033.28c-97.795,44.105 -52.511,134.274 -9.656,171.614" style="fill:none;stroke:#000;stroke-width:20.83px;"/><path d="M1975.9,983.266c-119.47,22.775 -66.456,120.552 -9.656,171.614" style="fill:none;stroke:#000;stroke-width:20.83px;"/><path d="M2253.82,951.075c-106.843,44.118 -94.166,143.413 -41.921,180.739" style="fill:none;stroke:#000;stroke-width:20.83px;"/><path d="M2177.42,941.045c-109.977,35.667 -105.128,135.645 -55.971,176.924" style="fill:none;stroke:#000;stroke-width:20.83px;"/><path d="M2069.91,903.955c-109.977,35.667 -105.128,135.645 -55.972,176.924" style="fill:none;stroke:#000;stroke-width:20.83px;"/><path d="M1938.59,1122.33c-109.977,35.667 -84.012,147.733 -34.855,189.012" style="fill:none;stroke:#000;stroke-width:20.83px;"/><path d="M1938.59,1122.33c-109.977,35.667 -84.012,147.733 -34.855,189.012" style="fill:none;stroke:#000;stroke-width:20.83px;"/><path d="M2253.17,792.475c-106.843,44.118 -94.165,143.413 -41.92,180.739" style="fill:none;stroke:#000;stroke-width:20.83px;"/><path d="M2136.58,837.584c-92.55,42.795 -84.863,127.323 -41.18,165.442" style="fill:none;stroke:#000;stroke-width:20.83px;"/><path d="M2323.89,664.419c-95.166,49.79 -65.797,165.667 -34.067,193.027" style="fill:none;stroke:#000;stroke-width:20.83px;"/><path d="M2205.19,692.128c-95.166,49.79 -65.797,165.667 -34.067,193.027" style="fill:none;stroke:#000;stroke-width:20.83px;"/><path d="M2106.97,711.072c-95.165,49.79 -75.826,177.574 -44.096,204.934" style="fill:none;stroke:#000;stroke-width:20.83px;"/><path d="M2329.33,1354.14c-105.044,46.815 -84.873,133.304 -47.248,165.452" style="fill:none;stroke:#000;stroke-width:20.83px;"/><path d="M2414.54,1244.94c-105.044,46.815 -84.873,133.305 -47.248,165.453" style="fill:none;stroke:#000;stroke-width:20.83px;"/><path d="M2317.97,1232.28c-105.044,46.815 -84.872,133.305 -47.248,165.453" style="fill:none;stroke:#000;stroke-width:20.83px;"/><path d="M2207.63,1238.42c-88.911,46.667 -63.031,119.448 -42.522,151.753" style="fill:none;stroke:#000;stroke-width:20.83px;"/><path d="M2231.27,1342.34c-105.044,46.815 -105.615,158.164 -67.991,190.313" style="fill:none;stroke:#000;stroke-width:20.83px;"/><path d="M2137.13,1346.83c-105.044,46.815 -105.615,158.164 -67.99,190.312" style="fill:none;stroke:#000;stroke-width:20.83px;"/><path d="M2383.75,1090.74c-120.881,46.055 -74.263,145.887 -18.408,178.91" style="fill:none;stroke:#000;stroke-width:20.83px;"/><path d="M2266.67,1096.99c-58.396,22.249 -77.702,57.048 -75.76,90.802c2.077,36.117 28.481,71.038 57.353,88.108" style="fill:none;stroke:#000;stroke-width:20.83px;"/><path d="M2338.67,967.424c-120.88,46.055 -82.82,148.774 -26.965,181.798" style="fill:none;stroke:#000;stroke-width:20.83px;"/><path d="M2417,831.745c-120.88,46.055 -82.819,148.774 -26.965,181.797" style="fill:none;stroke:#000;stroke-width:20.83px;"/><path d="M2390.94,679.879c-74.968,49.162 -48.91,151.069 -26.965,181.798" style="fill:none;stroke:#000;stroke-width:20.83px;"/><path d="M2338.3,814.337c-74.968,49.162 -86.208,154.795 -64.263,185.524" style="fill:none;stroke:#000;stroke-width:20.83px;"/><path d="M2480.05,677.851c-86.86,56.182 -66.884,175.948 -26.965,181.798" style="fill:none;stroke:#000;stroke-width:20.83px;"/><path d="M2187.2,2008.41c-109.609,45 -59.238,153.977 -9.811,197.574" style="fill:none;stroke:#000;stroke-width:20.83px;"/><path d="M2678.27,1105.66c-111.263,57.051 -57.299,165.574 1.561,187.669" style="fill:none;stroke:#000;stroke-width:20.83px;"/><path d="M2606.2,1195.39c-138.617,64.126 -76.904,175.073 12.593,189.244" style="fill:none;stroke:#000;stroke-width:20.83px;"/><path d="M2743.45,760.826c-108.812,55.361 -81.754,170.197 -23.356,199.61" style="fill:none;stroke:#000;stroke-width:20.83px;"/><path d="M2831.86,627.979c-98.299,52.078 -99.228,153.358 -46.572,180.832" style="fill:none;stroke:#000;stroke-width:20.83px;"/><path d="M2800.11,1200.56c-79.629,33.327 -53.229,93.711 -18.506,141.988" style="fill:none;stroke:#000;stroke-width:20.83px;"/><path d="M2741.18,1223.26c-92.024,31.555 -50.161,108.582 -7.958,157.929" style="fill:none;stroke:#000;stroke-width:20.83px;"/><path d="M2683.66,1294.67c-102.788,46.034 -47.268,138.996 1.892,178.985" style="fill:none;stroke:#000;stroke-width:20.83px;"/><path d="M2616.66,1384.85c-95.517,52.479 -58.595,120.102 -17.475,152.964" style="fill:none;stroke:#000;stroke-width:20.83px;"/><path d="M2549.75,1475.98c-103.081,46.061 -90.389,202.632 -41.316,242.242" style="fill:none;stroke:#000;stroke-width:20.83px;"/><path d="M2474.6,1659.66c-103.081,46.062 -55.085,159.602 -6.012,199.212" style="fill:none;stroke:#000;stroke-width:20.83px;"/><path d="M2360.27,1629.65c-113.605,61.379 -62.732,205.064 3.439,219.789" style="fill:none;stroke:#000;stroke-width:20.83px;"/><path d="M2448.44,1466.76c-117.434,70.073 -95.681,228.818 -24.438,239.077" style="fill:none;stroke:#000;stroke-width:20.83px;"/><path d="M2526.8,1319.88c-103.53,73.728 -77.943,191.89 -38.934,198.548" style="fill:none;stroke:#000;stroke-width:20.83px;"/><path d="M2499.13,1252.94c-101.74,50.578 -81.712,109.412 -44.664,141.41" style="fill:none;stroke:#000;stroke-width:20.83px;"/><path d="M2528.89,1111.3c-120.072,54.807 -53.967,126.561 -4.272,155.642" style="fill:none;stroke:#000;stroke-width:20.83px;"/><path d="M2607.24,1025.82c-111.808,44.364 -65.916,138.237 -23,173.856" style="fill:none;stroke:#000;stroke-width:20.83px;"/><path d="M2541.86,936.338c-111.809,44.364 -87.446,151.277 -44.53,186.897" style="fill:none;stroke:#000;stroke-width:20.83px;"/><path d="M2422.07,1800.38c-92.445,26.63 -46.349,164.419 12.152,181.237" style="fill:none;stroke:#000;stroke-width:20.83px;"/><path d="M2380.37,1929.42c-92.445,26.63 -75.003,152.021 -16.502,168.839" style="fill:none;stroke:#000;stroke-width:20.83px;"/><path d="M2262.16,1910.76c-92.445,26.63 -75.004,152.022 -16.502,168.839" style="fill:none;stroke:#000;stroke-width:20.83px;"/><path d="M2301.26,1794.78c-84.928,45.077 -39.965,165.878 20.762,170.296" style="fill:none;stroke:#000;stroke-width:20.83px;"/><path d="M2307.52,2032.93c-92.445,26.63 -75.004,152.021 -16.503,168.839" style="fill:none;stroke:#000;stroke-width:20.83px;"/><path d="M2238.25,2132.2c-92.445,26.63 -64.433,170.113 -5.931,186.931" style="fill:none;stroke:#000;stroke-width:20.83px;"/><path d="M2285.12,2286.79c-106.218,28.888 -86.559,162.79 -23.061,178.789" style="fill:none;stroke:#000;stroke-width:20.83px;"/><path d="M2887.49,1355.25c-74.83,34.223 -73.495,91.244 -51.746,149.005" style="fill:none;stroke:#000;stroke-width:20.83px;"/><path d="M2812.05,1449.13c-103.348,28.83 -115.112,139.353 -69.65,201.597" style="fill:none;stroke:#000;stroke-width:20.83px;"/><path d="M2728.74,1720.22c-103.707,48.989 -60.404,167.091 -14.53,206.219" style="fill:none;stroke:#000;stroke-width:20.83px;"/><path d="M2619.53,2009.04c-103.707,48.99 -64.066,142.098 -18.193,181.225" style="fill:none;stroke:#000;stroke-width:20.83px;"/><path d="M2580.05,1869.2c-103.706,48.99 -64.065,142.098 -18.192,181.226" style="fill:none;stroke:#000;stroke-width:20.83px;"/><path d="M2478.43,1948.97c-103.707,48.989 -60.689,137.561 -14.816,176.688" style="fill:none;stroke:#000;stroke-width:20.83px;"/><path d="M2509.41,1829.5c-89.44,54.072 -33.648,123.577 2.302,159.169" style="fill:none;stroke:#000;stroke-width:20.83px;"/><path d="M2644.43,1747.33c-103.707,48.99 -64.374,129.956 -18.5,169.083" style="fill:none;stroke:#000;stroke-width:20.83px;"/><path d="M2555.24,1680.94c-103.707,48.989 -40.706,158.515 5.168,197.642" style="fill:none;stroke:#000;stroke-width:20.83px;"/><path d="M2624.93,1525.37c-103.707,48.989 -63.92,195.361 -18.047,234.488" style="fill:none;stroke:#000;stroke-width:20.83px;"/><path d="M2715.97,1605.47c-103.706,48.99 -93.479,132.116 -47.605,171.244" style="fill:none;stroke:#000;stroke-width:20.83px;"/><path d="M2707.08,1460.91c-103.707,48.989 -93.479,132.116 -47.606,171.243" style="fill:none;stroke:#000;stroke-width:20.83px;"/><path d="M2818.63,1329.12c-106.888,53.548 -134.53,138.649 -79.298,164.366" style="fill:none;stroke:#000;stroke-width:20.83px;"/><path d="M2541.11,2043.19c-103.707,48.99 -77.562,136.838 -31.689,175.965" style="fill:none;stroke:#000;stroke-width:20.83px;"/><path d="M2417.83,2054.59c-103.707,48.989 -64.784,134.514 -18.91,173.642" style="fill:none;stroke:#000;stroke-width:20.83px;"/><path d="M2637.22,2175.2c-103.707,48.989 -42.784,133.488 3.09,172.615" style="fill:none;stroke:#000;stroke-width:20.83px;"/><path d="M2574.56,2175.76c-116.03,43.627 -50.862,146.773 4.596,190.07" style="fill:none;stroke:#000;stroke-width:20.83px;"/><path d="M2473.62,2177.1c-116.03,43.628 -50.861,146.773 4.597,190.07" style="fill:none;stroke:#000;stroke-width:20.83px;"/><path d="M2347.02,2161.88c-116.03,43.628 -50.862,146.773 4.597,190.071" style="fill:none;stroke:#000;stroke-width:20.83px;"/><path d="M2610.43,2316.24c-66.766,62.422 7.696,82.347 22.952,99.073" style="fill:none;stroke:#000;stroke-width:20.83px;"/><path d="M2523.52,2319.27c-66.766,62.422 7.695,82.347 22.951,99.072" style="fill:none;stroke:#000;stroke-width:20.83px;"/><path d="M2680.39,1879.78c-103.707,48.99 -65.754,148.808 -19.88,187.935" style="fill:none;stroke:#000;stroke-width:20.83px;"/><path d="M3276.17,824.992c-128.549,58.003 -86.051,163.213 3.266,193.429" style="fill:none;stroke:#000;stroke-width:20.83px;"/><path d="M3161.62,769.257c-94.995,67.95 -71.914,164.517 -19.936,183.664" style="fill:none;stroke:#000;stroke-width:20.83px;"/><path d="M3211.48,1100.19c-108.769,58.386 -77.031,157.419 -10.634,187.191" style="fill:none;stroke:#000;stroke-width:20.83px;"/><path d="M3090.3,1110.55c-97.301,60.205 -34.563,144.764 16.121,172.045" style="fill:none;stroke:#000;stroke-width:20.83px;"/><path d="M3188.74,1312.91c-102.191,49.431 -86.957,141.483 -29.187,182.999" style="fill:none;stroke:#000;stroke-width:20.83px;"/><path d="M3086.82,1362.16c-85.638,44.393 -82.938,77.893 -45.046,127.635" style="fill:none;stroke:#000;stroke-width:20.83px;"/><path d="M3154.1,1261.3c-78.886,30.416 -79.374,70.514 -45.046,127.636" style="fill:none;stroke:#000;stroke-width:20.83px;"/><path d="M2999.36,1357.12c-84.767,39.162 -100.515,89.563 -58.882,135.819" style="fill:none;stroke:#000;stroke-width:20.83px;"/><path d="M3186.96,1655.29c-102.191,49.431 -89.389,110.279 -31.619,151.795" style="fill:none;stroke:#000;stroke-width:20.83px;"/><path d="M3220.43,1753.87c-102.191,49.431 -62.174,113.667 -4.405,155.183" style="fill:none;stroke:#000;stroke-width:20.83px;"/><path d="M3185.52,1889.59c-109.219,53.277 -81.575,149.366 -18.247,187.839" style="fill:none;stroke:#000;stroke-width:20.83px;"/><path d="M3207.1,2055.07c-105.074,53.824 7.004,163.288 58.46,180.39" style="fill:none;stroke:#000;stroke-width:20.83px;"/><path d="M3248.77,2227.79c-58.627,81.413 22.961,157.702 50.783,158.616" style="fill:none;stroke:#000;stroke-width:20.83px;"/><path d="M3231.87,2337.57c-84.272,40.142 -58.174,149.147 -16.357,172.583" style="fill:none;stroke:#000;stroke-width:20.83px;"/><path d="M3183.12,2176.67c-99.765,39.157 -62.409,175.378 -2.145,199.987" style="fill:none;stroke:#000;stroke-width:20.83px;"/><path d="M3089.92,2198.54c-99.766,39.157 -62.41,175.378 -2.145,199.987" style="fill:none;stroke:#000;stroke-width:20.83px;"/><path d="M2986.08,2164.54c-99.766,39.157 -62.41,175.378 -2.145,199.988" style="fill:none;stroke:#000;stroke-width:20.83px;"/><path d="M2881.49,2113.04c-116.756,32.722 -79.169,171.78 -9.665,199.888" style="fill:none;stroke:#000;stroke-width:20.83px;"/><path d="M2763.06,2141.01c-116.756,32.721 -79.169,171.779 -9.666,199.888" style="fill:none;stroke:#000;stroke-width:20.83px;"/><path d="M2925.41,2279.02c-99.766,39.157 -71.514,146.581 -11.249,171.19" style="fill:none;stroke:#000;stroke-width:20.83px;"/><path d="M2823.23,2273.68c-99.766,39.158 -71.514,146.581 -11.249,171.19" style="fill:none;stroke:#000;stroke-width:20.83px;"/><path d="M2704.09,2295.46c-99.766,39.157 -71.514,146.58 -11.25,171.19" style="fill:none;stroke:#000;stroke-width:20.83px;"/><path d="M2694.48,2046.66c-99.766,39.157 -71.514,146.58 -11.249,171.19" style="fill:none;stroke:#000;stroke-width:20.83px;"/><path d="M3153.99,2348.6c-99.766,39.157 -62.41,175.378 -2.145,199.988" style="fill:none;stroke:#000;stroke-width:20.83px;"/><path d="M3087.27,2403.69c-99.766,39.157 -56.387,129.561 3.878,154.171" style="fill:none;stroke:#000;stroke-width:20.83px;"/><path d="M3031.27,2343.7c-99.766,39.157 -62.41,175.378 -2.145,199.987" style="fill:none;stroke:#000;stroke-width:20.83px;"/><path d="M2962.12,2425.76c-111.16,34.344 -69.665,133.178 -5.038,159.63" style="fill:none;stroke:#000;stroke-width:20.83px;"/><path d="M2867.98,2425.01c-111.16,34.344 -69.665,133.178 -5.038,159.63" style="fill:none;stroke:#000;stroke-width:20.83px;"/><path d="M2765.86,2411.06c-111.16,34.344 -64.058,151.799 0.569,178.251" style="fill:none;stroke:#000;stroke-width:20.83px;"/><path d="M2637.14,2412.69c-111.16,34.345 -64.058,151.799 0.569,178.251" style="fill:none;stroke:#000;stroke-width:20.83px;"/><path d="M2597.03,2361.37c-80.868,32.266 -62.116,115.304 -32.098,144.13" style="fill:none;stroke:#000;stroke-width:20.83px;"/><path d="M2500.68,2363.98c-80.868,32.266 -30.46,165.028 -0.442,193.854" style="fill:none;stroke:#000;stroke-width:20.83px;"/><path d="M2407.81,2301.51c-107.754,56.032 -87.699,229.122 -20.64,225.205" style="fill:none;stroke:#000;stroke-width:20.83px;"/><path d="M3044.33,2030.76c-99.765,39.157 -62.409,175.378 -2.145,199.987" style="fill:none;stroke:#000;stroke-width:20.83px;"/><path d="M3044.33,2030.76c-99.765,39.157 -62.409,175.378 -2.145,199.987" style="fill:none;stroke:#000;stroke-width:20.83px;"/><path d="M2945.75,2005.49c-99.766,39.158 -66.627,169.245 -6.362,193.855" style="fill:none;stroke:#000;stroke-width:20.83px;"/><path d="M2826.49,2013.22c-99.766,39.157 -81.606,145.268 -21.341,169.878" style="fill:none;stroke:#000;stroke-width:20.83px;"/><path d="M2755.24,1909.96c-99.766,39.158 -67.536,152.696 -7.271,177.306" style="fill:none;stroke:#000;stroke-width:20.83px;"/><path d="M2892.43,1903.31c-99.766,39.158 -73.111,176.259 -12.846,200.869" style="fill:none;stroke:#000;stroke-width:20.83px;"/><path d="M3124.08,2027.97c-99.766,39.157 -62.41,175.378 -2.145,199.987" style="fill:none;stroke:#000;stroke-width:20.83px;"/><path d="M3330.74,2334.54c-59.418,75.096 10.441,147.909 38.951,154.32" style="fill:none;stroke:#000;stroke-width:20.83px;"/><path d="M3582.51,1207.46c-108.77,58.387 -50.566,176.793 15.83,206.565" style="fill:none;stroke:#000;stroke-width:20.83px;"/><path d="M3506.1,1096.94c-108.769,58.387 -50.565,176.793 15.831,206.564" style="fill:none;stroke:#000;stroke-width:20.83px;"/><path d="M3506.11,1304.12c-108.769,58.386 -50.565,176.792 15.831,206.564" style="fill:none;stroke:#000;stroke-width:20.83px;"/><path d="M3432.28,1400.32c-108.77,58.387 -50.566,176.793 15.83,206.564" style="fill:none;stroke:#000;stroke-width:20.83px;"/><path d="M3435.7,1194.24c-108.769,58.387 -58.3,169.009 8.096,198.78" style="fill:none;stroke:#000;stroke-width:20.83px;"/><path d="M3364.18,1295.69c-108.77,58.386 -58.3,169.008 8.096,198.78" style="fill:none;stroke:#000;stroke-width:20.83px;"/><path d="M3365.24,1500.09c-108.769,58.386 -67.885,174.199 -1.489,203.97" style="fill:none;stroke:#000;stroke-width:20.83px;"/><path d="M3294.79,1394.13c-117.573,62.107 -79.117,177.193 -4.76,203.6" style="fill:none;stroke:#000;stroke-width:20.83px;"/><path d="M3256.23,1576.37c-111.82,60.996 -68.817,172.143 1.774,199.277" style="fill:none;stroke:#000;stroke-width:20.83px;"/><path d="M3218.11,1457.49c-123.904,48.381 -103.043,163.799 -32.185,198.46" style="fill:none;stroke:#000;stroke-width:20.83px;"/><path d="M3948.21,1699.58c-107.338,-13.821 -205.197,58.167 -218.394,160.657c-13.197,102.491 63.232,196.922 170.569,210.743c107.338,13.822 205.197,-58.166 218.394,-160.657c13.198,-102.491 -63.232,-196.921 -170.569,-210.743Z" style="fill:#fff;stroke:#000;stroke-width:1px;"/><path d="M3854.73,1794.73c-32.413,-4.174 -62.118,18.754 -66.292,51.167c-4.173,32.414 18.754,62.118 51.167,66.292c32.414,4.174 62.119,-18.753 66.292,-51.167c4.174,-32.414 -18.753,-62.118 -51.167,-66.292Z" style="stroke:#000;stroke-width:1px;"/><path d="M2661.21,2321.99l-325.188,-22.741l119.04,497.872l-765.586,-26.515l-80.756,701.897l221.013,-70.694l58.295,-300.142l600.403,-88.073l-483.868,890.874l953.701,111.276l77.485,-269.598l-716.379,-18.008l421.95,-711.911l-19.652,-32.683l235.582,-38.834l-296.04,-622.72Z"/></g></g></svg>