<?xml version="1.0" encoding="UTF-8" standalone="no"?><!DOCTYPE svg PUBLIC "-//W3C//DTD SVG 1.1//EN" "http://www.w3.org/Graphics/SVG/1.1/DTD/svg11.dtd"><svg width="100%" height="100%" viewBox="0 0 4820 4016" version="1.1" xmlns="http://www.w3.org/2000/svg" xmlns:xlink="http://www.w3.org/1999/xlink" xml:space="preserve" xmlns:serif="http://www.serif.com/" style="fill-rule:evenodd;clip-rule:evenodd;stroke-linecap:round;stroke-linejoin:round;stroke-miterlimit:1.5;"><rect id="Artboard7" x="0" y="0" width="4819.65" height="4015.75" style="fill:none;"/><clipPath id="_clip1"><rect x="0" y="0" width="4819.65" height="4015.75"/></clipPath><g clip-path="url(#_clip1)"><g><path d="M853.086,1365.08l-205.973,-11.842" style="fill:none;stroke:#000;stroke-width:20.83px;"/><path d="M783.296,1405.18l-333.369,-27.17" style="fill:none;stroke:#000;stroke-width:20.83px;"/><path d="M758.147,1683.6c-83.566,22.918 -155.761,52.429 -215.571,89.119" style="fill:none;stroke:#000;stroke-width:20.83px;"/><path d="M732.486,1650.6c-83.566,22.919 -155.76,52.429 -215.57,89.119" style="fill:none;stroke:#000;stroke-width:20.83px;"/><path d="M718.669,1601.55c-83.566,22.919 -184.24,55.529 -244.05,92.219" style="fill:none;stroke:#000;stroke-width:20.83px;"/><path d="M702.069,1557.31c-83.567,22.919 -278.592,77.791 -338.402,114.481" style="fill:none;stroke:#000;stroke-width:20.83px;"/><path d="M701.823,1556.42c-88.529,3.589 -425.134,36.69 -480.836,89.38" style="fill:none;stroke:#000;stroke-width:20.83px;"/><path d="M696.169,1526.14c-88.53,3.59 -547.894,30.634 -603.596,83.323" style="fill:none;stroke:#000;stroke-width:20.83px;"/><path d="M692.475,1489.8c-73.57,2.467 -534.866,-38.523 -595.231,14.516" style="fill:none;stroke:#000;stroke-width:20.83px;"/><path d="M700.642,1445.8c-73.57,2.467 -534.867,-38.523 -595.231,14.516" style="fill:none;stroke:#000;stroke-width:20.83px;"/><path d="M815.56,1812.39c-155.229,87.68 -296.375,194.418 -427.365,314.896" style="fill:none;stroke:#000;stroke-width:20.83px;"/><path d="M797.725,1781.91c-155.505,79.776 -289.007,170.674 -402.631,271.62" style="fill:none;stroke:#000;stroke-width:20.83px;"/><path d="M785.233,1753.9c-125.253,54.832 -244.674,121.792 -359.374,198.566" style="fill:none;stroke:#000;stroke-width:20.83px;"/><path d="M375.794,2292.75c148.557,-181.431 311.307,-331.818 491.609,-443.813" style="fill:none;stroke:#000;stroke-width:20.83px;"/><path d="M394.706,2189.01c148.557,-181.43 292.662,-229.036 472.964,-341.031" style="fill:none;stroke:#000;stroke-width:20.83px;"/><path d="M765.089,1729.96c-106.29,32.325 -208.485,83.596 -307.666,148.814" style="fill:none;stroke:#000;stroke-width:20.83px;"/><path d="M868.883,1850.81c-118.068,164.516 -257.257,292.712 -397.426,419.224" style="fill:none;stroke:#000;stroke-width:20.83px;"/><path d="M1580.74,1911.66c-90.657,157.057 -245.913,268.942 -361.22,252.075" style="fill:none;stroke:#000;stroke-width:20.83px;"/><path d="M2356.95,2186.3c-90.657,157.057 -235.421,184.084 -350.727,167.218" style="fill:none;stroke:#000;stroke-width:20.83px;"/><path d="M2254.83,2144.08c-90.657,157.057 -235.421,184.084 -350.727,167.218" style="fill:none;stroke:#000;stroke-width:20.83px;"/><path d="M2083.27,2116.24c-27.426,56.672 -99.121,73.785 -181.081,81.726" style="fill:none;stroke:#000;stroke-width:20.83px;"/><path d="M2153.83,2152.78c-27.425,56.672 -180.613,84.123 -262.573,92.063" style="fill:none;stroke:#000;stroke-width:20.83px;"/><path d="M1493.84,1901.85c-110.923,144.326 -219.123,212.881 -315.447,207.938" style="fill:none;stroke:#000;stroke-width:20.83px;"/><path d="M1445.01,1860.31c-110.923,144.326 -186.304,170.681 -282.628,165.739" style="fill:none;stroke:#000;stroke-width:20.83px;"/><path d="M1372.77,1821.97c-79.139,122.42 -133.01,144.714 -201.898,140.411" style="fill:none;stroke:#000;stroke-width:20.83px;"/><path d="M1325.85,1785.85c-58.352,100.634 -98.121,118.934 -149.002,115.346" style="fill:none;stroke:#000;stroke-width:20.83px;"/><path d="M1307.81,1769.38c-72.127,79.409 -109.332,70.954 -151.396,80.951" style="fill:none;stroke:#000;stroke-width:20.83px;"/><path d="M3346.98,2092.85c47.395,176.418 89.921,351.127 38.162,433.472" style="fill:none;stroke:#000;stroke-width:20.83px;"/><path d="M3346.98,2092.85c47.395,176.418 89.921,351.127 38.162,433.472" style="fill:none;stroke:#000;stroke-width:20.83px;"/><path d="M3232.17,2026.06c60.529,155.568 48.566,369.446 -18.849,433.316" style="fill:none;stroke:#000;stroke-width:20.83px;"/><path d="M3227.19,2132.98c80.41,106.424 67.991,366.359 0.233,400.397" style="fill:none;stroke:#000;stroke-width:20.83px;"/><path d="M3227.28,2133.82c15.388,193.164 -24.811,419.106 -97.157,399.197" style="fill:none;stroke:#000;stroke-width:20.83px;"/><path d="M3173.63,2176.58c15.388,193.163 -60.997,321.424 -133.343,301.515" style="fill:none;stroke:#000;stroke-width:20.83px;"/><path d="M3139.61,2194.17c-12.231,176.781 -110.751,242.541 -153.924,239.935" style="fill:none;stroke:#000;stroke-width:20.83px;"/><path d="M3138.74,2194.46c-72.745,162.52 -168.937,176.155 -171.068,183.221" style="fill:none;stroke:#000;stroke-width:20.83px;"/><path d="M3138.74,2194.46c-72.745,162.52 -168.937,176.155 -171.068,183.221" style="fill:none;stroke:#000;stroke-width:20.83px;"/><path d="M3136.71,2197.48c-91.795,136.16 -242.357,155.734 -252.046,140.783" style="fill:none;stroke:#000;stroke-width:20.83px;"/><path d="M2933.09,357.728c-146.498,-111.863 -383.068,-126.24 -620.471,-93.221" style="fill:none;stroke:#000;stroke-width:20.83px;"/><path d="M2504.18,358.647c-136.001,-98.08 -228.828,-59.766 -472.485,-53.914" style="fill:none;stroke:#000;stroke-width:20.83px;"/><path d="M2184.33,397.191c-146.773,-67.237 -208.338,-46.554 -341.456,-41.705" style="fill:none;stroke:#000;stroke-width:20.83px;"/><path d="M2059.23,440.153c-146.773,-67.238 -208.338,-46.555 -341.456,-41.705" style="fill:none;stroke:#000;stroke-width:20.83px;"/><path d="M1934.75,500.418c-146.773,-67.238 -208.338,-46.555 -341.456,-41.705" style="fill:none;stroke:#000;stroke-width:20.83px;"/><path d="M1833.98,569.952c-115.409,-92.806 -180.087,-77.429 -336.183,-67.194" style="fill:none;stroke:#000;stroke-width:20.83px;"/><path d="M1713.44,610.416c-107.42,-85.309 -110.71,-65.885 -272.429,-60.927" style="fill:none;stroke:#000;stroke-width:20.83px;"/><path d="M1662.17,654.07c-107.419,-85.309 -110.71,-65.885 -272.429,-60.927" style="fill:none;stroke:#000;stroke-width:20.83px;"/><path d="M1556.48,657.253c-4.173,-24.71 -100.302,-22.799 -217.152,-20.307" style="fill:none;stroke:#000;stroke-width:20.83px;"/><path d="M1506.8,684.207c-4.162,-23.554 -101.413,-22.662 -218.267,-20.625" style="fill:none;stroke:#000;stroke-width:20.83px;"/><path d="M1455.45,731.286c-4.173,-24.71 -97.972,-30.53 -214.821,-28.038" style="fill:none;stroke:#000;stroke-width:20.83px;"/><path d="M1381.81,788.504c-4.173,-24.709 -93.215,-31.992 -210.065,-29.5" style="fill:none;stroke:#000;stroke-width:20.83px;"/><path d="M1350.12,835.274c-4.173,-24.71 -82.057,-25.403 -198.907,-22.911" style="fill:none;stroke:#000;stroke-width:20.83px;"/><path d="M1276.63,891.333c-15.337,-32.198 -145.39,-34.681 -217.878,-2.43" style="fill:none;stroke:#000;stroke-width:20.83px;"/><path d="M1248.01,943.052c-42.263,-30.811 -171.199,-17.708 -185.163,1.263" style="fill:none;stroke:#000;stroke-width:20.83px;"/><path d="M1193.65,980.916c-48.319,-22.205 -175.535,44.616 -162.811,48.401" style="fill:none;stroke:#000;stroke-width:20.83px;"/><path d="M2376.32,370.833c-115.688,-62.501 -148.369,-46.02 -406.903,-61.38" style="fill:none;stroke:#000;stroke-width:20.83px;"/><path d="M2688.84,335.06c-154.095,-87.939 -285.801,-63.964 -514.712,-57.69" style="fill:none;stroke:#000;stroke-width:20.83px;"/><path d="M3057.6,1529.25c-74.69,53.973 -38.419,153.853 8.903,168.397" style="fill:none;stroke:#000;stroke-width:20.83px;"/><path d="M2968.46,1536.81c-74.69,53.974 -38.419,153.854 8.904,168.398" style="fill:none;stroke:#000;stroke-width:20.83px;"/><path d="M2917.19,1383.53c-105.39,47.191 -67.479,195.431 5.569,215.659" style="fill:none;stroke:#000;stroke-width:20.83px;"/><path d="M2793.99,1407.93c-105.389,47.19 -67.479,195.43 5.57,215.658" style="fill:none;stroke:#000;stroke-width:20.83px;"/><path d="M3086.6,1233.13c-86.619,26.032 -103.629,158.454 -45.725,197.782" style="fill:none;stroke:#000;stroke-width:20.83px;"/><path d="M3062.62,1079.15c-86.619,26.031 -93.664,146.9 -35.761,186.228" style="fill:none;stroke:#000;stroke-width:20.83px;"/><path d="M2981.72,879.744c-86.619,26.032 -60.171,129.402 -2.267,168.73" style="fill:none;stroke:#000;stroke-width:20.83px;"/><path d="M2956.35,1105.62c-86.62,26.032 -93.665,146.9 -35.761,186.228" style="fill:none;stroke:#000;stroke-width:20.83px;"/><path d="M2985.78,1225.24c-86.619,26.032 -84.417,177.876 -26.514,217.204" style="fill:none;stroke:#000;stroke-width:20.83px;"/><path d="M2886.2,1246.87c-102.175,20.455 -115.128,179.874 -41.261,224.925" style="fill:none;stroke:#000;stroke-width:20.83px;"/><path d="M2785.79,1261.4c-102.175,20.455 -119.509,136.833 -45.642,181.884" style="fill:none;stroke:#000;stroke-width:20.83px;"/><path d="M2865.08,1113.27c-102.175,20.454 -119.509,136.832 -45.642,181.883" style="fill:none;stroke:#000;stroke-width:20.83px;"/><path d="M2920.18,879.86c-102.175,20.454 -119.509,136.832 -45.642,181.883" style="fill:none;stroke:#000;stroke-width:20.83px;"/><path d="M2961.85,715.07c-102.175,20.454 -96.249,135.867 -22.382,180.918" style="fill:none;stroke:#000;stroke-width:20.83px;"/><path d="M3054.33,701.468c-61.621,46.858 -17.191,81.592 24.263,105.54" style="fill:none;stroke:#000;stroke-width:20.83px;"/><path d="M3007.7,1400.15c-84.332,27.541 -48.146,144.169 6.758,181.516" style="fill:none;stroke:#000;stroke-width:20.83px;"/><path d="M3081.26,1402.52c-81.492,36.862 -30.271,137.152 19.411,165.234" style="fill:none;stroke:#000;stroke-width:20.83px;"/><path d="M3226.9,851.99c-120.684,49.662 -109.446,171.433 -29.267,204.69" style="fill:none;stroke:#000;stroke-width:20.83px;"/><path d="M3295.21,760.164c-114.608,67.516 -65.098,149.117 11.187,170.928" style="fill:none;stroke:#000;stroke-width:20.83px;"/><path d="M3364.6,656.724c-114.608,67.517 -67.228,137.765 9.057,159.576" style="fill:none;stroke:#000;stroke-width:20.83px;"/><path d="M4727.08,1565.96c-338.524,-367.895 -746.524,-664.299 -1083.4,-747.065c-291.644,114.185 -477.982,288.761 -533.922,538.116c-12.788,284.293 25.892,525.58 283.389,584.036c253.642,39.976 1058.52,-111.155 1258.87,-247.234l-260.653,16.401c120.184,-20.95 335.716,-144.254 335.716,-144.254Z" style="stroke:#000;stroke-width:20.83px;"/><path d="M3743.64,798.226c-62.179,46.54 -88.744,92.222 -70.248,136.818" style="fill:none;stroke:#000;stroke-width:20.83px;"/><path d="M3634.83,780.617c-75.894,51.268 -47.022,132.331 -9.883,170.501" style="fill:none;stroke:#000;stroke-width:20.83px;"/><path d="M3553.03,670.869c-105.973,63.375 -40.604,176.435 27.872,201.992" style="fill:none;stroke:#000;stroke-width:20.83px;"/><path d="M3486.5,576.57c-105.973,63.374 -58.421,149.973 10.054,175.531" style="fill:none;stroke:#000;stroke-width:20.83px;"/><path d="M3426.32,544.166c-105.973,63.375 -58.421,149.974 10.054,175.531" style="fill:none;stroke:#000;stroke-width:20.83px;"/><path d="M3326.21,486.8c-105.973,63.374 -30.076,146.353 38.399,171.91" style="fill:none;stroke:#000;stroke-width:20.83px;"/><path d="M3240.99,470.756c-57.09,63.466 2.279,74.577 31.793,99.49" style="fill:none;stroke:#000;stroke-width:20.83px;"/><path d="M3098.26,426.219c-22.901,68.379 14.48,76.156 24.603,97.806" style="fill:none;stroke:#000;stroke-width:20.83px;"/><path d="M3008,386.684c-54.215,66.503 -13.644,80.145 12.238,102.375" style="fill:none;stroke:#000;stroke-width:20.83px;"/><path d="M3269.55,566.735c-105.973,63.375 -43.057,159.252 25.418,184.809" style="fill:none;stroke:#000;stroke-width:20.83px;"/><path d="M3208.14,666.446c-105.973,63.374 -53.996,164.231 14.479,189.788" style="fill:none;stroke:#000;stroke-width:20.83px;"/><path d="M3106.22,571.886c-105.973,63.374 -53.996,164.231 14.48,189.788" style="fill:none;stroke:#000;stroke-width:20.83px;"/><path d="M3012.45,572.451c-105.973,63.375 -53.995,164.232 14.48,189.789" style="fill:none;stroke:#000;stroke-width:20.83px;"/><path d="M2982.11,452.675c-85.078,53.305 -72.686,138.293 -26.683,174.68" style="fill:none;stroke:#000;stroke-width:20.83px;"/><path d="M2917.84,564.76c-97.579,48.266 -64.787,128.042 -6.621,169.332" style="fill:none;stroke:#000;stroke-width:20.83px;"/><path d="M2866.84,709.625c-97.579,48.266 -55.705,146.617 2.461,187.907" style="fill:none;stroke:#000;stroke-width:20.83px;"/><path d="M2821.93,855.26c-97.579,48.266 -86.823,136.647 -28.656,177.937" style="fill:none;stroke:#000;stroke-width:20.83px;"/><path d="M2752.69,698.2c-97.578,48.266 -47.518,155.424 10.648,196.713" style="fill:none;stroke:#000;stroke-width:20.83px;"/><path d="M2800.55,576.163c-97.579,48.266 -44.582,135.072 13.585,176.361" style="fill:none;stroke:#000;stroke-width:20.83px;"/><path d="M2875.69,459.953c-99.224,53.087 -80.752,141.606 -21.233,175.844" style="fill:none;stroke:#000;stroke-width:20.83px;"/><path d="M2936.82,360.854c-76.933,58.083 -62.384,122.117 -19.458,143.593" style="fill:none;stroke:#000;stroke-width:20.83px;"/><path d="M2849.01,336.853c-80.668,58.479 -81.729,148.085 -36.739,169.683" style="fill:none;stroke:#000;stroke-width:20.83px;"/><path d="M2779.33,421.501c-102.825,44.912 -93.89,158.051 -33.357,196.362" style="fill:none;stroke:#000;stroke-width:20.83px;"/><path d="M2700.12,547.899c-102.825,44.912 -55.251,149.749 5.283,188.06" style="fill:none;stroke:#000;stroke-width:20.83px;"/><path d="M2669.63,702.619c-115.504,37.535 -49.253,156.48 17.881,198.631" style="fill:none;stroke:#000;stroke-width:20.83px;"/><path d="M2575.7,573.957c-108.556,62.202 -36.675,182.061 23.779,200.497" style="fill:none;stroke:#000;stroke-width:20.83px;"/><path d="M2533.29,496.089c-108.556,62.201 -74.091,159.911 -13.636,178.347" style="fill:none;stroke:#000;stroke-width:20.83px;"/><path d="M2533.29,496.089c-108.556,62.201 -74.091,159.911 -13.636,178.347" style="fill:none;stroke:#000;stroke-width:20.83px;"/><path d="M2588.33,347.416c-84.142,66.624 -54.837,163.399 -13.637,178.347" style="fill:none;stroke:#000;stroke-width:20.83px;"/><path d="M2503.33,364.141c-84.142,66.624 -72.254,159.11 -31.054,174.057" style="fill:none;stroke:#000;stroke-width:20.83px;"/><path d="M2434.32,480.256c-84.142,66.625 -72.253,159.11 -31.054,174.058" style="fill:none;stroke:#000;stroke-width:20.83px;"/><path d="M2369.45,635.919c-84.142,66.624 -72.254,159.109 -31.054,174.057" style="fill:none;stroke:#000;stroke-width:20.83px;"/><path d="M2387.08,778.802c-102.283,39.758 -67.091,130.329 -2.234,180.311" style="fill:none;stroke:#000;stroke-width:20.83px;"/><path d="M2366.75,1039.56c-82.174,39.114 -73.699,119.501 -32.356,170.235" style="fill:none;stroke:#000;stroke-width:20.83px;"/><path d="M2302.03,1162.37c-116.273,48.073 -121.537,193.575 -53.483,237.291" style="fill:none;stroke:#000;stroke-width:20.83px;"/><path d="M2205.68,1340.56c-114.761,55.192 -54.967,177.42 10.401,208.477" style="fill:none;stroke:#000;stroke-width:20.83px;"/><path d="M2152.83,1487.64c-114.761,55.192 -54.756,150.258 10.611,181.315" style="fill:none;stroke:#000;stroke-width:20.83px;"/><path d="M2095.97,1606.31c-93.28,62.58 -40.454,148.571 2.167,164.807" style="fill:none;stroke:#000;stroke-width:20.83px;"/><path d="M1955.26,1548.88c-93.281,62.58 -20.842,152.913 21.779,169.149" style="fill:none;stroke:#000;stroke-width:20.83px;"/><path d="M1923.03,1682.24c-93.28,62.58 -40.454,148.57 2.167,164.807" style="fill:none;stroke:#000;stroke-width:20.83px;"/><path d="M1872.93,1551.09c-93.28,62.58 -40.454,148.571 2.167,164.808" style="fill:none;stroke:#000;stroke-width:20.83px;"/><path d="M1804.49,1430.51c-109.474,31.19 -38.785,165.308 5.912,191.388" style="fill:none;stroke:#000;stroke-width:20.83px;"/><path d="M1975.78,1805.07c-93.281,62.58 -40.454,148.571 2.166,164.807" style="fill:none;stroke:#000;stroke-width:20.83px;"/><path d="M2036.81,1911.58c-93.281,62.58 -39.416,187.625 3.204,203.862" style="fill:none;stroke:#000;stroke-width:20.83px;"/><path d="M1919.71,1856.48c-125.935,75.799 -73.265,215.799 8.146,216.333" style="fill:none;stroke:#000;stroke-width:20.83px;"/><path d="M1864.67,1764.41c-107.719,58.221 -71.457,144.63 -21.885,175.886" style="fill:none;stroke:#000;stroke-width:20.83px;"/><path d="M1821.91,1626.48c-107.719,58.222 -71.457,144.63 -21.885,175.887" style="fill:none;stroke:#000;stroke-width:20.83px;"/><path d="M2086.69,1943.91c-93.28,62.579 -23.122,151.044 19.499,167.28" style="fill:none;stroke:#000;stroke-width:20.83px;"/><path d="M2204.06,2003.53c-112.245,48.996 -50.277,175.714 -0.569,197.027" style="fill:none;stroke:#000;stroke-width:20.83px;"/><path d="M2138.95,1884.66c-93.281,62.579 -40.454,148.57 2.166,164.807" style="fill:none;stroke:#000;stroke-width:20.83px;"/><path d="M2088.49,1782.51c-93.281,62.58 -45.199,146.86 -2.579,163.096" style="fill:none;stroke:#000;stroke-width:20.83px;"/><path d="M2037.93,1678.87c-110.288,52.532 -54.965,144.149 -4.525,165.006" style="fill:none;stroke:#000;stroke-width:20.83px;"/><path d="M2053.28,1488.58c-110.288,52.531 -54.965,144.149 -4.525,165.006" style="fill:none;stroke:#000;stroke-width:20.83px;"/><path d="M2004.28,1390.94c-101.893,52.761 -56.504,162.547 -14.951,183.16" style="fill:none;stroke:#000;stroke-width:20.83px;"/><path d="M1887.96,1379.62c-101.893,52.761 -15.808,170.338 25.745,190.951" style="fill:none;stroke:#000;stroke-width:20.83px;"/><path d="M1876.11,1240.65c-114.75,40.393 -99.751,171.07 -41.103,204.296" style="fill:none;stroke:#000;stroke-width:20.83px;"/><path d="M1771.4,1242.37c-114.75,40.393 -83.354,193.481 -24.706,226.707" style="fill:none;stroke:#000;stroke-width:20.83px;"/><path d="M1694.89,1396.05c-114.75,40.393 -63.673,178.897 -5.024,212.123" style="fill:none;stroke:#000;stroke-width:20.83px;"/><path d="M1756.29,1572.27c-114.75,40.393 -59.949,140.298 -1.301,173.524" style="fill:none;stroke:#000;stroke-width:20.83px;"/><path d="M1641.36,1552.76c-99.64,40.267 -56.571,137.555 -11.644,170.894" style="fill:none;stroke:#000;stroke-width:20.83px;"/><path d="M1519.71,1567.83c-104.971,58.22 -55.821,175.171 -2.077,178.823" style="fill:none;stroke:#000;stroke-width:20.83px;"/><path d="M1423.61,1551.05c-81.22,48.665 -58.922,170.613 -17.012,179.025" style="fill:none;stroke:#000;stroke-width:20.83px;"/><path d="M1325.01,1559.78c-79.756,36.286 -64.824,134.26 -23.54,147.968" style="fill:none;stroke:#000;stroke-width:20.83px;"/><path d="M1362.58,1668.63c-106.559,37.579 -41.167,145.604 29.781,157.882" style="fill:none;stroke:#000;stroke-width:20.83px;"/><path d="M1256.38,1645.12c-82.044,38.917 -15.786,118.762 35.074,129.945" style="fill:none;stroke:#000;stroke-width:20.83px;"/><path d="M1215.66,1572.36c-108.42,41.63 -74.906,141.584 -1.415,150.439" style="fill:none;stroke:#000;stroke-width:20.83px;"/><path d="M1147,1498.06c-88.532,25.551 -52.717,123.645 -1.415,150.439" style="fill:none;stroke:#000;stroke-width:20.83px;"/><path d="M1062.18,1500.94c-91.907,32.601 -56.25,159.106 5.803,163.438" style="fill:none;stroke:#000;stroke-width:20.83px;"/><path d="M968.739,1489.89c-91.907,32.601 -72.566,165.499 -10.512,169.831" style="fill:none;stroke:#000;stroke-width:20.83px;"/><path d="M906.301,1362.36c-91.906,32.601 -60.277,171.644 1.776,175.975" style="fill:none;stroke:#000;stroke-width:20.83px;"/><path d="M1005.96,1628.62c-91.907,32.601 -44.706,180.439 17.348,184.77" style="fill:none;stroke:#000;stroke-width:20.83px;"/><path d="M953.789,1717.35c-69.35,32.896 -42.243,145.431 -3.462,149.459" style="fill:none;stroke:#000;stroke-width:20.83px;"/><path d="M911.032,1623.91c-69.35,32.896 -29.973,116.351 8.808,120.379" style="fill:none;stroke:#000;stroke-width:20.83px;"/><path d="M864.747,1514.08c-69.35,32.895 -29.858,151.839 8.923,155.867" style="fill:none;stroke:#000;stroke-width:20.83px;"/><path d="M1013.28,1355.35c-91.907,32.601 -56.25,159.106 5.804,163.438" style="fill:none;stroke:#000;stroke-width:20.83px;"/><path d="M966.278,1203.92c-117.729,26.944 -88.62,179.44 -6.295,188.213" style="fill:none;stroke:#000;stroke-width:20.83px;"/><path d="M1012.5,1146.51c-70.773,32.423 -34.107,124.346 5.45,128.868" style="fill:none;stroke:#000;stroke-width:20.83px;"/><path d="M881.235,1182.59c-70.773,32.422 -34.107,124.346 5.45,128.868" style="fill:none;stroke:#000;stroke-width:20.83px;"/><path d="M844.34,1279.89c-84.367,36.999 -58.633,164.444 -5.968,164.553" style="fill:none;stroke:#000;stroke-width:20.83px;"/><path d="M809.514,1431.11c-84.367,36.999 -39.485,148.468 13.18,148.577" style="fill:none;stroke:#000;stroke-width:20.83px;"/><path d="M1109.73,1634.05c-88.532,25.551 -20.391,139.729 30.912,166.522" style="fill:none;stroke:#000;stroke-width:20.83px;"/><path d="M1223.05,1323.89c-131.873,18.472 -100.569,179.086 -16.873,207.748" style="fill:none;stroke:#000;stroke-width:20.83px;"/><path d="M1223.05,1323.89c-131.873,18.472 -100.569,179.086 -16.873,207.748" style="fill:none;stroke:#000;stroke-width:20.83px;"/><path d="M1257.68,1143.35c-114.394,20.947 -73.067,154.125 -25.318,177.695" style="fill:none;stroke:#000;stroke-width:20.83px;"/><path d="M1429.97,816.436c-96.768,43.399 -63.762,165.979 -25.319,177.696" style="fill:none;stroke:#000;stroke-width:20.83px;"/><path d="M1363.15,893.057c-108.606,49.506 -84.731,170.498 -37.725,177.798" style="fill:none;stroke:#000;stroke-width:20.83px;"/><path d="M1291.29,959.928c-123.543,47.865 -101.001,172.521 -32.213,182.212" style="fill:none;stroke:#000;stroke-width:20.83px;"/><path d="M1210.07,1014.8c-123.542,47.865 -101,172.521 -32.212,182.213" style="fill:none;stroke:#000;stroke-width:20.83px;"/><path d="M1180.48,1197.22c-99.029,43.517 -71.08,156.216 -36.496,171.975" style="fill:none;stroke:#000;stroke-width:20.83px;"/><path d="M1130.61,1067.77c-93.805,60.802 -50.758,190.08 -17.732,184.213" style="fill:none;stroke:#000;stroke-width:20.83px;"/><path d="M1074.03,1202.03c-93.804,60.802 -50.757,190.079 -17.731,184.213" style="fill:none;stroke:#000;stroke-width:20.83px;"/><path d="M1114.57,1334.29c-93.804,60.802 -50.757,190.08 -17.732,184.213" style="fill:none;stroke:#000;stroke-width:20.83px;"/><path d="M1498.49,1743.91c-104.972,58.221 -34.341,159.219 19.403,162.872" style="fill:none;stroke:#000;stroke-width:20.83px;"/><path d="M1456.19,1693.22c-108.716,52.482 -65.986,160.639 -9.732,167.327" style="fill:none;stroke:#000;stroke-width:20.83px;"/><path d="M1571.16,1422.83c-102.497,52.597 -48.909,176.694 0.982,188.611" style="fill:none;stroke:#000;stroke-width:20.83px;"/><path d="M1478.55,1391.18c-102.497,52.598 -57.343,190.81 -7.452,202.727" style="fill:none;stroke:#000;stroke-width:20.83px;"/><path d="M1442.92,1260.3c-126.376,57.979 -96.533,198.483 -30.591,206.783" style="fill:none;stroke:#000;stroke-width:20.83px;"/><path d="M1292.14,1276.59c-126.375,57.979 -61.868,176.653 4.074,184.953" style="fill:none;stroke:#000;stroke-width:20.83px;"/><path d="M1351.31,1392.38c-102.497,52.597 -29.287,197.279 20.604,209.196" style="fill:none;stroke:#000;stroke-width:20.83px;"/><path d="M1259.82,1453.95c-86.868,52.468 -26.941,159.666 4.623,171.734" style="fill:none;stroke:#000;stroke-width:20.83px;"/><path d="M1670.16,1244.11c-115.545,43.902 -117.709,208.119 -49.12,236.051" style="fill:none;stroke:#000;stroke-width:20.83px;"/><path d="M1731.88,1125.97c-86.622,56.229 -64.685,158.895 -28.365,173.075" style="fill:none;stroke:#000;stroke-width:20.83px;"/><path d="M1807.84,1014.74c-86.622,56.229 -75.799,133.997 -39.479,148.176" style="fill:none;stroke:#000;stroke-width:20.83px;"/><path d="M1769.03,866.655c-86.622,56.228 -44.728,165.77 -8.408,179.949" style="fill:none;stroke:#000;stroke-width:20.83px;"/><path d="M1779.85,714.65c-86.622,56.229 -26.328,151.398 9.992,165.578" style="fill:none;stroke:#000;stroke-width:20.83px;"/><path d="M1716.58,737.126c-86.622,56.229 -26.329,151.399 9.991,165.578" style="fill:none;stroke:#000;stroke-width:20.83px;"/><path d="M1689.85,641.946c-89.757,44.522 -68.508,146.118 -20.998,169.932" style="fill:none;stroke:#000;stroke-width:20.83px;"/><path d="M1690.83,882.325c-86.622,56.229 -50.937,156.24 -14.617,170.42" style="fill:none;stroke:#000;stroke-width:20.83px;"/><path d="M1567.53,882.31c-143.007,64.81 -51.333,155.724 -13.096,173.755" style="fill:none;stroke:#000;stroke-width:20.83px;"/><path d="M1634.35,787.393c-119.244,74.798 -36.952,165.881 -4.558,182.386" style="fill:none;stroke:#000;stroke-width:20.83px;"/><path d="M1597.33,654.84c-82.967,86.125 -26.589,169.221 -16.984,178.611" style="fill:none;stroke:#000;stroke-width:20.83px;"/><path d="M1542.41,741.44c-115.484,56.696 -71.609,155.423 -43.496,181.565" style="fill:none;stroke:#000;stroke-width:20.83px;"/><path d="M1478.84,897.709c-115.484,56.696 -61.593,154.58 -33.479,180.721" style="fill:none;stroke:#000;stroke-width:20.83px;"/><path d="M1401.41,998.281c-115.484,56.696 -61.593,154.579 -33.479,180.721" style="fill:none;stroke:#000;stroke-width:20.83px;"/><path d="M1326.81,1093.98c-115.483,56.696 -61.592,154.58 -33.478,180.721" style="fill:none;stroke:#000;stroke-width:20.83px;"/><path d="M1734.9,1024.43c-97.939,39.602 -108.884,135.013 -59.861,167.855" style="fill:none;stroke:#000;stroke-width:20.83px;"/><path d="M1635.37,1008.77c-97.938,39.603 -108.884,135.013 -59.861,167.856" style="fill:none;stroke:#000;stroke-width:20.83px;"/><path d="M1641.21,1124.68c-97.939,39.602 -91.223,140.918 -42.2,173.76" style="fill:none;stroke:#000;stroke-width:20.83px;"/><path d="M1540.07,1125.86c-110.207,46.945 -114.021,166.429 -47.252,188.665" style="fill:none;stroke:#000;stroke-width:20.83px;"/><path d="M1363.76,1192.82c-96.329,46.271 -80.94,167.236 -22.714,189.886" style="fill:none;stroke:#000;stroke-width:20.83px;"/><path d="M1448.14,1088.99c-96.328,46.271 -94.78,166.178 -36.555,188.829" style="fill:none;stroke:#000;stroke-width:20.83px;"/><path d="M1501.15,1018.01c-52.747,44.814 -61.152,130.019 -31.384,153.621" style="fill:none;stroke:#000;stroke-width:20.83px;"/><path d="M1561.94,1255.53c-97.939,39.603 -87.386,163.084 -38.363,195.926" style="fill:none;stroke:#000;stroke-width:20.83px;"/><path d="M1867.25,562.506c-122.967,35.059 -108.514,169.552 -43.321,181.623" style="fill:none;stroke:#000;stroke-width:20.83px;"/><path d="M1935.56,513.301c-102.805,37.105 -99.262,159.41 -45.907,188.525" style="fill:none;stroke:#000;stroke-width:20.83px;"/><path d="M1778.09,559.292c-102.806,37.105 -99.262,159.41 -45.907,188.525" style="fill:none;stroke:#000;stroke-width:20.83px;"/><path d="M1792.59,1870.09c-80.094,20.71 -63.186,142.809 21.979,158.969" style="fill:none;stroke:#000;stroke-width:20.83px;"/><path d="M1748.82,1749.7c-58.139,15.024 -56.992,122.599 2.157,145.497" style="fill:none;stroke:#000;stroke-width:20.83px;"/><path d="M1700.42,1829.66c-105.199,18.228 -83.442,117.074 3.638,144.435" style="fill:none;stroke:#000;stroke-width:20.83px;"/><path d="M1628.44,1790.02c-87.059,1.459 -75.335,122.143 -3.563,163.656" style="fill:none;stroke:#000;stroke-width:20.83px;"/><path d="M1699.41,1688.4c-105.199,18.228 -83.442,117.073 3.638,144.435" style="fill:none;stroke:#000;stroke-width:20.83px;"/><path d="M1581.24,1665.15c-78.266,14.69 -67.507,132.453 -13.214,164.121" style="fill:none;stroke:#000;stroke-width:20.83px;"/><path d="M2100.62,1316.39c-120.416,45.679 -47.053,191.646 7.632,198.805" style="fill:none;stroke:#000;stroke-width:20.83px;"/><path d="M2197.38,1172.33c-129.086,49.16 -108.418,175.696 -44.064,209.019" style="fill:none;stroke:#000;stroke-width:20.83px;"/><path d="M2082.38,1197.5c-129.086,49.16 -115.223,172.288 -50.868,205.611" style="fill:none;stroke:#000;stroke-width:20.83px;"/><path d="M2001.73,1239.04c-145.66,47.206 -131.433,159.512 -49.188,194.945" style="fill:none;stroke:#000;stroke-width:20.83px;"/><path d="M1943.72,1114.79c-95.767,48.74 -78.303,142.325 -33.056,176.62" style="fill:none;stroke:#000;stroke-width:20.83px;"/><path d="M1829.64,1103.88c-95.767,48.74 -71.679,144.86 -26.433,179.155" style="fill:none;stroke:#000;stroke-width:20.83px;"/><path d="M1897.15,995.857c-95.766,48.739 -68.867,140.831 -23.621,175.126" style="fill:none;stroke:#000;stroke-width:20.83px;"/><path d="M1976.78,974.938c-95.766,48.74 -37.365,144.282 7.882,178.578" style="fill:none;stroke:#000;stroke-width:20.83px;"/><path d="M1937.09,838.387c-95.766,48.74 -51.384,151.75 -6.138,186.046" style="fill:none;stroke:#000;stroke-width:20.83px;"/><path d="M2039.98,882.61c-95.766,48.74 -37.365,144.282 7.881,178.577" style="fill:none;stroke:#000;stroke-width:20.83px;"/><path d="M2089.57,784.62c-95.767,48.74 -37.365,144.282 7.881,178.578" style="fill:none;stroke:#000;stroke-width:20.83px;"/><path d="M1999.93,744.718c-95.766,48.74 -45.02,134.785 0.226,169.08" style="fill:none;stroke:#000;stroke-width:20.83px;"/><path d="M1891.39,701.422c-118.791,28.994 -59.834,122.081 0.226,169.08" style="fill:none;stroke:#000;stroke-width:20.83px;"/><path d="M2168.93,654.394c-104.862,49.254 -86.369,146.07 -31.684,179.832" style="fill:none;stroke:#000;stroke-width:20.83px;"/><path d="M2091.55,648.781c-108.502,41.128 -97.84,139.049 -46.03,176.863" style="fill:none;stroke:#000;stroke-width:20.83px;"/><path d="M1981.31,618.317c-108.502,41.128 -97.84,139.049 -46.031,176.863" style="fill:none;stroke:#000;stroke-width:20.83px;"/><path d="M1861.93,840.069c-108.502,41.129 -75.911,149.751 -24.101,187.565" style="fill:none;stroke:#000;stroke-width:20.83px;"/><path d="M1861.93,840.069c-108.502,41.129 -75.911,149.751 -24.101,187.565" style="fill:none;stroke:#000;stroke-width:20.83px;"/><path d="M2159.11,498.667c-104.862,49.254 -86.369,146.07 -31.683,179.831" style="fill:none;stroke:#000;stroke-width:20.83px;"/><path d="M2044.5,549.434c-90.569,47.163 -77.948,129.753 -31.825,164.767" style="fill:none;stroke:#000;stroke-width:20.83px;"/><path d="M2222.79,368.978c-92.793,54.178 -56.56,166.353 -23.076,191.464" style="fill:none;stroke:#000;stroke-width:20.83px;"/><path d="M2105.06,402.775c-92.794,54.178 -56.56,166.353 -23.076,191.464" style="fill:none;stroke:#000;stroke-width:20.83px;"/><path d="M2007.41,426.827c-92.794,54.178 -65.954,178.604 -32.471,203.715" style="fill:none;stroke:#000;stroke-width:20.83px;"/><path d="M2268.18,1046.07c-102.897,51.803 -77.611,135.627 -37.924,165.114" style="fill:none;stroke:#000;stroke-width:20.83px;"/><path d="M2347.53,934.094c-102.897,51.804 -77.611,135.627 -37.924,165.114" style="fill:none;stroke:#000;stroke-width:20.83px;"/><path d="M2249.71,927.008c-102.897,51.803 -77.611,135.626 -37.924,165.113" style="fill:none;stroke:#000;stroke-width:20.83px;"/><path d="M2139.14,939.161c-86.686,50.764 -56.455,120.808 -33.966,151.397" style="fill:none;stroke:#000;stroke-width:20.83px;"/><path d="M2168.92,1039.92c-102.897,51.803 -97.026,161.192 -57.339,190.679" style="fill:none;stroke:#000;stroke-width:20.83px;"/><path d="M2074.53,1049.54c-102.897,51.803 -97.025,161.192 -57.338,190.679" style="fill:none;stroke:#000;stroke-width:20.83px;"/><path d="M2307.65,784.357c-118.862,51.935 -66.216,147.395 -8.151,176.73" style="fill:none;stroke:#000;stroke-width:20.83px;"/><path d="M2190.3,796.988c-57.421,25.089 -74.816,60.336 -70.91,93.379c4.179,35.356 32.745,68.188 62.76,83.351" style="fill:none;stroke:#000;stroke-width:20.83px;"/><path d="M2255.19,665.745c-118.862,51.935 -74.652,150.707 -16.587,180.042" style="fill:none;stroke:#000;stroke-width:20.83px;"/><path d="M2326.09,528.148c-118.862,51.935 -74.652,150.707 -16.586,180.042" style="fill:none;stroke:#000;stroke-width:20.83px;"/><path d="M2291.1,380.444c-72.524,52.44 -40.428,151.08 -16.587,180.041" style="fill:none;stroke:#000;stroke-width:20.83px;"/><path d="M2245.96,515.416c-72.524,52.441 -77.71,156.808 -53.868,185.77" style="fill:none;stroke:#000;stroke-width:20.83px;"/><path d="M2380.56,373.511c-84.072,59.994 -57.057,176.51 -16.586,180.041" style="fill:none;stroke:#000;stroke-width:20.83px;"/><path d="M2163.16,1696.52c-107.591,50.274 -50.642,154.508 1.574,194.585" style="fill:none;stroke:#000;stroke-width:20.83px;"/><path d="M2604.61,782.673c-108.556,62.202 -48.021,165.791 12.433,184.226" style="fill:none;stroke:#000;stroke-width:20.83px;"/><path d="M2537.35,874.794c-135.648,70.666 -67.182,176.206 23.615,185.161" style="fill:none;stroke:#000;stroke-width:20.83px;"/><path d="M2650.18,440.393c-106.19,60.406 -72.34,171.687 -11.926,197.336" style="fill:none;stroke:#000;stroke-width:20.83px;"/><path d="M2731.37,305.02c-95.811,56.598 -90.883,156.118 -36.354,180.18" style="fill:none;stroke:#000;stroke-width:20.83px;"/><path d="M2732.59,869.125c-78.127,37.147 -48.09,94.987 -10.387,140.475" style="fill:none;stroke:#000;stroke-width:20.83px;"/><path d="M2674.67,894.682c-90.689,36.094 -44.143,109.422 1.142,155.546" style="fill:none;stroke:#000;stroke-width:20.83px;"/><path d="M2620.97,968.007c-100.674,50.912 -39.476,139.132 12.263,175.68" style="fill:none;stroke:#000;stroke-width:20.83px;"/><path d="M2558.83,1060.29c-92.991,56.838 -51.957,121.204 -8.715,151.198" style="fill:none;stroke:#000;stroke-width:20.83px;"/><path d="M2496.84,1153.5c-100.967,50.954 -79.144,204.02 -27.515,240.201" style="fill:none;stroke:#000;stroke-width:20.83px;"/><path d="M2431.92,1338.06c-100.967,50.955 -46.142,159.802 5.487,195.983" style="fill:none;stroke:#000;stroke-width:20.83px;"/><path d="M2315.24,1314.93c-110.662,66.581 -51.199,204.875 16.179,215.667" style="fill:none;stroke:#000;stroke-width:20.83px;"/><path d="M2394.45,1150.06c-114.007,75.333 -82.948,230.032 -10.731,236.156" style="fill:none;stroke:#000;stroke-width:20.83px;"/><path d="M2464.73,1001.46c-99.818,78.15 -67.253,192.779 -27.65,197.155" style="fill:none;stroke:#000;stroke-width:20.83px;"/><path d="M2433.03,937.26c-99.358,55.315 -75.817,111.987 -36.717,141.358" style="fill:none;stroke:#000;stroke-width:20.83px;"/><path d="M2454.76,796.495c-117.542,60.486 -46.929,127.291 4.715,153.096" style="fill:none;stroke:#000;stroke-width:20.83px;"/><path d="M2528.58,708.203c-109.84,49.77 -58.267,139.419 -13.06,172.021" style="fill:none;stroke:#000;stroke-width:20.83px;"/><path d="M2457.67,623.947c-109.84,49.77 -79.158,153.421 -33.951,186.023" style="fill:none;stroke:#000;stroke-width:20.83px;"/><path d="M2387.25,1479.18c-91.399,31.281 -37.08,164.05 22.708,177.322" style="fill:none;stroke:#000;stroke-width:20.83px;"/><path d="M2352.79,1608.22c-91.399,31.281 -66.606,153.462 -6.818,166.735" style="fill:none;stroke:#000;stroke-width:20.83px;"/><path d="M2232.87,1596.45c-91.398,31.281 -66.605,153.462 -6.817,166.735" style="fill:none;stroke:#000;stroke-width:20.83px;"/><path d="M2265.47,1480.38c-82.774,48.98 -30.577,165.127 30.731,166.099" style="fill:none;stroke:#000;stroke-width:20.83px;"/><path d="M2285.55,1713.92c-91.399,31.28 -66.606,153.462 -6.818,166.734" style="fill:none;stroke:#000;stroke-width:20.83px;"/><path d="M2221.66,1815.26c-91.398,31.28 -54.931,170.644 4.857,183.917" style="fill:none;stroke:#000;stroke-width:20.83px;"/><path d="M2277.73,1964.49c-105.115,34.262 -77.6,164.679 -12.836,176.87" style="fill:none;stroke:#000;stroke-width:20.83px;"/><path d="M2829.39,1016.2c-73.25,37.76 -68.608,93.688 -43.399,149.21" style="fill:none;stroke:#000;stroke-width:20.83px;"/><path d="M2758.98,1112.58c-102.233,34.047 -107.662,143.245 -58.354,201.855" style="fill:none;stroke:#000;stroke-width:20.83px;"/><path d="M2690.93,1383.44c-101.427,53.864 -51.056,167.453 -2.672,203.336" style="fill:none;stroke:#000;stroke-width:20.83px;"/><path d="M2597.84,1673.15c-101.426,53.864 -56.184,143.109 -7.799,178.993" style="fill:none;stroke:#000;stroke-width:20.83px;"/><path d="M2550.07,1538.01c-101.427,53.864 -56.184,143.109 -7.8,178.993" style="fill:none;stroke:#000;stroke-width:20.83px;"/><path d="M2452.51,1621.99c-101.427,53.865 -53.052,138.467 -4.668,174.35" style="fill:none;stroke:#000;stroke-width:20.83px;"/><path d="M2476.74,1502.93c-86.79,58.066 -26.676,123.233 11.527,156.195" style="fill:none;stroke:#000;stroke-width:20.83px;"/><path d="M2607.73,1414.74c-101.427,53.865 -57.196,131.202 -8.812,167.085" style="fill:none;stroke:#000;stroke-width:20.83px;"/><path d="M2514.22,1354.49c-101.427,53.865 -31.749,157.938 16.636,193.821" style="fill:none;stroke:#000;stroke-width:20.83px;"/><path d="M2575.28,1197.84c-101.427,53.865 -52.954,195.412 -4.57,231.296" style="fill:none;stroke:#000;stroke-width:20.83px;"/><path d="M2671.44,1271.46c-101.427,53.864 -86.332,134.937 -37.948,170.821" style="fill:none;stroke:#000;stroke-width:20.83px;"/><path d="M2654.14,1129.98c-101.427,53.864 -86.333,134.937 -37.948,170.821" style="fill:none;stroke:#000;stroke-width:20.83px;"/><path d="M2758.66,994.359c-104.361,58.518 -127.226,143.631 -70.209,165.825" style="fill:none;stroke:#000;stroke-width:20.83px;"/><path d="M2520.99,1711.05c-101.427,53.864 -70.057,138.691 -21.673,174.575" style="fill:none;stroke:#000;stroke-width:20.83px;"/><path d="M2397.7,1729.07c-101.427,53.865 -57.345,135.702 -8.961,171.585" style="fill:none;stroke:#000;stroke-width:20.83px;"/><path d="M2625.25,1835.36c-101.427,53.865 -35.287,133.474 13.097,169.357" style="fill:none;stroke:#000;stroke-width:20.83px;"/><path d="M2562.28,1839.39c-114.126,49.283 -42.638,146.969 15.624,186.416" style="fill:none;stroke:#000;stroke-width:20.83px;"/><path d="M2460.88,1846.3c-114.126,49.282 -42.638,146.968 15.624,186.416" style="fill:none;stroke:#000;stroke-width:20.83px;"/><path d="M2332.72,1838.37c-114.126,49.282 -42.639,146.969 15.623,186.416" style="fill:none;stroke:#000;stroke-width:20.83px;"/><path d="M2606.48,1975.37c-63.511,65.008 12.503,80.447 28.809,96.028" style="fill:none;stroke:#000;stroke-width:20.83px;"/><path d="M2519.28,1983.16c-63.511,65.008 12.503,80.447 28.809,96.028" style="fill:none;stroke:#000;stroke-width:20.83px;"/><path d="M2651.55,1542.83c-101.427,53.864 -57.493,149.792 -9.108,185.675" style="fill:none;stroke:#000;stroke-width:20.83px;"/><path d="M3189.46,473.869c-125.88,64.094 -77.065,165.066 14.479,189.789" style="fill:none;stroke:#000;stroke-width:20.83px;"/><path d="M3071.08,425.483c-91.571,72.003 -62.776,165.563 -9.412,181.485" style="fill:none;stroke:#000;stroke-width:20.83px;"/><path d="M3140.37,747.732c-105.973,63.374 -68.331,158.875 0.144,184.433" style="fill:none;stroke:#000;stroke-width:20.83px;"/><path d="M3019.13,764.625c-94.337,64.524 -26.368,144.092 26.166,168.074" style="fill:none;stroke:#000;stroke-width:20.83px;"/><path d="M3129.81,957.91c-99.878,54.215 -79.233,143.775 -18.751,181.345" style="fill:none;stroke:#000;stroke-width:20.83px;"/><path d="M3030.2,1011.93c-83.526,48.349 -78.873,81.1 -37.898,127.851" style="fill:none;stroke:#000;stroke-width:20.83px;"/><path d="M3091.99,909.139c-77.549,34.246 -75.718,73.654 -37.899,127.85" style="fill:none;stroke:#000;stroke-width:20.83px;"/><path d="M2941.97,1011.83c-82.954,43.163 -95.869,93.536 -51.335,136.656" style="fill:none;stroke:#000;stroke-width:20.83px;"/><path d="M3147.84,1294.27c-99.877,54.214 -83.484,113.264 -23.002,150.833" style="fill:none;stroke:#000;stroke-width:20.83px;"/><path d="M3187.2,1389.22c-99.877,54.214 -55.928,115.083 4.554,152.652" style="fill:none;stroke:#000;stroke-width:20.83px;"/><path d="M3159.95,1524.45c-106.72,58.381 -73.366,151.219 -7.472,185.492" style="fill:none;stroke:#000;stroke-width:20.83px;"/><path d="M3191.23,1685.77c-102.521,58.689 16.493,159.98 69.215,173.922" style="fill:none;stroke:#000;stroke-width:20.83px;"/><path d="M3243.12,1853.1c-54.229,83.208 32.212,153.608 60.236,152.963" style="fill:none;stroke:#000;stroke-width:20.83px;"/><path d="M3232.49,1961.85c-82.4,44.098 -49.852,149.706 -6.454,170.404" style="fill:none;stroke:#000;stroke-width:20.83px;"/><path d="M3174.16,1806.53c-98.034,43.99 -52.593,175.703 9.42,196.53" style="fill:none;stroke:#000;stroke-width:20.83px;"/><path d="M3081.73,1833.18c-98.034,43.99 -52.593,175.702 9.42,196.53" style="fill:none;stroke:#000;stroke-width:20.83px;"/><path d="M2975.36,1805.55c-98.033,43.99 -52.592,175.703 9.42,196.53" style="fill:none;stroke:#000;stroke-width:20.83px;"/><path d="M2867.23,1760.77c-115.488,38.611 -69.65,173.097 1.852,196.849" style="fill:none;stroke:#000;stroke-width:20.83px;"/><path d="M2749.78,1794.81c-115.488,38.611 -69.65,173.097 1.853,196.849" style="fill:none;stroke:#000;stroke-width:20.83px;"/><path d="M2921,1921.34c-98.034,43.99 -63.412,147.925 -1.4,168.752" style="fill:none;stroke:#000;stroke-width:20.83px;"/><path d="M2817.95,1921.77c-98.034,43.99 -63.412,147.925 -1.4,168.752" style="fill:none;stroke:#000;stroke-width:20.83px;"/><path d="M2699.44,1949.77c-98.034,43.99 -63.413,147.925 -1.401,168.752" style="fill:none;stroke:#000;stroke-width:20.83px;"/><path d="M2675.38,1705.95c-98.033,43.99 -63.412,147.925 -1.4,168.753" style="fill:none;stroke:#000;stroke-width:20.83px;"/><path d="M3154.82,1977.01c-98.034,43.989 -52.593,175.702 9.419,196.529" style="fill:none;stroke:#000;stroke-width:20.83px;"/><path d="M3090.94,2034.81c-98.034,43.99 -49.19,130.371 12.822,151.199" style="fill:none;stroke:#000;stroke-width:20.83px;"/><path d="M3031.17,1979c-98.033,43.99 -52.592,175.703 9.42,196.53" style="fill:none;stroke:#000;stroke-width:20.83px;"/><path d="M2966.39,2063.42c-109.768,39.894 -62.33,134.66 4.174,157.054" style="fill:none;stroke:#000;stroke-width:20.83px;"/><path d="M2871.71,2067.91c-109.768,39.895 -62.33,134.66 4.174,157.055" style="fill:none;stroke:#000;stroke-width:20.83px;"/><path d="M2768.23,2059.87c-109.768,39.895 -55.615,152.636 10.89,175.031" style="fill:none;stroke:#000;stroke-width:20.83px;"/><path d="M2638.92,2068.61c-109.767,39.894 -55.614,152.636 10.89,175.031" style="fill:none;stroke:#000;stroke-width:20.83px;"/><path d="M2595.62,2020.43c-79.434,36.174 -55.775,116.686 -23.928,143.332" style="fill:none;stroke:#000;stroke-width:20.83px;"/><path d="M2498.91,2028.34c-79.434,36.174 -21.07,163.766 10.777,190.412" style="fill:none;stroke:#000;stroke-width:20.83px;"/><path d="M2401.92,1972.14c-105.088,61.005 -74.907,229.887 -7.715,222.322" style="fill:none;stroke:#000;stroke-width:20.83px;"/><path d="M3026.18,1670.93c-98.034,43.99 -52.593,175.703 9.419,196.53" style="fill:none;stroke:#000;stroke-width:20.83px;"/><path d="M3026.18,1670.93c-98.034,43.99 -52.593,175.703 9.419,196.53" style="fill:none;stroke:#000;stroke-width:20.83px;"/><path d="M2925.61,1651.58c-98.034,43.989 -57.188,169.913 4.824,190.74" style="fill:none;stroke:#000;stroke-width:20.83px;"/><path d="M2806.16,1665.79c-98.034,43.989 -73.634,147.195 -11.622,168.023" style="fill:none;stroke:#000;stroke-width:20.83px;"/><path d="M2728.54,1568.32c-98.033,43.99 -59.058,153.71 2.954,174.537" style="fill:none;stroke:#000;stroke-width:20.83px;"/><path d="M2866.09,1554.18c-98.034,43.99 -63.3,177.161 -1.288,197.988" style="fill:none;stroke:#000;stroke-width:20.83px;"/><path d="M3106.19,1663.76c-98.034,43.989 -52.593,175.702 9.419,196.529" style="fill:none;stroke:#000;stroke-width:20.83px;"/><path d="M3331.71,1953.39c-55.39,77.049 19.058,144.685 48.092,149.4" style="fill:none;stroke:#000;stroke-width:20.83px;"/><path d="M3519.59,832.508c-105.972,63.374 -40.603,176.435 27.872,201.992" style="fill:none;stroke:#000;stroke-width:20.83px;"/><path d="M3436.38,728.198c-105.973,63.374 -40.603,176.434 27.872,201.992" style="fill:none;stroke:#000;stroke-width:20.83px;"/><path d="M3448.37,931.676c-105.973,63.374 -40.603,176.435 27.872,201.992" style="fill:none;stroke:#000;stroke-width:20.83px;"/><path d="M3379.72,1030.25c-105.972,63.374 -40.603,176.434 27.872,201.992" style="fill:none;stroke:#000;stroke-width:20.83px;"/><path d="M3371.23,827.663c-105.973,63.375 -48.83,169.219 19.645,194.777" style="fill:none;stroke:#000;stroke-width:20.83px;"/><path d="M3305.19,931.268c-105.973,63.374 -48.83,169.219 19.645,194.776" style="fill:none;stroke:#000;stroke-width:20.83px;"/><path d="M3318.1,1131.96c-105.973,63.374 -58.166,174.848 10.309,200.405" style="fill:none;stroke:#000;stroke-width:20.83px;"/><path d="M3241.13,1031.79c-114.609,67.517 -69.285,178.411 6.999,200.223" style="fill:none;stroke:#000;stroke-width:20.83px;"/><path d="M3212.91,1212.92c-108.889,66.106 -59.221,172.88 13.318,195.614" style="fill:none;stroke:#000;stroke-width:20.83px;"/><path d="M3167.7,1098.27c-121.768,54.387 -94.114,166.583 -20.869,196.696" style="fill:none;stroke:#000;stroke-width:20.83px;"/><path d="M3888.31,1200.83c-108.175,-3.228 -198.502,78.011 -201.584,181.302c-3.081,103.291 82.241,189.77 190.417,192.998c108.175,3.227 198.502,-78.012 201.583,-181.302c3.082,-103.291 -82.24,-189.771 -190.416,-192.998Z" style="fill:#fff;stroke:#000;stroke-width:1px;"/><path d="M3804.62,1304.69c-32.667,-0.974 -59.98,24.756 -60.954,57.422c-0.975,32.667 24.755,59.98 57.422,60.954c32.667,0.975 59.979,-24.755 60.954,-57.422c0.974,-32.667 -24.756,-59.979 -57.422,-60.954Z" style="stroke:#000;stroke-width:1px;"/><path d="M1980.35,2095.47l460.722,-26.9l-7.54,84.215l709.323,46.032l47.782,546.756l353.978,-19.076l-143.517,295.148l-516.431,-18.465l-26.377,-603.103l-704.458,34.254l-262.573,513.711l-469.909,366.466l-0.012,453.72l133.081,95.796l-88.452,151.727l-279.982,-189.695l-4.742,-642.514l560.173,-448.992l238.934,-639.08Z"/></g></g></svg>