<?xml version="1.0" encoding="UTF-8" standalone="no"?><!DOCTYPE svg PUBLIC "-//W3C//DTD SVG 1.1//EN" "http://www.w3.org/Graphics/SVG/1.1/DTD/svg11.dtd"><svg width="100%" height="100%" viewBox="0 0 4820 4016" version="1.1" xmlns="http://www.w3.org/2000/svg" xmlns:xlink="http://www.w3.org/1999/xlink" xml:space="preserve" xmlns:serif="http://www.serif.com/" style="fill-rule:evenodd;clip-rule:evenodd;stroke-linecap:round;stroke-linejoin:round;stroke-miterlimit:1.5;"><rect id="Artboard3" x="0" y="0" width="4819.65" height="4015.75" style="fill:none;"/><g><path d="M832.459,1235.89l-218.429,-21.56" style="fill:none;stroke:#000;stroke-width:20.83px;"/><path d="M756.613,1274.39l-353.196,-43.209" style="fill:none;stroke:#000;stroke-width:20.83px;"/><path d="M718.295,1562.43c-89.774,20.046 -167.736,47.45 -232.833,82.867" style="fill:none;stroke:#000;stroke-width:20.83px;"/><path d="M692.395,1527.01c-89.774,20.046 -167.736,47.45 -232.833,82.867" style="fill:none;stroke:#000;stroke-width:20.83px;"/><path d="M679.749,1475.45c-89.773,20.046 -198.133,49.388 -263.23,84.805" style="fill:none;stroke:#000;stroke-width:20.83px;"/><path d="M663.947,1428.75c-89.774,20.046 -299.343,68.268 -364.441,103.685" style="fill:none;stroke:#000;stroke-width:20.83px;"/><path d="M663.723,1427.81c-94.244,-0.252 -453.388,18.992 -514.785,71.211" style="fill:none;stroke:#000;stroke-width:20.83px;"/><path d="M658.973,1396.12c-94.244,-0.253 -583.613,7.181 -645.01,59.4" style="fill:none;stroke:#000;stroke-width:20.83px;"/><path d="M656.56,1358.2c-78.297,-0.746 -566.889,-64.06 -633.256,-11.687" style="fill:none;stroke:#000;stroke-width:20.83px;"/><path d="M667.071,1312.87c-78.297,-0.745 -566.888,-64.059 -633.256,-11.686" style="fill:none;stroke:#000;stroke-width:20.83px;"/><path d="M773.957,1698.78c-168.637,84.086 -323.099,188.597 -467.339,307.837" style="fill:none;stroke:#000;stroke-width:20.83px;"/><path d="M756.269,1666.32c-168.601,75.864 -314.279,164.269 -439.248,264.003" style="fill:none;stroke:#000;stroke-width:20.83px;"/><path d="M744.158,1636.67c-135.41,51.318 -265.125,115.493 -390.232,190.074" style="fill:none;stroke:#000;stroke-width:20.83px;"/><path d="M286.551,2177.91c165.448,-181.755 344.688,-330.63 540.987,-438.842" style="fill:none;stroke:#000;stroke-width:20.83px;"/><path d="M310.97,2071.01c165.448,-181.755 320.593,-224.72 516.892,-332.931" style="fill:none;stroke:#000;stroke-width:20.83px;"/><path d="M723.743,1610.9c-114.318,28.793 -225.071,77.448 -333.201,140.725" style="fill:none;stroke:#000;stroke-width:20.83px;"/><path d="M829.033,1741.08c-132.338,165.559 -285.613,292.447 -439.859,417.54" style="fill:none;stroke:#000;stroke-width:20.83px;"/><path d="M1545.62,1946.97c-108.052,152.965 -276.241,252.528 -390.425,223.128" style="fill:none;stroke:#000;stroke-width:20.83px;"/><path d="M2297,2311.43c-108.052,152.964 -256.58,165.887 -370.765,136.487" style="fill:none;stroke:#000;stroke-width:20.83px;"/><path d="M2198.8,2257.19c-108.052,152.965 -256.58,165.888 -370.765,136.487" style="fill:none;stroke:#000;stroke-width:20.83px;"/><path d="M2029.2,2210.61c-33.671,55.744 -107.63,65.997 -190.931,65.703" style="fill:none;stroke:#000;stroke-width:20.83px;"/><path d="M2096.26,2255.7c-33.67,55.744 -190.718,68.231 -274.02,67.937" style="fill:none;stroke:#000;stroke-width:20.83px;"/><path d="M1459.26,1927.8c-127.072,137.701 -243.274,197.349 -339.644,182.245" style="fill:none;stroke:#000;stroke-width:20.83px;"/><path d="M1414.6,1879.8c-127.072,137.701 -205.731,157.127 -302.1,142.023" style="fill:none;stroke:#000;stroke-width:20.83px;"/><path d="M1346.04,1832.67c-92.748,118.352 -149.333,135.811 -218.17,124.215" style="fill:none;stroke:#000;stroke-width:20.83px;"/><path d="M1302.72,1790.45c-69.498,97.986 -111.469,112.778 -162.269,103.791" style="fill:none;stroke:#000;stroke-width:20.83px;"/><path d="M1286.34,1771.56c-81.079,74.613 -117.598,62.012 -160.986,67.984" style="fill:none;stroke:#000;stroke-width:20.83px;"/><path d="M3302.97,2317.54c28.748,187.303 52.78,372.336 -8.124,452.098" style="fill:none;stroke:#000;stroke-width:20.83px;"/><path d="M3302.97,2317.54c28.748,187.303 52.78,372.336 -8.124,452.098" style="fill:none;stroke:#000;stroke-width:20.83px;"/><path d="M3233.2,2341.18c58.886,162.519 43.597,384.632 -25.529,450.077" style="fill:none;stroke:#000;stroke-width:20.83px;"/><path d="M3178.16,2346.6c69.471,118.367 29.084,385.809 -42.73,413.969" style="fill:none;stroke:#000;stroke-width:20.83px;"/><path d="M3178.16,2347.47c-5.248,201.296 -69.932,430.712 -140.573,402.623" style="fill:none;stroke:#000;stroke-width:20.83px;"/><path d="M3119.6,2386.11c-5.247,201.296 -95.852,325.971 -166.493,297.882" style="fill:none;stroke:#000;stroke-width:20.83px;"/><path d="M3083.48,2400.77c-31.275,181.492 -137.439,239.256 -180.59,232.083" style="fill:none;stroke:#000;stroke-width:20.83px;"/><path d="M3082.58,2400.98c-90.618,160.471 -188.848,164.588 -191.75,171.673" style="fill:none;stroke:#000;stroke-width:20.83px;"/><path d="M3082.58,2400.98c-90.618,160.471 -188.848,164.588 -191.75,171.673" style="fill:none;stroke:#000;stroke-width:20.83px;"/><path d="M3080.22,2403.89c-106.955,131.243 -260.515,135.859 -268.658,119.397" style="fill:none;stroke:#000;stroke-width:20.83px;"/><path d="M3072.79,480.764c-135.37,-130.847 -371.809,-170.254 -614.173,-160.749" style="fill:none;stroke:#000;stroke-width:20.83px;"/><path d="M2641.23,437.215c-126.289,-115.508 -223.781,-85.528 -469.521,-104.758" style="fill:none;stroke:#000;stroke-width:20.83px;"/><path d="M2315.33,443.879c-140.434,-84.74 -204.587,-69.745 -339.02,-78.542" style="fill:none;stroke:#000;stroke-width:20.83px;"/><path d="M2184.88,475.316c-140.434,-84.741 -204.586,-69.745 -339.019,-78.542" style="fill:none;stroke:#000;stroke-width:20.83px;"/><path d="M2053.18,524.704c-140.434,-84.741 -204.586,-69.745 -339.019,-78.542" style="fill:none;stroke:#000;stroke-width:20.83px;"/><path d="M1944.35,586.136c-106.14,-107.919 -172.854,-98.732 -330.98,-104.346" style="fill:none;stroke:#000;stroke-width:20.83px;"/><path d="M1818.75,615.464c-98.906,-99.34 -104.301,-79.601 -267.517,-91.253" style="fill:none;stroke:#000;stroke-width:20.83px;"/><path d="M1762.5,655.276c-98.907,-99.341 -104.301,-79.601 -267.518,-91.253" style="fill:none;stroke:#000;stroke-width:20.83px;"/><path d="M1655.83,647.6c-1.546,-25.978 -98.454,-33.976 -216.269,-43.523" style="fill:none;stroke:#000;stroke-width:20.83px;"/><path d="M1602.96,670.312c-1.659,-24.783 -99.587,-33.95 -217.357,-43.968" style="fill:none;stroke:#000;stroke-width:20.83px;"/><path d="M1546.26,713.657c-1.547,-25.979 -95.28,-41.728 -213.095,-51.275" style="fill:none;stroke:#000;stroke-width:20.83px;"/><path d="M1466.03,765.171c-1.546,-25.978 -90.338,-42.746 -208.153,-52.292" style="fill:none;stroke:#000;stroke-width:20.83px;"/><path d="M1429.14,810.235c-1.547,-25.978 -79.822,-34.775 -197.636,-44.322" style="fill:none;stroke:#000;stroke-width:20.83px;"/><path d="M1349.19,860.566c-11.974,-34.879 -142.537,-50.939 -218.918,-25.117" style="fill:none;stroke:#000;stroke-width:20.83px;"/><path d="M1314.85,911.066c-39.21,-36.238 -170.321,-36.069 -186.405,-17.905" style="fill:none;stroke:#000;stroke-width:20.83px;"/><path d="M1256.1,944.571c-46.225,-27.97 -181.371,27.914 -168.977,33.147" style="fill:none;stroke:#000;stroke-width:20.83px;"/><path d="M2511.29,436.548c-109.671,-76.619 -144.316,-62.971 -402.745,-105.673" style="fill:none;stroke:#000;stroke-width:20.83px;"/><path d="M2829.52,431.989c-145.579,-106.902 -280.643,-95.781 -511.595,-113.043" style="fill:none;stroke:#000;stroke-width:20.83px;"/><path d="M3072.33,1704.84c-80.927,48.051 -55.157,155.073 -9.113,175.019" style="fill:none;stroke:#000;stroke-width:20.83px;"/><path d="M2981.85,1703.41c-80.928,48.051 -55.158,155.073 -9.114,175.019" style="fill:none;stroke:#000;stroke-width:20.83px;"/><path d="M2946.72,1539.62c-111.083,37.853 -88.853,195.041 -17.539,223.533" style="fill:none;stroke:#000;stroke-width:20.83px;"/><path d="M2820.17,1552.07c-111.082,37.853 -88.853,195.041 -17.538,223.533" style="fill:none;stroke:#000;stroke-width:20.83px;"/><path d="M3133.29,1401.71c-89.93,17.926 -121.252,153.065 -67.223,199.731" style="fill:none;stroke:#000;stroke-width:20.83px;"/><path d="M3125.69,1240.03c-89.93,17.926 -109.987,142.153 -55.958,188.819" style="fill:none;stroke:#000;stroke-width:20.83px;"/><path d="M3065.7,1025.49c-89.93,17.926 -74.416,127.537 -20.387,174.203" style="fill:none;stroke:#000;stroke-width:20.83px;"/><path d="M3015.94,1256.37c-89.93,17.926 -109.987,142.153 -55.958,188.819" style="fill:none;stroke:#000;stroke-width:20.83px;"/><path d="M3032.71,1383.1c-89.93,17.926 -104.009,175.136 -49.98,221.802" style="fill:none;stroke:#000;stroke-width:20.83px;"/><path d="M2930.22,1395.13c-104.979,10.546 -135.116,174.015 -65.643,228.254" style="fill:none;stroke:#000;stroke-width:20.83px;"/><path d="M2827.65,1399.73c-104.979,10.546 -134.905,129.062 -65.432,183.301" style="fill:none;stroke:#000;stroke-width:20.83px;"/><path d="M2923.31,1254.81c-104.98,10.546 -134.905,129.063 -65.432,183.302" style="fill:none;stroke:#000;stroke-width:20.83px;"/><path d="M3003.78,1019.22c-104.98,10.546 -134.905,129.063 -65.432,183.302" style="fill:none;stroke:#000;stroke-width:20.83px;"/><path d="M3063.38,853.181c-104.979,10.546 -111.402,130.478 -41.928,184.717" style="fill:none;stroke:#000;stroke-width:20.83px;"/><path d="M3157.87,848.714c-67.016,42.05 -26.048,82.569 13.083,111.628" style="fill:none;stroke:#000;stroke-width:20.83px;"/><path d="M3035.99,1566.19c-87.792,19.724 -63.905,144.051 -12.681,188.359" style="fill:none;stroke:#000;stroke-width:20.83px;"/><path d="M3109.73,1576.28c-85.933,29.655 -45.168,138.652 1.796,172.839" style="fill:none;stroke:#000;stroke-width:20.83px;"/><path d="M3315.33,1022.23c-126.734,38.821 -128.495,165.879 -51.406,208.579" style="fill:none;stroke:#000;stroke-width:20.83px;"/><path d="M3393.9,934.387c-122.537,57.91 -81.487,147.408 -7.088,177.872" style="fill:none;stroke:#000;stroke-width:20.83px;"/><path d="M3474.79,834.646c-122.537,57.911 -82.412,135.451 -8.013,165.914" style="fill:none;stroke:#000;stroke-width:20.83px;"/><path d="M4805.69,1967.98c-314.123,-388.937 -702.183,-711.006 -1033.03,-815.3c-298.394,95.162 -495.59,257.373 -567.476,502.607c-31.074,282.878 -8.016,526.156 245.18,601.077c250.54,56.231 1063.49,-42.74 1272.18,-165.632l-261.169,-0.423c121.284,-13.164 344.311,-122.329 344.311,-122.329Z" style="stroke:#000;stroke-width:20.83px;"/><path d="M3840.91,1020.26c-67.544,41.664 -99.17,86.136 -85.348,134.159" style="fill:none;stroke:#000;stroke-width:20.83px;"/><path d="M3733.34,990.767c-81.848,45.129 -61.502,131.93 -28.237,175.245" style="fill:none;stroke:#000;stroke-width:20.83px;"/><path d="M3662.84,868.82c-113.406,54.524 -59.778,178.192 6.363,211.718" style="fill:none;stroke:#000;stroke-width:20.83px;"/><path d="M3606.03,764.428c-113.406,54.524 -74.863,148.986 -8.722,182.513" style="fill:none;stroke:#000;stroke-width:20.83px;"/><path d="M3548.96,724.684c-113.406,54.524 -74.863,148.986 -8.722,182.513" style="fill:none;stroke:#000;stroke-width:20.83px;"/><path d="M3454.41,654.99c-113.406,54.524 -45.96,148.185 20.181,181.711" style="fill:none;stroke:#000;stroke-width:20.83px;"/><path d="M3370.41,629.562c-64.241,59.691 -5.71,77.337 21.307,106.155" style="fill:none;stroke:#000;stroke-width:20.83px;"/><path d="M3231.61,568.71c-30.376,68.316 6.393,80.235 14.254,103.668" style="fill:none;stroke:#000;stroke-width:20.83px;"/><path d="M3145.04,518.472c-61.674,63.129 -22.325,81.442 1.326,107.108" style="fill:none;stroke:#000;stroke-width:20.83px;"/><path d="M3388.83,731.751c-113.406,54.524 -60.403,160.172 5.738,193.699" style="fill:none;stroke:#000;stroke-width:20.83px;"/><path d="M3316.36,828.464c-113.406,54.524 -71.941,164.186 -5.8,197.712" style="fill:none;stroke:#000;stroke-width:20.83px;"/><path d="M3223.98,720.131c-113.406,54.524 -71.941,164.186 -5.799,197.713" style="fill:none;stroke:#000;stroke-width:20.83px;"/><path d="M3129.59,710.987c-113.406,54.524 -71.941,164.186 -5.799,197.712" style="fill:none;stroke:#000;stroke-width:20.83px;"/><path d="M3111.92,584.01c-91.306,46.281 -87.96,135.431 -45.587,177.821" style="fill:none;stroke:#000;stroke-width:20.83px;"/><path d="M3035.24,693.22c-103.34,39.775 -78.913,125.653 -24.83,174.374" style="fill:none;stroke:#000;stroke-width:20.83px;"/><path d="M2968.39,837.695c-103.341,39.775 -71.771,145.798 -17.688,194.52" style="fill:none;stroke:#000;stroke-width:20.83px;"/><path d="M2907.58,983.598c-103.341,39.775 -102.004,132.262 -47.921,180.983" style="fill:none;stroke:#000;stroke-width:20.83px;"/><path d="M2854.79,814.04c-103.341,39.775 -64.48,155.753 -10.397,204.474" style="fill:none;stroke:#000;stroke-width:20.83px;"/><path d="M2916.02,692.839c-103.341,39.775 -59.342,135.016 -5.259,183.738" style="fill:none;stroke:#000;stroke-width:20.83px;"/><path d="M3004.09,580.494c-105.514,44.588 -96.43,138.019 -40.229,179.59" style="fill:none;stroke:#000;stroke-width:20.83px;"/><path d="M3076.21,484.383c-83.624,52.067 -75.86,119.777 -34.982,146.433" style="fill:none;stroke:#000;stroke-width:20.83px;"/><path d="M2990.45,450.46c-87.426,52.088 -98.107,144.616 -55.167,171.612" style="fill:none;stroke:#000;stroke-width:20.83px;"/><path d="M2911.27,530.743c-108.258,35.762 -111.41,153.657 -54.627,199.545" style="fill:none;stroke:#000;stroke-width:20.83px;"/><path d="M2818.03,653.199c-108.258,35.763 -71.649,149.083 -14.866,194.971" style="fill:none;stroke:#000;stroke-width:20.83px;"/><path d="M2770.76,809.991c-120.222,26.822 -66.339,156.665 -3.327,207.207" style="fill:none;stroke:#000;stroke-width:20.83px;"/><path d="M2690.07,667.231c-115.879,53.043 -56.43,184.416 2.406,209.747" style="fill:none;stroke:#000;stroke-width:20.83px;"/><path d="M2655.76,582.328c-115.879,53.043 -91.693,157.635 -32.856,182.966" style="fill:none;stroke:#000;stroke-width:20.83px;"/><path d="M2655.76,582.328c-115.879,53.043 -91.693,157.635 -32.856,182.966" style="fill:none;stroke:#000;stroke-width:20.83px;"/><path d="M2727.09,434.335c-91.794,60.149 -72.698,163.239 -32.856,182.967" style="fill:none;stroke:#000;stroke-width:20.83px;"/><path d="M2639.78,442.807c-91.794,60.149 -89.759,156.997 -49.917,176.725" style="fill:none;stroke:#000;stroke-width:20.83px;"/><path d="M2557.9,555.691c-91.793,60.149 -89.758,156.997 -49.917,176.725" style="fill:none;stroke:#000;stroke-width:20.83px;"/><path d="M2475.94,709.89c-91.794,60.149 -89.759,156.997 -49.917,176.725" style="fill:none;stroke:#000;stroke-width:20.83px;"/><path d="M2478.34,859.436c-107.16,30.492 -81.477,127.779 -21.596,186.181" style="fill:none;stroke:#000;stroke-width:20.83px;"/><path d="M2429.91,1126.9c-86.862,31.912 -86.962,115.898 -50.817,172.638" style="fill:none;stroke:#000;stroke-width:20.83px;"/><path d="M2351.62,1247.16c-122.126,37.636 -143.035,187.514 -79.265,239.771" style="fill:none;stroke:#000;stroke-width:20.83px;"/><path d="M2235.58,1421.38c-121.369,45.153 -74.334,177.72 -11.909,216.61" style="fill:none;stroke:#000;stroke-width:20.83px;"/><path d="M2166.63,1567.96c-121.369,45.153 -71.207,149.661 -8.782,188.551" style="fill:none;stroke:#000;stroke-width:20.83px;"/><path d="M2096.7,1684.74c-100.553,55.02 -56.639,149.401 -15.506,170.609" style="fill:none;stroke:#000;stroke-width:20.83px;"/><path d="M1961.31,1610.77c-100.553,55.019 -37.375,155.924 3.757,177.132" style="fill:none;stroke:#000;stroke-width:20.83px;"/><path d="M1914.58,1745.29c-100.553,55.019 -56.638,149.4 -15.506,170.608" style="fill:none;stroke:#000;stroke-width:20.83px;"/><path d="M1878.26,1604.51c-100.553,55.019 -56.639,149.4 -15.506,170.608" style="fill:none;stroke:#000;stroke-width:20.83px;"/><path d="M1822.34,1472.75c-113.475,20.888 -56.755,166.877 -14.59,198.477" style="fill:none;stroke:#000;stroke-width:20.83px;"/><path d="M1954.46,1877.76c-100.553,55.019 -56.638,149.4 -15.506,170.608" style="fill:none;stroke:#000;stroke-width:20.83px;"/><path d="M2004.43,1994.2c-100.553,55.02 -59.785,189.885 -18.652,211.093" style="fill:none;stroke:#000;stroke-width:20.83px;"/><path d="M1892.54,1925.09c-134.821,65.297 -96.859,215.498 -15.018,224.497" style="fill:none;stroke:#000;stroke-width:20.83px;"/><path d="M1847.05,1824.19c-114.61,49.016 -87.404,142.11 -40.89,179.567" style="fill:none;stroke:#000;stroke-width:20.83px;"/><path d="M1818.83,1677.16c-114.609,49.015 -87.404,142.109 -40.889,179.566" style="fill:none;stroke:#000;stroke-width:20.83px;"/><path d="M2051.14,2032.8c-100.553,55.02 -39.468,153.756 1.665,174.964" style="fill:none;stroke:#000;stroke-width:20.83px;"/><path d="M2162.81,2106.61c-118.173,39.008 -69.433,176.443 -21.715,203.634" style="fill:none;stroke:#000;stroke-width:20.83px;"/><path d="M2110.07,1976.97c-100.552,55.019 -56.638,149.4 -15.505,170.609" style="fill:none;stroke:#000;stroke-width:20.83px;"/><path d="M2070.27,1866.12c-100.553,55.02 -61.228,147.14 -20.095,168.348" style="fill:none;stroke:#000;stroke-width:20.83px;"/><path d="M2030.53,1753.74c-116.584,42.866 -70.761,143.323 -22.258,170.119" style="fill:none;stroke:#000;stroke-width:20.83px;"/><path d="M2066.38,1558.6c-116.584,42.866 -70.761,143.323 -22.258,170.119" style="fill:none;stroke:#000;stroke-width:20.83px;"/><path d="M2027.57,1452.57c-108.163,43.975 -74.284,162.184 -34.695,187.806" style="fill:none;stroke:#000;stroke-width:20.83px;"/><path d="M1911.77,1428.8c-108.163,43.975 -34.181,174.46 5.408,200.082" style="fill:none;stroke:#000;stroke-width:20.83px;"/><path d="M1914.76,1283.9c-119.769,29.853 -118.704,166.508 -63.271,206.943" style="fill:none;stroke:#000;stroke-width:20.83px;"/><path d="M1809.24,1274.81c-119.77,29.854 -104.614,191.379 -49.181,231.814" style="fill:none;stroke:#000;stroke-width:20.83px;"/><path d="M1715.79,1425.75c-119.769,29.854 -83.249,178.343 -27.816,218.778" style="fill:none;stroke:#000;stroke-width:20.83px;"/><path d="M1758.64,1614.31c-119.769,29.853 -75.361,138.824 -19.929,179.26" style="fill:none;stroke:#000;stroke-width:20.83px;"/><path d="M1645.12,1582.21c-104.556,31.293 -71.67,136.34 -30.052,175.469" style="fill:none;stroke:#000;stroke-width:20.83px;"/><path d="M1521.12,1585.17c-111.846,49.3 -74.952,175.307 -21.279,184.659" style="fill:none;stroke:#000;stroke-width:20.83px;"/><path d="M1426.25,1557.85c-86.927,41.886 -77.581,170.273 -36.323,183.319" style="fill:none;stroke:#000;stroke-width:20.83px;"/><path d="M1326.12,1556.65c-84.126,29.24 -79.619,132.077 -39.559,150.533" style="fill:none;stroke:#000;stroke-width:20.83px;"/><path d="M1352.25,1673.09c-111.228,27.795 -57.038,146.259 13.016,166.313" style="fill:none;stroke:#000;stroke-width:20.83px;"/><path d="M1247.93,1637.76c-86.71,31.722 -28.625,121.143 21.339,137.98" style="fill:none;stroke:#000;stroke-width:20.83px;"/><path d="M1214.77,1558.31c-113.534,31.789 -90.546,138.602 -17.567,155.381" style="fill:none;stroke:#000;stroke-width:20.83px;"/><path d="M1153.68,1474.37c-91.803,17.231 -66.3,122.36 -17.567,155.382" style="fill:none;stroke:#000;stroke-width:20.83px;"/><path d="M1068.04,1468.55c-95.954,24.169 -73.659,158.653 -11.7,169.57" style="fill:none;stroke:#000;stroke-width:20.83px;"/><path d="M975.23,1447.43c-95.954,24.169 -90.758,163.57 -28.799,174.487" style="fill:none;stroke:#000;stroke-width:20.83px;"/><path d="M926.104,1309.11c-95.954,24.169 -79.056,171.198 -17.097,182.114" style="fill:none;stroke:#000;stroke-width:20.83px;"/><path d="M997.787,1594.71c-95.954,24.168 -64.335,181.905 -2.376,192.822" style="fill:none;stroke:#000;stroke-width:20.83px;"/><path d="M935.783,1681.04c-73.294,26.813 -58.102,145.968 -19.521,154.156" style="fill:none;stroke:#000;stroke-width:20.83px;"/><path d="M902.797,1580c-73.294,26.813 -42.637,117.177 -4.056,125.365" style="fill:none;stroke:#000;stroke-width:20.83px;"/><path d="M868.021,1461.65c-73.294,26.813 -46.33,153.879 -7.75,162.067" style="fill:none;stroke:#000;stroke-width:20.83px;"/><path d="M1034.47,1312.95c-95.954,24.168 -73.659,158.653 -11.699,169.569" style="fill:none;stroke:#000;stroke-width:20.83px;"/><path d="M1003.44,1151.53c-121.323,15.642 -108.404,176.317 -26.529,193.928" style="fill:none;stroke:#000;stroke-width:20.83px;"/><path d="M1056.1,1096.97c-74.675,26.177 -47.654,125.015 -8.346,133.794" style="fill:none;stroke:#000;stroke-width:20.83px;"/><path d="M920.18,1120.65c-74.675,26.177 -47.655,125.015 -8.347,133.794" style="fill:none;stroke:#000;stroke-width:20.83px;"/><path d="M872.622,1217.42c-88.841,29.498 -76.629,163.926 -23.661,169.502" style="fill:none;stroke:#000;stroke-width:20.83px;"/><path d="M821.362,1370.14c-88.84,29.497 -55.652,149.394 -2.685,154.971" style="fill:none;stroke:#000;stroke-width:20.83px;"/><path d="M1101.59,1611.1c-91.802,17.231 -35.506,142.341 13.228,175.364" style="fill:none;stroke:#000;stroke-width:20.83px;"/><path d="M1248.87,1302.2c-134.643,5.414 -120.387,174.711 -39.267,213.026" style="fill:none;stroke:#000;stroke-width:20.83px;"/><path d="M1248.87,1302.2c-134.643,5.414 -120.387,174.711 -39.267,213.026" style="fill:none;stroke:#000;stroke-width:20.83px;"/><path d="M1303.09,1119.14c-117.325,9.788 -90.042,151.76 -44.537,181.081" style="fill:none;stroke:#000;stroke-width:20.83px;"/><path d="M1511.48,799.044c-102.003,34.828 -81.953,164.979 -44.537,181.081" style="fill:none;stroke:#000;stroke-width:20.83px;"/><path d="M1436.04,871.326c-114.566,39.912 -103.532,167.476 -57.028,179.9" style="fill:none;stroke:#000;stroke-width:20.83px;"/><path d="M1356.57,933.002c-129.416,36.667 -120.116,167.879 -51.958,185.036" style="fill:none;stroke:#000;stroke-width:20.83px;"/><path d="M1268.98,981.305c-129.416,36.667 -120.116,167.88 -51.957,185.036" style="fill:none;stroke:#000;stroke-width:20.83px;"/><path d="M1219.64,1166.83c-104.29,34.715 -88.268,154.126 -55.168,174.007" style="fill:none;stroke:#000;stroke-width:20.83px;"/><path d="M1183.37,1027.82c-100.889,53.127 -71.458,191.245 -37.606,188.607" style="fill:none;stroke:#000;stroke-width:20.83px;"/><path d="M1112.04,1160.76c-100.889,53.127 -71.458,191.244 -37.605,188.606" style="fill:none;stroke:#000;stroke-width:20.83px;"/><path d="M1138.63,1301.7c-100.889,53.127 -71.458,191.245 -37.605,188.607" style="fill:none;stroke:#000;stroke-width:20.83px;"/><path d="M1480.89,1765.01c-111.846,49.3 -51.632,161.043 2.041,170.395" style="fill:none;stroke:#000;stroke-width:20.83px;"/><path d="M1443.78,1708.22c-114.997,42.979 -83.617,159.229 -27.745,171.979" style="fill:none;stroke:#000;stroke-width:20.83px;"/><path d="M1588.44,1440.61c-108.753,43.743 -68.161,177.598 -19.251,195.094" style="fill:none;stroke:#000;stroke-width:20.83px;"/><path d="M1498.67,1398.27c-108.752,43.743 -78.16,191.317 -29.25,208.813" style="fill:none;stroke:#000;stroke-width:20.83px;"/><path d="M1476.88,1259.27c-133.351,46.828 -118.407,195.183 -52.962,210.605" style="fill:none;stroke:#000;stroke-width:20.83px;"/><path d="M1323.45,1260.46c-133.351,46.829 -81.194,176.211 -15.749,191.633" style="fill:none;stroke:#000;stroke-width:20.83px;"/><path d="M1370.54,1386.32c-108.753,43.742 -50.631,200.914 -1.721,218.411" style="fill:none;stroke:#000;stroke-width:20.83px;"/><path d="M1271.9,1440.47c-93.016,45.231 -44.235,162.273 -13.777,178.025" style="fill:none;stroke:#000;stroke-width:20.83px;"/><path d="M1707.21,1266.11c-120.946,33.4 -140.746,202.948 -74.744,238.942" style="fill:none;stroke:#000;stroke-width:20.83px;"/><path d="M1781.98,1150.38c-93.173,49.145 -82.122,157.561 -47.106,175.989" style="fill:none;stroke:#000;stroke-width:20.83px;"/><path d="M1870.33,1043.27c-93.173,49.144 -90.629,130.666 -55.614,149.094" style="fill:none;stroke:#000;stroke-width:20.83px;"/><path d="M1847.18,886.139c-93.173,49.145 -62.784,166.738 -27.768,185.166" style="fill:none;stroke:#000;stroke-width:20.83px;"/><path d="M1874.37,730.114c-93.173,49.145 -42.732,153.789 -7.716,172.217" style="fill:none;stroke:#000;stroke-width:20.83px;"/><path d="M1808.31,746.787c-93.173,49.144 -42.732,153.789 -7.716,172.217" style="fill:none;stroke:#000;stroke-width:20.83px;"/><path d="M1791.64,645.613c-95.07,36.716 -84.597,143.954 -39.358,173.503" style="fill:none;stroke:#000;stroke-width:20.83px;"/><path d="M1766.83,894.227c-93.173,49.144 -68.007,156.242 -32.992,174.669" style="fill:none;stroke:#000;stroke-width:20.83px;"/><path d="M1642.79,881.419c-150.815,52.166 -68.35,155.667 -31.819,178.275" style="fill:none;stroke:#000;stroke-width:20.83px;"/><path d="M1720.19,790.223c-127.982,64.957 -54.973,167.659 -24.157,188.084" style="fill:none;stroke:#000;stroke-width:20.83px;"/><path d="M1697.18,649.344c-92.704,80.431 -44.906,172.188 -36.252,182.893" style="fill:none;stroke:#000;stroke-width:20.83px;"/><path d="M1632.64,733.177c-122.257,46.633 -88.714,153.252 -63.238,183.195" style="fill:none;stroke:#000;stroke-width:20.83px;"/><path d="M1551.92,888.138c-122.257,46.633 -78.548,153.419 -53.071,183.362" style="fill:none;stroke:#000;stroke-width:20.83px;"/><path d="M1463.24,984.078c-122.257,46.633 -78.548,153.42 -53.072,183.362" style="fill:none;stroke:#000;stroke-width:20.83px;"/><path d="M1377.92,1075.28c-122.256,46.633 -78.547,153.419 -53.071,183.362" style="fill:none;stroke:#000;stroke-width:20.83px;"/><path d="M1795.92,1045.71c-102.773,30.781 -124.022,128.284 -78.23,167.324" style="fill:none;stroke:#000;stroke-width:20.83px;"/><path d="M1697.47,1019.19c-102.773,30.781 -124.022,128.284 -78.231,167.324" style="fill:none;stroke:#000;stroke-width:20.83px;"/><path d="M1690.9,1139.64c-102.773,30.782 -106.889,136.222 -61.098,175.262" style="fill:none;stroke:#000;stroke-width:20.83px;"/><path d="M1589.03,1130.36c-115.903,37.099 -132.561,160.23 -67.779,190.146" style="fill:none;stroke:#000;stroke-width:20.83px;"/><path d="M1404.49,1181.3c-101.868,37.843 -99.368,164.496 -43.225,193.954" style="fill:none;stroke:#000;stroke-width:20.83px;"/><path d="M1500.51,1082.71c-101.868,37.842 -113.178,161.967 -57.036,191.425" style="fill:none;stroke:#000;stroke-width:20.83px;"/><path d="M1561.45,1014.82c-57.872,40.858 -75.469,128.074 -48.057,155.563" style="fill:none;stroke:#000;stroke-width:20.83px;"/><path d="M1597.12,1266.68c-102.773,30.782 -105.407,159.535 -59.615,198.575" style="fill:none;stroke:#000;stroke-width:20.83px;"/><path d="M1978.62,581.89c-127.463,23.487 -127.355,164.031 -63.069,183.274" style="fill:none;stroke:#000;stroke-width:20.83px;"/><path d="M2052.61,538.107c-107.4,27.694 -116.96,154.505 -66.41,190.141" style="fill:none;stroke:#000;stroke-width:20.83px;"/><path d="M1889.28,569.317c-107.401,27.694 -116.96,154.505 -66.411,190.141" style="fill:none;stroke:#000;stroke-width:20.83px;"/><path d="M1763.2,1925.97c-82.794,13.101 -78.888,141.086 5.052,166.628" style="fill:none;stroke:#000;stroke-width:20.83px;"/><path d="M1732.09,1796.96c-60.097,9.5 -70.487,120.834 -13.442,150.643" style="fill:none;stroke:#000;stroke-width:20.83px;"/><path d="M1674.82,1874.61c-107.783,7.93 -96.503,112.377 -11.839,149.699" style="fill:none;stroke:#000;stroke-width:20.83px;"/><path d="M1606.66,1826.16c-87.735,-7.523 -88.89,118.461 -21.145,168.824" style="fill:none;stroke:#000;stroke-width:20.83px;"/><path d="M1688.96,1728.47c-107.783,7.93 -96.503,112.377 -11.839,149.699" style="fill:none;stroke:#000;stroke-width:20.83px;"/><path d="M1572.58,1692.17c-80.31,7.066 -82.124,129.93 -30.904,168.303" style="fill:none;stroke:#000;stroke-width:20.83px;"/><path d="M2132.49,1385.49c-126.037,34.731 -67.898,193.248 -13.655,206.324" style="fill:none;stroke:#000;stroke-width:20.83px;"/><path d="M2245.28,1246.6c-135.131,37.432 -127.918,170.393 -66.755,211.52" style="fill:none;stroke:#000;stroke-width:20.83px;"/><path d="M2126.89,1260.69c-135.131,37.431 -134.398,166.163 -73.235,207.29" style="fill:none;stroke:#000;stroke-width:20.83px;"/><path d="M2041.3,1295.27c-151.595,33.69 -149.334,151.272 -70.4,196.437" style="fill:none;stroke:#000;stroke-width:20.83px;"/><path d="M1996.28,1160.79c-101.569,40.453 -94.043,139.017 -52.206,179.167" style="fill:none;stroke:#000;stroke-width:20.83px;"/><path d="M1882.69,1137.68c-101.568,40.453 -87.651,142.324 -45.814,182.474" style="fill:none;stroke:#000;stroke-width:20.83px;"/><path d="M1962.19,1033.01c-101.569,40.453 -84.391,138.451 -42.554,178.601" style="fill:none;stroke:#000;stroke-width:20.83px;"/><path d="M2044.55,1019.64c-101.569,40.453 -53.071,145.287 -11.234,185.437" style="fill:none;stroke:#000;stroke-width:20.83px;"/><path d="M2019.27,874.352c-101.568,40.453 -67.975,151.553 -26.139,191.703" style="fill:none;stroke:#000;stroke-width:20.83px;"/><path d="M2118.03,930.745c-101.568,40.453 -53.07,145.287 -11.234,185.437" style="fill:none;stroke:#000;stroke-width:20.83px;"/><path d="M2178.43,834.585c-101.568,40.453 -53.07,145.287 -11.234,185.437" style="fill:none;stroke:#000;stroke-width:20.83px;"/><path d="M2092.54,784.033c-101.568,40.453 -59.752,134.674 -17.916,174.825" style="fill:none;stroke:#000;stroke-width:20.83px;"/><path d="M1988,728.011c-122.612,17.65 -73.291,120.004 -17.916,174.825" style="fill:none;stroke:#000;stroke-width:20.83px;"/><path d="M2272.24,708.188c-110.773,40.04 -102.559,142.051 -51.17,182.628" style="fill:none;stroke:#000;stroke-width:20.83px;"/><path d="M2195,694.355c-113.563,31.263 -113.345,133.603 -65.284,178.072" style="fill:none;stroke:#000;stroke-width:20.83px;"/><path d="M2087.37,651.423c-113.563,31.263 -113.345,133.603 -65.283,178.072" style="fill:none;stroke:#000;stroke-width:20.83px;"/><path d="M1943.48,868.293c-113.563,31.263 -92.433,146.941 -44.372,191.41" style="fill:none;stroke:#000;stroke-width:20.83px;"/><path d="M1943.48,868.293c-113.563,31.263 -92.433,146.941 -44.372,191.41" style="fill:none;stroke:#000;stroke-width:20.83px;"/><path d="M2279.07,546.171c-110.773,40.041 -102.558,142.051 -51.169,182.629" style="fill:none;stroke:#000;stroke-width:20.83px;"/><path d="M2158.33,586.766c-96.17,39.362 -92.337,126.056 -49.695,167.04" style="fill:none;stroke:#000;stroke-width:20.83px;"/><path d="M2357.05,418.702c-99.161,46.384 -74.748,166.114 -43.759,195.549" style="fill:none;stroke:#000;stroke-width:20.83px;"/><path d="M2234.99,441.427c-99.161,46.384 -74.748,166.114 -43.759,195.548" style="fill:none;stroke:#000;stroke-width:20.83px;"/><path d="M2134.18,456.162c-99.162,46.384 -85.514,177.804 -54.525,207.239" style="fill:none;stroke:#000;stroke-width:20.83px;"/><path d="M2330.05,1123.41c-109.07,42.88 -92.628,132.164 -55.869,166.766" style="fill:none;stroke:#000;stroke-width:20.83px;"/><path d="M2421.89,1015.88c-109.07,42.881 -92.627,132.164 -55.868,166.766" style="fill:none;stroke:#000;stroke-width:20.83px;"/><path d="M2324.25,998.405c-109.07,42.88 -92.628,132.164 -55.868,166.766" style="fill:none;stroke:#000;stroke-width:20.83px;"/><path d="M2211.71,999.498c-92.651,43.487 -69.755,119.037 -50.415,152.995" style="fill:none;stroke:#000;stroke-width:20.83px;"/><path d="M2230.86,1106.75c-109.07,42.881 -114.902,156.58 -78.142,191.182" style="fill:none;stroke:#000;stroke-width:20.83px;"/><path d="M2134.88,1106.91c-109.07,42.88 -114.902,156.58 -78.142,191.182" style="fill:none;stroke:#000;stroke-width:20.83px;"/><path d="M2397.84,856.939c-125.144,41.36 -82.427,145.513 -27.163,181.865" style="fill:none;stroke:#000;stroke-width:20.83px;"/><path d="M2278.44,857.822c-60.457,19.981 -81.738,54.617 -81.354,89.183c0.41,36.985 25.624,73.892 54.19,92.682" style="fill:none;stroke:#000;stroke-width:20.83px;"/><path d="M2357.79,728.871c-125.145,41.36 -91.27,148.061 -36.005,184.412" style="fill:none;stroke:#000;stroke-width:20.83px;"/><path d="M2443.89,593.974c-125.145,41.361 -91.27,148.061 -36.006,184.413" style="fill:none;stroke:#000;stroke-width:20.83px;"/><path d="M2424.53,437.642c-78.584,46.691 -56.881,151.997 -36.005,184.413" style="fill:none;stroke:#000;stroke-width:20.83px;"/><path d="M2364.64,572.498c-78.585,46.69 -95.001,154.051 -74.125,186.467" style="fill:none;stroke:#000;stroke-width:20.83px;"/><path d="M2515.28,439.757c-91.013,53.301 -76.339,176.562 -36.005,184.412" style="fill:none;stroke:#000;stroke-width:20.83px;"/><path d="M2154.61,1784.97c-113.628,40.812 -67.524,154.481 -19.297,201.332" style="fill:none;stroke:#000;stroke-width:20.83px;"/><path d="M2696.75,886.008c-115.879,53.043 -66.099,166.418 -7.262,191.749" style="fill:none;stroke:#000;stroke-width:20.83px;"/><path d="M2619.21,974.267c-144.04,58.984 -86.491,175.198 3.887,193.876" style="fill:none;stroke:#000;stroke-width:20.83px;"/><path d="M2779.33,536.875c-113.306,51.433 -91.195,169.991 -33.173,202.775" style="fill:none;stroke:#000;stroke-width:20.83px;"/><path d="M2875.53,405.345c-102.456,48.573 -108.178,151.971 -55.906,182.505" style="fill:none;stroke:#000;stroke-width:20.83px;"/><path d="M2816.23,988.663c-82.579,30.298 -58.57,93.212 -25.523,144.151" style="fill:none;stroke:#000;stroke-width:20.83px;"/><path d="M2755.21,1009.08c-95.104,27.906 -56.149,108.545 -15.542,160.927" style="fill:none;stroke:#000;stroke-width:20.83px;"/><path d="M2693.33,1079.31c-106.738,42.189 -54.641,139.744 -6.516,182.895" style="fill:none;stroke:#000;stroke-width:20.83px;"/><path d="M2620.91,1168.27c-99.645,49.113 -65.273,119.914 -24.991,155.409" style="fill:none;stroke:#000;stroke-width:20.83px;"/><path d="M2548.55,1258.2c-107.038,42.203 -101.509,202.712 -53.455,245.473" style="fill:none;stroke:#000;stroke-width:20.83px;"/><path d="M2463.44,1442.27c-107.037,42.203 -63.565,160.421 -15.51,203.182" style="fill:none;stroke:#000;stroke-width:20.83px;"/><path d="M2348.54,1406.25c-118.467,57.353 -73.49,206.495 -6.867,224.643" style="fill:none;stroke:#000;stroke-width:20.83px;"/><path d="M2445.92,1244.02c-122.771,66.054 -108.127,229.209 -36.136,243.034" style="fill:none;stroke:#000;stroke-width:20.83px;"/><path d="M2532.57,1097.69c-108.799,70.438 -88.341,192.325 -48.971,200.957" style="fill:none;stroke:#000;stroke-width:20.83px;"/><path d="M2507.57,1028.02c-105.886,46.879 -88.286,107.91 -52.105,142.331" style="fill:none;stroke:#000;stroke-width:20.83px;"/><path d="M2544.53,884.751c-124.735,50.337 -60.869,126.728 -11.686,158.764" style="fill:none;stroke:#000;stroke-width:20.83px;"/><path d="M2628.26,801.13c-115.836,40.058 -73.576,138.091 -31.597,176.487" style="fill:none;stroke:#000;stroke-width:20.83px;"/><path d="M2565.97,706.666c-115.836,40.058 -96.094,150.399 -54.115,188.795" style="fill:none;stroke:#000;stroke-width:20.83px;"/><path d="M2403.36,1583.53c-95.3,22.856 -54.905,165.752 3.816,185.677" style="fill:none;stroke:#000;stroke-width:20.83px;"/><path d="M2354.85,1713.36c-95.301,22.856 -83.471,151.744 -24.75,171.669" style="fill:none;stroke:#000;stroke-width:20.83px;"/><path d="M2235.48,1688.75c-95.301,22.857 -83.471,151.744 -24.75,171.669" style="fill:none;stroke:#000;stroke-width:20.83px;"/><path d="M2280.72,1572.13c-88.524,42.05 -48.479,167.542 13.091,174.907" style="fill:none;stroke:#000;stroke-width:20.83px;"/><path d="M2275.86,1815.66c-95.301,22.856 -83.471,151.744 -24.75,171.668" style="fill:none;stroke:#000;stroke-width:20.83px;"/><path d="M2200.71,1913.8c-95.301,22.857 -73.571,170.719 -14.85,190.644" style="fill:none;stroke:#000;stroke-width:20.83px;"/><path d="M2241.11,2073.9c-109.419,24.514 -95.735,162.199 -31.892,181.522" style="fill:none;stroke:#000;stroke-width:20.83px;"/><path d="M2897.82,1150.75c-77.739,31.439 -79.07,89.741 -59.669,149.756" style="fill:none;stroke:#000;stroke-width:20.83px;"/><path d="M2816.65,1243.1c-106.497,24.592 -123.676,136.921 -80.363,202.63" style="fill:none;stroke:#000;stroke-width:20.83px;"/><path d="M2719.12,1516.06c-107.812,45.164 -69.33,167.822 -24.507,209.939" style="fill:none;stroke:#000;stroke-width:20.83px;"/><path d="M2594.39,1805.91c-107.812,45.164 -71.876,142.123 -27.053,184.24" style="fill:none;stroke:#000;stroke-width:20.83px;"/><path d="M2560.83,1661.24c-107.812,45.164 -71.876,142.123 -27.053,184.24" style="fill:none;stroke:#000;stroke-width:20.83px;"/><path d="M2453.69,1737.94c-107.812,45.164 -68.227,137.647 -23.405,179.765" style="fill:none;stroke:#000;stroke-width:20.83px;"/><path d="M2490.84,1617.37c-93.539,51.025 -40.059,124.634 -5.164,162.675" style="fill:none;stroke:#000;stroke-width:20.83px;"/><path d="M2632.07,1539.79c-107.812,45.164 -71.616,129.706 -26.794,171.824" style="fill:none;stroke:#000;stroke-width:20.83px;"/><path d="M2544.46,1467.8c-107.812,45.164 -48.886,159.988 -4.063,202.105" style="fill:none;stroke:#000;stroke-width:20.83px;"/><path d="M2622.7,1312.18c-107.812,45.164 -74.239,196.529 -29.417,238.646" style="fill:none;stroke:#000;stroke-width:20.83px;"/><path d="M2711.54,1398.26c-107.812,45.164 -101.327,130.546 -56.505,172.664" style="fill:none;stroke:#000;stroke-width:20.83px;"/><path d="M2709.31,1250.2c-107.813,45.164 -101.328,130.546 -56.505,172.663" style="fill:none;stroke:#000;stroke-width:20.83px;"/><path d="M2829.01,1120.84c-111.263,49.671 -143.397,135.291 -88.422,164.151" style="fill:none;stroke:#000;stroke-width:20.83px;"/><path d="M2513.01,1837.12c-107.812,45.164 -85.357,136.116 -40.535,178.233" style="fill:none;stroke:#000;stroke-width:20.83px;"/><path d="M2387.06,1842.96c-107.812,45.165 -72.249,134.344 -27.426,176.461" style="fill:none;stroke:#000;stroke-width:20.83px;"/><path d="M2604.56,1976.45c-107.813,45.164 -49.82,134.329 -4.998,176.446" style="fill:none;stroke:#000;stroke-width:20.83px;"/><path d="M2540.78,1974.09c-120.096,39.109 -58.664,147.518 -4.288,194.345" style="fill:none;stroke:#000;stroke-width:20.83px;"/><path d="M2438.03,1970.71c-120.096,39.109 -58.664,147.518 -4.288,194.344" style="fill:none;stroke:#000;stroke-width:20.83px;"/><path d="M2309.96,1949.22c-120.096,39.11 -58.664,147.518 -4.287,194.345" style="fill:none;stroke:#000;stroke-width:20.83px;"/><path d="M2570.65,2119.25c-70.865,60.618 3.945,84.466 18.677,102.266" style="fill:none;stroke:#000;stroke-width:20.83px;"/><path d="M2482.1,2118.26c-70.866,60.619 3.945,84.467 18.676,102.266" style="fill:none;stroke:#000;stroke-width:20.83px;"/><path d="M2662.4,1676.76c-107.813,45.164 -73.91,148.895 -29.087,191.013" style="fill:none;stroke:#000;stroke-width:20.83px;"/><path d="M3318.24,627.434c-133.509,53.203 -95.237,162.656 -5.799,197.713" style="fill:none;stroke:#000;stroke-width:20.83px;"/><path d="M3204.34,565.128c-99.844,64.939 -80.917,164.652 -28.943,186.649" style="fill:none;stroke:#000;stroke-width:20.83px;"/><path d="M3239.46,905.469c-113.406,54.524 -85.788,157.162 -19.647,190.688" style="fill:none;stroke:#000;stroke-width:20.83px;"/><path d="M3115.69,910.356c-101.825,56.92 -41.988,146.232 8.287,176.476" style="fill:none;stroke:#000;stroke-width:20.83px;"/><path d="M3206.29,1121.66c-106.291,45.686 -95.134,140.419 -38.322,185.535" style="fill:none;stroke:#000;stroke-width:20.83px;"/><path d="M3100.28,1167.18c-89.213,41.318 -88.047,75.66 -51.844,128.244" style="fill:none;stroke:#000;stroke-width:20.83px;"/><path d="M3173.48,1067.32c-81.687,27.359 -84.074,68.291 -51.845,128.244" style="fill:none;stroke:#000;stroke-width:20.83px;"/><path d="M3011.54,1157.92c-88.082,36.017 -106.479,86.754 -66.306,135.953" style="fill:none;stroke:#000;stroke-width:20.83px;"/><path d="M3188.33,1471.27c-106.292,45.686 -96.137,108.434 -39.325,153.55" style="fill:none;stroke:#000;stroke-width:20.83px;"/><path d="M3217.73,1573.52c-106.291,45.686 -68.611,113.174 -11.799,158.289" style="fill:none;stroke:#000;stroke-width:20.83px;"/><path d="M3175.82,1710.5c-113.622,49.284 -90.031,148.723 -27.421,190.992" style="fill:none;stroke:#000;stroke-width:20.83px;"/><path d="M3189.97,1880.53c-109.431,50.039 -0.576,167.104 50.965,186.988" style="fill:none;stroke:#000;stroke-width:20.83px;"/><path d="M3224.21,2058.9c-63.481,80.398 15.922,162.148 44.182,164.389" style="fill:none;stroke:#000;stroke-width:20.83px;"/><path d="M3201.85,2170.23c-87.623,37.041 -66.214,149.599 -24.778,175.5" style="fill:none;stroke:#000;stroke-width:20.83px;"/><path d="M3159.84,2003.6c-103.34,35.307 -71.761,176.191 -11.613,204.157" style="fill:none;stroke:#000;stroke-width:20.83px;"/><path d="M3064,2021.56c-103.339,35.307 -71.76,176.191 -11.613,204.156" style="fill:none;stroke:#000;stroke-width:20.83px;"/><path d="M2959.96,1981.96c-103.339,35.308 -71.76,176.191 -11.613,204.157" style="fill:none;stroke:#000;stroke-width:20.83px;"/><path d="M2855.99,1924.44c-120.32,27.936 -88.64,171.728 -19.259,203.701" style="fill:none;stroke:#000;stroke-width:20.83px;"/><path d="M2734.19,1947.45c-120.32,27.936 -88.64,171.728 -19.259,203.701" style="fill:none;stroke:#000;stroke-width:20.83px;"/><path d="M2892.85,2096.03c-103.339,35.307 -79.664,146.351 -19.517,174.316" style="fill:none;stroke:#000;stroke-width:20.83px;"/><path d="M2789.14,2085.78c-103.34,35.307 -79.665,146.351 -19.517,174.317" style="fill:none;stroke:#000;stroke-width:20.83px;"/><path d="M2666.92,2102.43c-103.34,35.307 -79.665,146.351 -19.517,174.316" style="fill:none;stroke:#000;stroke-width:20.83px;"/><path d="M2668.87,1847.87c-103.34,35.307 -79.665,146.351 -19.517,174.316" style="fill:none;stroke:#000;stroke-width:20.83px;"/><path d="M3122.09,2177.84c-103.339,35.307 -71.761,176.191 -11.613,204.157" style="fill:none;stroke:#000;stroke-width:20.83px;"/><path d="M3051.63,2230.96c-103.339,35.307 -63.472,129.679 -3.325,157.645" style="fill:none;stroke:#000;stroke-width:20.83px;"/><path d="M2997.49,2167.07c-103.34,35.307 -71.761,176.191 -11.613,204.156" style="fill:none;stroke:#000;stroke-width:20.83px;"/><path d="M2923.27,2247.63c-114.703,29.856 -77.152,132.749 -12.653,162.801" style="fill:none;stroke:#000;stroke-width:20.83px;"/><path d="M2827.53,2242.44c-114.704,29.856 -77.152,132.749 -12.653,162.802" style="fill:none;stroke:#000;stroke-width:20.83px;"/><path d="M2724.3,2223.39c-114.703,29.856 -72.325,152.031 -7.827,182.083" style="fill:none;stroke:#000;stroke-width:20.83px;"/><path d="M2593.28,2219.01c-114.703,29.856 -72.325,152.031 -7.827,182.084" style="fill:none;stroke:#000;stroke-width:20.83px;"/><path d="M2554.89,2164.71c-83.79,29.156 -68.628,114.848 -39.451,145.7" style="fill:none;stroke:#000;stroke-width:20.83px;"/><path d="M2456.75,2162.85c-83.79,29.156 -38.769,167.12 -9.591,197.972" style="fill:none;stroke:#000;stroke-width:20.83px;"/><path d="M2365.22,2094.69c-112.261,52.166 -100.022,229.894 -31.618,229.044" style="fill:none;stroke:#000;stroke-width:20.83px;"/><path d="M3025.53,1848.06c-103.339,35.307 -71.76,176.191 -11.613,204.156" style="fill:none;stroke:#000;stroke-width:20.83px;"/><path d="M3025.53,1848.06c-103.339,35.307 -71.76,176.191 -11.613,204.156" style="fill:none;stroke:#000;stroke-width:20.83px;"/><path d="M2926.43,1817.62c-103.339,35.307 -75.762,169.728 -15.614,197.694" style="fill:none;stroke:#000;stroke-width:20.83px;"/><path d="M2804.75,1819.91c-103.34,35.308 -89.869,144.537 -29.721,172.503" style="fill:none;stroke:#000;stroke-width:20.83px;"/><path d="M2737.12,1711.09c-103.339,35.307 -75.905,152.784 -15.758,180.749" style="fill:none;stroke:#000;stroke-width:20.83px;"/><path d="M2877.01,1710.75c-103.34,35.307 -82.688,176.588 -22.541,204.554" style="fill:none;stroke:#000;stroke-width:20.83px;"/><path d="M3106.79,1848.95c-103.339,35.307 -71.761,176.191 -11.613,204.157" style="fill:none;stroke:#000;stroke-width:20.83px;"/><path d="M3302.57,2171.78c-63.988,73.909 3.647,151.558 32.348,159.445" style="fill:none;stroke:#000;stroke-width:20.83px;"/><path d="M3611.85,1032.46c-113.406,54.524 -59.778,178.192 6.363,211.718" style="fill:none;stroke:#000;stroke-width:20.83px;"/><path d="M3539.33,915.985c-113.406,54.524 -59.778,178.192 6.363,211.718" style="fill:none;stroke:#000;stroke-width:20.83px;"/><path d="M3529.57,1127.59c-113.406,54.524 -59.778,178.191 6.363,211.718" style="fill:none;stroke:#000;stroke-width:20.83px;"/><path d="M3449.93,1222.38c-113.406,54.524 -59.778,178.192 6.363,211.718" style="fill:none;stroke:#000;stroke-width:20.83px;"/><path d="M3463.13,1012.06c-113.406,54.523 -67.28,169.878 -1.138,203.404" style="fill:none;stroke:#000;stroke-width:20.83px;"/><path d="M3385.57,1112.32c-113.405,54.524 -67.279,169.879 -1.138,203.405" style="fill:none;stroke:#000;stroke-width:20.83px;"/><path d="M3377.02,1321.13c-113.406,54.524 -77.275,174.729 -11.134,208.255" style="fill:none;stroke:#000;stroke-width:20.83px;"/><path d="M3310.34,1209.6c-122.537,57.91 -88.843,177.26 -14.444,207.723" style="fill:none;stroke:#000;stroke-width:20.83px;"/><path d="M3262.52,1393.92c-116.632,57.046 -78.126,172.586 -7.593,203.615" style="fill:none;stroke:#000;stroke-width:20.83px;"/><path d="M3229.35,1270.71c-128.33,43.593 -112.551,162.456 -42.1,201.186" style="fill:none;stroke:#000;stroke-width:20.83px;"/><path d="M3992.18,1549.58c-107.742,-10.189 -203.114,65.062 -212.843,167.94c-9.729,102.878 69.846,194.674 177.589,204.863c107.743,10.189 203.115,-65.063 212.843,-167.941c9.729,-102.878 -69.846,-194.673 -177.589,-204.862Z" style="fill:#fff;stroke:#000;stroke-width:1px;"/><path d="M3901.97,1647.83c-32.536,-3.077 -61.45,20.841 -64.526,53.377c-3.077,32.536 20.84,61.449 53.376,64.526c32.536,3.077 61.449,-20.84 64.526,-53.377c3.077,-32.536 -20.84,-61.449 -53.376,-64.526Z" style="stroke:#000;stroke-width:1px;"/><path d="M2761.06,2389.07l-419.734,9.737l-591.663,580.292l-530.824,-217.906l-324.433,920.644l240.358,54.432l194.141,-629.824l493.543,149.813l803.067,-619.079l279.064,481.757l-587.851,761.221l116.552,129.139l781.303,6.454l48.091,-229.292l-555.006,-88.623l462.268,-575.424l-408.876,-733.341Z"/></g></svg>