<?xml version="1.0" encoding="UTF-8" standalone="no"?><!DOCTYPE svg PUBLIC "-//W3C//DTD SVG 1.1//EN" "http://www.w3.org/Graphics/SVG/1.1/DTD/svg11.dtd"><svg width="100%" height="100%" viewBox="0 0 4820 4016" version="1.1" xmlns="http://www.w3.org/2000/svg" xmlns:xlink="http://www.w3.org/1999/xlink" xml:space="preserve" xmlns:serif="http://www.serif.com/" style="fill-rule:evenodd;clip-rule:evenodd;stroke-linecap:round;stroke-linejoin:round;stroke-miterlimit:1.5;"><rect id="Artboard2" x="0" y="0" width="4819.65" height="4015.75" style="fill:none;"/><clipPath id="_clip1"><rect x="0" y="0" width="4819.65" height="4015.75"/></clipPath><g clip-path="url(#_clip1)"><g><path d="M795.147,1573.16l-219.489,-0.9" style="fill:none;stroke:#000;stroke-width:20.83px;"/><path d="M723.262,1618.63l-355.695,-9.765" style="fill:none;stroke:#000;stroke-width:20.83px;"/><path d="M712.232,1909c-87.487,28.409 -162.523,63.031 -223.997,104.42" style="fill:none;stroke:#000;stroke-width:20.83px;"/><path d="M683.111,1876.17c-87.487,28.409 -162.523,63.031 -223.996,104.42" style="fill:none;stroke:#000;stroke-width:20.83px;"/><path d="M665.668,1826.03c-87.487,28.409 -192.603,67.824 -254.077,109.212" style="fill:none;stroke:#000;stroke-width:20.83px;"/><path d="M645.54,1781.03c-87.488,28.409 -291.587,96.147 -353.06,137.535" style="fill:none;stroke:#000;stroke-width:20.83px;"/><path d="M645.229,1780.12c-93.849,8.622 -449.587,61.593 -505.795,119.36" style="fill:none;stroke:#000;stroke-width:20.83px;"/><path d="M637.516,1749.01c-93.85,8.621 -580.346,62.094 -636.553,119.862" style="fill:none;stroke:#000;stroke-width:20.83px;"/><path d="M631.543,1711.49c-78.019,6.629 -570.401,-10.404 -631.543,47.984" style="fill:none;stroke:#000;stroke-width:20.83px;"/><path d="M637.741,1665.37c-78.02,6.629 -570.402,-10.404 -631.544,47.984" style="fill:none;stroke:#000;stroke-width:20.83px;"/><path d="M780.484,2039.5c-159.973,99.588 -303.909,218.178 -436.282,350.468" style="fill:none;stroke:#000;stroke-width:20.83px;"/><path d="M759.818,2008.85c-160.71,91.4 -297.418,193.127 -412.442,304.184" style="fill:none;stroke:#000;stroke-width:20.83px;"/><path d="M744.969,1980.47c-129.977,63.838 -253.074,139.941 -370.604,225.968" style="fill:none;stroke:#000;stroke-width:20.83px;"/><path d="M340.351,2562.39c147.601,-196.524 312.03,-361.613 497.269,-487.825" style="fill:none;stroke:#000;stroke-width:20.83px;"/><path d="M354.598,2453.67c147.601,-196.524 298.012,-253.904 483.251,-380.116" style="fill:none;stroke:#000;stroke-width:20.83px;"/><path d="M722.219,1956.74c-111.099,39.428 -216.78,98.294 -318.472,171.47" style="fill:none;stroke:#000;stroke-width:20.83px;"/><path d="M839.298,2076.43c-116.164,177.282 -256.812,318.037 -398.596,457.096" style="fill:none;stroke:#000;stroke-width:20.83px;"/><path d="M1572.09,2213.94c-93.17,162.458 -251.239,277.413 -367.684,258.893" style="fill:none;stroke:#000;stroke-width:20.83px;"/><path d="M1484.3,2202.99c-113.543,149.053 -223.614,219.376 -320.977,213.412" style="fill:none;stroke:#000;stroke-width:20.83px;"/><path d="M1435.32,2159.4c-113.543,149.053 -190.024,175.798 -287.387,169.835" style="fill:none;stroke:#000;stroke-width:20.83px;"/><path d="M1362.63,2118.93c-81.193,126.558 -135.884,149.266 -205.507,144.203" style="fill:none;stroke:#000;stroke-width:20.83px;"/><path d="M1315.53,2080.99c-59.965,104.093 -100.356,122.771 -151.776,118.606" style="fill:none;stroke:#000;stroke-width:20.83px;"/><path d="M1297.44,2063.71c-73.693,81.915 -111.237,72.807 -153.871,82.838" style="fill:none;stroke:#000;stroke-width:20.83px;"/><path d="M3356.52,2417.41c46.254,183.765 87.599,365.714 34.475,450.855" style="fill:none;stroke:#000;stroke-width:20.83px;"/><path d="M3356.52,2417.41c46.254,183.765 87.599,365.714 34.475,450.855" style="fill:none;stroke:#000;stroke-width:20.83px;"/><path d="M3289.28,2447.52c73.924,156.253 79.614,378.819 16.957,450.481" style="fill:none;stroke:#000;stroke-width:20.83px;"/><path d="M3234.99,2458.09c80.306,111.301 65.277,381.357 -3.567,416.153" style="fill:none;stroke:#000;stroke-width:20.83px;"/><path d="M3235.08,2458.96c13.727,200.896 -29.071,435.382 -102.043,414.069" style="fill:none;stroke:#000;stroke-width:20.83px;"/><path d="M3180.41,2502.94c13.727,200.896 -64.737,333.548 -137.709,312.235" style="fill:none;stroke:#000;stroke-width:20.83px;"/><path d="M3145.84,2520.93c-14.049,183.631 -114.303,251.133 -157.938,248.055" style="fill:none;stroke:#000;stroke-width:20.83px;"/><path d="M3144.96,2521.23c-75.108,168.29 -172.513,181.636 -174.736,188.962" style="fill:none;stroke:#000;stroke-width:20.83px;"/><path d="M3144.96,2521.23c-75.108,168.29 -172.513,181.636 -174.736,188.962" style="fill:none;stroke:#000;stroke-width:20.83px;"/><path d="M3142.88,2524.35c-94.123,140.73 -246.567,159.783 -256.224,144.16" style="fill:none;stroke:#000;stroke-width:20.83px;"/><path d="M2954.44,610.466c-147.088,-117.521 -386.186,-134.493 -626.579,-102.213" style="fill:none;stroke:#000;stroke-width:20.83px;"/><path d="M2520.69,607.741c-136.602,-103.106 -230.839,-64.081 -477.297,-60.089" style="fill:none;stroke:#000;stroke-width:20.83px;"/><path d="M2196.86,645.058c-147.788,-71.143 -210.244,-50.175 -344.908,-46.276" style="fill:none;stroke:#000;stroke-width:20.83px;"/><path d="M2069.95,688.636c-147.789,-71.142 -210.244,-50.174 -344.908,-46.276" style="fill:none;stroke:#000;stroke-width:20.83px;"/><path d="M1943.49,750.204c-147.789,-71.143 -210.244,-50.174 -344.908,-46.276" style="fill:none;stroke:#000;stroke-width:20.83px;"/><path d="M1840.93,821.609c-115.828,-97.447 -181.381,-82.02 -339.333,-72.722" style="fill:none;stroke:#000;stroke-width:20.83px;"/><path d="M1718.65,862.631c-107.819,-89.587 -111.331,-69.427 -274.92,-65.662" style="fill:none;stroke:#000;stroke-width:20.83px;"/><path d="M1666.39,907.563c-107.819,-89.588 -111.331,-69.428 -274.92,-65.662" style="fill:none;stroke:#000;stroke-width:20.83px;"/><path d="M1559.47,909.964c-3.986,-25.718 -101.216,-24.557 -219.406,-22.969" style="fill:none;stroke:#000;stroke-width:20.83px;"/><path d="M1508.97,937.552c-3.985,-24.516 -102.341,-24.424 -220.531,-23.309" style="fill:none;stroke:#000;stroke-width:20.83px;"/><path d="M1456.61,986.043c-3.985,-25.718 -98.785,-32.572 -216.975,-30.985" style="fill:none;stroke:#000;stroke-width:20.83px;"/><path d="M1381.59,1044.88c-3.985,-25.718 -93.962,-34.051 -212.152,-32.463" style="fill:none;stroke:#000;stroke-width:20.83px;"/><path d="M1349.1,1093.22c-3.986,-25.717 -82.741,-27.106 -200.931,-25.518" style="fill:none;stroke:#000;stroke-width:20.83px;"/><path d="M1274.24,1150.85c-15.204,-33.597 -146.699,-37.294 -220.31,-4.395" style="fill:none;stroke:#000;stroke-width:20.83px;"/><path d="M1244.81,1204.36c-42.448,-32.386 -172.961,-19.874 -187.263,-0.276" style="fill:none;stroke:#000;stroke-width:20.83px;"/><path d="M1189.48,1243.25c-48.653,-23.493 -177.937,44.866 -165.106,48.909" style="fill:none;stroke:#000;stroke-width:20.83px;"/><path d="M2391.27,619.309c-116.397,-65.953 -149.604,-49.103 -410.905,-67.286" style="fill:none;stroke:#000;stroke-width:20.83px;"/><path d="M2707.65,584.811c-154.997,-92.721 -288.414,-68.934 -519.965,-64.376" style="fill:none;stroke:#000;stroke-width:20.83px;"/><path d="M3069.22,1829.15c-76.044,55.457 -40.313,159.577 7.404,175.1" style="fill:none;stroke:#000;stroke-width:20.83px;"/><path d="M2979.01,1836.25c-76.045,55.456 -40.313,159.577 7.404,175.099" style="fill:none;stroke:#000;stroke-width:20.83px;"/><path d="M2928.62,1676.49c-107.026,48.143 -70.096,202.54 3.584,224.192" style="fill:none;stroke:#000;stroke-width:20.83px;"/><path d="M2803.8,1700.8c-107.025,48.143 -70.096,202.541 3.584,224.192" style="fill:none;stroke:#000;stroke-width:20.83px;"/><path d="M3101.37,1521.63c-87.843,26.313 -106.302,163.8 -48.12,205.172" style="fill:none;stroke:#000;stroke-width:20.83px;"/><path d="M3078.58,1361.38c-87.843,26.313 -96.115,151.877 -37.933,193.249" style="fill:none;stroke:#000;stroke-width:20.83px;"/><path d="M2998.66,1153.44c-87.843,26.313 -62.079,133.977 -3.896,175.348" style="fill:none;stroke:#000;stroke-width:20.83px;"/><path d="M2970.85,1387.98c-87.843,26.313 -96.116,151.877 -37.933,193.248" style="fill:none;stroke:#000;stroke-width:20.83px;"/><path d="M2999.49,1512.57c-87.843,26.313 -87.059,184.15 -28.876,225.522" style="fill:none;stroke:#000;stroke-width:20.83px;"/><path d="M2898.58,1534.19c-103.521,20.382 -118.134,185.963 -43.863,233.42" style="fill:none;stroke:#000;stroke-width:20.83px;"/><path d="M2796.9,1548.43c-103.52,20.383 -122.155,141.191 -47.884,188.648" style="fill:none;stroke:#000;stroke-width:20.83px;"/><path d="M2878.49,1395.15c-103.521,20.382 -122.155,141.19 -47.884,188.648" style="fill:none;stroke:#000;stroke-width:20.83px;"/><path d="M2936.42,1153.03c-103.52,20.382 -122.155,141.19 -47.884,188.648" style="fill:none;stroke:#000;stroke-width:20.83px;"/><path d="M2980.13,982.115c-103.521,20.382 -98.623,140.387 -24.352,187.844" style="fill:none;stroke:#000;stroke-width:20.83px;"/><path d="M3073.78,968.772c-62.761,48.173 -18.16,84.654 23.533,109.9" style="fill:none;stroke:#000;stroke-width:20.83px;"/><path d="M3019.99,1694.54c-85.545,27.902 -50.059,149.429 5.109,188.717" style="fill:none;stroke:#000;stroke-width:20.83px;"/><path d="M3094.35,1697.63c-82.759,37.614 -31.914,142.289 18.061,171.902" style="fill:none;stroke:#000;stroke-width:20.83px;"/><path d="M3246.87,1126.7c-122.516,50.581 -112.308,177.24 -31.541,212.493" style="fill:none;stroke:#000;stroke-width:20.83px;"/><path d="M3316.82,1031.84c-116.541,69.19 -67.248,154.426 9.689,177.75" style="fill:none;stroke:#000;stroke-width:20.83px;"/><path d="M3387.97,924.929c-116.541,69.19 -69.293,142.608 7.643,165.932" style="fill:none;stroke:#000;stroke-width:20.83px;"/><path d="M4819.65,1927.92c-349.345,-357.635 -766.003,-641.739 -1105.19,-714.423c-288.109,122.833 -469.158,302.888 -517.636,553.801c-4.305,284.547 41.555,524.573 300.68,575.324c254.721,32.394 1054.74,-142.674 1250.93,-284.667l-260.048,24.167c119.506,-24.525 331.265,-154.202 331.265,-154.202Z" style="stroke:#000;stroke-width:20.83px;"/><path d="M3769.94,1075.25c-63.322,47.838 -90.62,95.089 -72.339,141.598" style="fill:none;stroke:#000;stroke-width:20.83px;"/><path d="M3660.07,1056.02c-77.236,52.634 -48.808,137.134 -11.613,177.124" style="fill:none;stroke:#000;stroke-width:20.83px;"/><path d="M3578.39,941.248c-107.769,64.959 -42.736,183.028 26.268,210.179" style="fill:none;stroke:#000;stroke-width:20.83px;"/><path d="M3512.01,842.668c-107.769,64.958 -60.505,155.372 8.499,182.523" style="fill:none;stroke:#000;stroke-width:20.83px;"/><path d="M3451.46,808.473c-107.769,64.958 -60.504,155.373 8.5,182.523" style="fill:none;stroke:#000;stroke-width:20.83px;"/><path d="M3350.76,747.99c-107.768,64.959 -31.805,151.853 37.199,179.004" style="fill:none;stroke:#000;stroke-width:20.83px;"/><path d="M3264.74,730.584c-58.335,65.473 1.597,77.53 31.208,103.677" style="fill:none;stroke:#000;stroke-width:20.83px;"/><path d="M3120.83,683.069c-23.809,70.873 13.919,79.278 23.951,101.866" style="fill:none;stroke:#000;stroke-width:20.83px;"/><path d="M3029.92,641.204c-55.458,68.655 -14.559,83.182 11.403,106.508" style="fill:none;stroke:#000;stroke-width:20.83px;"/><path d="M3292.7,830.584c-107.769,64.959 -45.055,165.148 23.949,192.298" style="fill:none;stroke:#000;stroke-width:20.83px;"/><path d="M3229.65,933.691c-107.769,64.958 -56.163,170.23 12.841,197.38" style="fill:none;stroke:#000;stroke-width:20.83px;"/><path d="M3127.49,834.536c-107.769,64.958 -56.163,170.23 12.841,197.38" style="fill:none;stroke:#000;stroke-width:20.83px;"/><path d="M3032.66,834.319c-107.769,64.959 -56.164,170.23 12.84,197.38" style="fill:none;stroke:#000;stroke-width:20.83px;"/><path d="M3003.11,709.57c-86.543,54.672 -74.819,143.11 -28.643,181.323" style="fill:none;stroke:#000;stroke-width:20.83px;"/><path d="M2937.05,825.513c-99.137,49.328 -66.733,132.525 -8.303,175.938" style="fill:none;stroke:#000;stroke-width:20.83px;"/><path d="M2884.1,975.641c-99.136,49.328 -57.725,151.907 0.705,195.321" style="fill:none;stroke:#000;stroke-width:20.83px;"/><path d="M2837.3,1126.62c-99.137,49.327 -89.099,141.277 -30.669,184.691" style="fill:none;stroke:#000;stroke-width:20.83px;"/><path d="M2768.78,962.787c-99.137,49.327 -49.53,161.131 8.9,204.544" style="fill:none;stroke:#000;stroke-width:20.83px;"/><path d="M2818.33,836.359c-99.137,49.327 -46.367,140.003 12.063,183.417" style="fill:none;stroke:#000;stroke-width:20.83px;"/><path d="M2895.43,716.221c-100.847,54.324 -83.007,146.484 -23.143,182.581" style="fill:none;stroke:#000;stroke-width:20.83px;"/><path d="M2958.18,613.747c-78.351,59.708 -64.247,126.387 -21.041,149.076" style="fill:none;stroke:#000;stroke-width:20.83px;"/><path d="M2869.61,588.049c-82.133,60.087 -84.056,153.21 -38.765,176.043" style="fill:none;stroke:#000;stroke-width:20.83px;"/><path d="M2798.34,675.43c-104.41,45.795 -96.45,163.463 -35.598,203.801" style="fill:none;stroke:#000;stroke-width:20.83px;"/><path d="M2717.03,806.121c-104.41,45.796 -57.295,155.166 3.557,195.504" style="fill:none;stroke:#000;stroke-width:20.83px;"/><path d="M2684.74,966.667c-117.163,38.021 -51.295,162.214 16.196,206.599" style="fill:none;stroke:#000;stroke-width:20.83px;"/><path d="M2590.97,832.136c-110.37,63.718 -38.818,188.91 22.143,208.59" style="fill:none;stroke:#000;stroke-width:20.83px;"/><path d="M2548.82,750.841c-110.371,63.717 -76.445,165.567 -15.484,185.247" style="fill:none;stroke:#000;stroke-width:20.83px;"/><path d="M2548.82,750.841c-110.371,63.717 -76.445,165.567 -15.484,185.247" style="fill:none;stroke:#000;stroke-width:20.83px;"/><path d="M2605.9,596.79c-85.723,68.524 -57.006,169.358 -15.484,185.247" style="fill:none;stroke:#000;stroke-width:20.83px;"/><path d="M2519.78,613.444c-85.724,68.524 -74.58,164.75 -33.058,180.639" style="fill:none;stroke:#000;stroke-width:20.83px;"/><path d="M2448.88,733.536c-85.723,68.523 -74.579,164.75 -33.057,180.639" style="fill:none;stroke:#000;stroke-width:20.83px;"/><path d="M2381.81,894.766c-85.723,68.524 -74.579,164.75 -33.057,180.639" style="fill:none;stroke:#000;stroke-width:20.83px;"/><path d="M2398.28,1043.42c-103.813,40.445 -69.085,134.882 -3.972,187.387" style="fill:none;stroke:#000;stroke-width:20.83px;"/><path d="M2375.24,1314.26c-83.472,39.949 -75.664,123.571 -34.338,176.656" style="fill:none;stroke:#000;stroke-width:20.83px;"/><path d="M2308.62,1441.35c-118.04,48.966 -124.746,200.147 -56.339,246.168" style="fill:none;stroke:#000;stroke-width:20.83px;"/><path d="M2209.5,1625.72c-116.579,56.379 -57.271,183.928 8.537,216.768" style="fill:none;stroke:#000;stroke-width:20.83px;"/><path d="M2154.66,1778.14c-116.579,56.379 -56.8,155.7 9.009,188.54" style="fill:none;stroke:#000;stroke-width:20.83px;"/><path d="M2096.03,1900.99c-94.926,64.242 -42.321,154.069 0.626,171.311" style="fill:none;stroke:#000;stroke-width:20.83px;"/><path d="M1954.27,1840.1c-94.926,64.242 -22.529,158.751 20.417,175.992" style="fill:none;stroke:#000;stroke-width:20.83px;"/><path d="M1920.41,1978.42c-94.926,64.242 -42.321,154.069 0.626,171.311" style="fill:none;stroke:#000;stroke-width:20.83px;"/><path d="M1871,1841.68c-94.926,64.242 -42.321,154.069 0.626,171.311" style="fill:none;stroke:#000;stroke-width:20.83px;"/><path d="M1802.93,1715.77c-111.005,31.478 -40.793,171.479 4.16,198.969" style="fill:none;stroke:#000;stroke-width:20.83px;"/><path d="M1972.59,2106.54c-94.927,64.242 -42.322,154.069 0.625,171.311" style="fill:none;stroke:#000;stroke-width:20.83px;"/><path d="M2033.3,2217.76c-94.927,64.242 -41.643,194.67 1.304,211.911" style="fill:none;stroke:#000;stroke-width:20.83px;"/><path d="M1915.41,2159.49c-128.074,77.7 -76.14,223.66 6.184,224.914" style="fill:none;stroke:#000;stroke-width:20.83px;"/><path d="M1860.62,2063.33c-109.486,59.588 -73.636,149.707 -23.802,182.619" style="fill:none;stroke:#000;stroke-width:20.83px;"/><path d="M1818.68,1919.61c-109.485,59.587 -73.636,149.707 -23.802,182.618" style="fill:none;stroke:#000;stroke-width:20.83px;"/><path d="M2083.44,2251.79c-94.927,64.242 -24.818,156.789 18.129,174.03" style="fill:none;stroke:#000;stroke-width:20.83px;"/><path d="M2136.85,2190.66c-94.926,64.242 -42.321,154.07 0.625,171.311" style="fill:none;stroke:#000;stroke-width:20.83px;"/><path d="M2086.79,2084.05c-94.926,64.242 -47.103,152.251 -4.156,169.492" style="fill:none;stroke:#000;stroke-width:20.83px;"/><path d="M2036.65,1975.91c-112.03,53.651 -56.953,149.348 -6.143,171.459" style="fill:none;stroke:#000;stroke-width:20.83px;"/><path d="M2053.97,1778.26c-112.03,53.651 -56.953,149.348 -6.143,171.459" style="fill:none;stroke:#000;stroke-width:20.83px;"/><path d="M2005.35,1676.36c-103.543,53.962 -58.685,168.457 -16.859,190.238" style="fill:none;stroke:#000;stroke-width:20.83px;"/><path d="M1887.82,1663.6c-103.542,53.962 -17.604,176.903 24.221,198.684" style="fill:none;stroke:#000;stroke-width:20.83px;"/><path d="M1877.16,1519.06c-116.427,40.997 -102.5,176.944 -43.507,211.981" style="fill:none;stroke:#000;stroke-width:20.83px;"/><path d="M1771.26,1519.94c-116.427,40.997 -86.132,200.378 -27.138,235.415" style="fill:none;stroke:#000;stroke-width:20.83px;"/><path d="M1692.42,1679.02c-116.427,40.997 -66.089,185.389 -7.095,220.426" style="fill:none;stroke:#000;stroke-width:20.83px;"/><path d="M1752.85,1862.7c-116.427,40.998 -61.957,145.304 -2.963,180.34" style="fill:none;stroke:#000;stroke-width:20.83px;"/><path d="M1636.8,1841.43c-101.145,40.997 -58.516,142.482 -13.399,177.519" style="fill:none;stroke:#000;stroke-width:20.83px;"/><path d="M1513.63,1856.05c-106.707,59.611 -58.115,181.585 -3.799,185.842" style="fill:none;stroke:#000;stroke-width:20.83px;"/><path d="M1416.61,1837.79c-82.598,49.884 -61.207,176.82 -18.904,185.924" style="fill:none;stroke:#000;stroke-width:20.83px;"/><path d="M1316.82,1846.02c-80.999,37.03 -66.83,138.986 -25.211,153.588" style="fill:none;stroke:#000;stroke-width:20.83px;"/><path d="M1353.78,1959.48c-108.117,38.143 -43.015,150.979 28.616,164.349" style="fill:none;stroke:#000;stroke-width:20.83px;"/><path d="M1246.61,1934.12c-83.338,39.744 -17.092,123.3 34.235,135.358" style="fill:none;stroke:#000;stroke-width:20.83px;"/><path d="M1206.12,1858.15c-110.037,42.337 -77.095,146.512 -2.86,156.346" style="fill:none;stroke:#000;stroke-width:20.83px;"/><path d="M1137.39,1780.34c-89.772,25.797 -54.486,128.058 -2.859,156.346" style="fill:none;stroke:#000;stroke-width:20.83px;"/><path d="M1051.58,1782.6c-93.252,33.095 -58.395,164.883 4.317,169.918" style="fill:none;stroke:#000;stroke-width:20.83px;"/><path d="M957.198,1770.32c-93.252,33.095 -74.955,171.388 -12.243,176.423" style="fill:none;stroke:#000;stroke-width:20.83px;"/><path d="M895.269,1637.24c-93.252,33.095 -62.588,177.881 0.124,182.915" style="fill:none;stroke:#000;stroke-width:20.83px;"/><path d="M993.522,1914.82c-93.252,33.095 -46.924,187.154 15.788,192.189" style="fill:none;stroke:#000;stroke-width:20.83px;"/><path d="M939.92,2006.6c-70.444,33.594 -44.101,150.79 -4.921,155.309" style="fill:none;stroke:#000;stroke-width:20.83px;"/><path d="M897.568,1909.11c-70.444,33.595 -31.415,120.671 7.765,125.191" style="fill:none;stroke:#000;stroke-width:20.83px;"/><path d="M851.805,1794.57c-70.444,33.595 -31.637,157.557 7.543,162.077" style="fill:none;stroke:#000;stroke-width:20.83px;"/><path d="M1003.52,1630.86c-93.252,33.095 -58.395,164.883 4.317,169.917" style="fill:none;stroke:#000;stroke-width:20.83px;"/><path d="M957.427,1473.07c-119.312,26.995 -91.324,185.74 -8.154,195.564" style="fill:none;stroke:#000;stroke-width:20.83px;"/><path d="M1004.71,1413.8c-71.879,33.091 -35.673,128.946 4.287,133.985" style="fill:none;stroke:#000;stroke-width:20.83px;"/><path d="M871.628,1450.17c-71.879,33.091 -35.673,128.946 4.287,133.985" style="fill:none;stroke:#000;stroke-width:20.83px;"/><path d="M833.392,1550.99c-85.669,37.731 -60.855,170.412 -7.598,170.977" style="fill:none;stroke:#000;stroke-width:20.83px;"/><path d="M796.738,1707.86c-85.669,37.731 -41.341,153.971 11.917,154.535" style="fill:none;stroke:#000;stroke-width:20.83px;"/><path d="M1098.4,1921.36c-89.772,25.797 -21.947,145.052 29.679,173.339" style="fill:none;stroke:#000;stroke-width:20.83px;"/><path d="M1215.95,1599.97c-133.535,18.067 -103.404,185.269 -19.037,215.778" style="fill:none;stroke:#000;stroke-width:20.83px;"/><path d="M1215.95,1599.97c-133.535,18.067 -103.404,185.269 -19.037,215.778" style="fill:none;stroke:#000;stroke-width:20.83px;"/><path d="M1252.69,1412.62c-115.882,20.79 -75.354,159.562 -27.292,184.469" style="fill:none;stroke:#000;stroke-width:20.83px;"/><path d="M1430.02,1074.33c-98.271,44.276 -66.057,171.962 -27.292,184.47" style="fill:none;stroke:#000;stroke-width:20.83px;"/><path d="M1361.73,1153.39c-110.3,50.521 -87.305,176.48 -39.838,184.47" style="fill:none;stroke:#000;stroke-width:20.83px;"/><path d="M1288.41,1222.27c-125.389,48.688 -103.777,178.442 -34.306,189.105" style="fill:none;stroke:#000;stroke-width:20.83px;"/><path d="M1205.76,1278.61c-125.389,48.688 -103.777,178.442 -34.306,189.105" style="fill:none;stroke:#000;stroke-width:20.83px;"/><path d="M1174.11,1467.95c-100.558,44.379 -73.365,161.752 -38.541,178.428" style="fill:none;stroke:#000;stroke-width:20.83px;"/><path d="M1124.9,1332.98c-95.439,62.389 -53.135,197.122 -19.681,191.309" style="fill:none;stroke:#000;stroke-width:20.83px;"/><path d="M1066.41,1472.04c-95.439,62.389 -53.135,197.122 -19.681,191.309" style="fill:none;stroke:#000;stroke-width:20.83px;"/><path d="M1106.15,1609.85c-95.44,62.389 -53.135,197.122 -19.682,191.309" style="fill:none;stroke:#000;stroke-width:20.83px;"/><path d="M1490.51,2038.88c-106.708,59.61 -36.241,165.189 18.075,169.446" style="fill:none;stroke:#000;stroke-width:20.83px;"/><path d="M1448.22,1985.83c-110.44,53.614 -68.255,166.393 -11.431,173.827" style="fill:none;stroke:#000;stroke-width:20.83px;"/><path d="M1567.05,1705.79c-104.152,53.787 -51.139,183.226 -0.799,196.04" style="fill:none;stroke:#000;stroke-width:20.83px;"/><path d="M1473.69,1672.1c-104.151,53.787 -59.801,197.826 -9.461,210.639" style="fill:none;stroke:#000;stroke-width:20.83px;"/><path d="M1438.9,1535.77c-128.35,59.175 -99.506,205.464 -32.9,214.656" style="fill:none;stroke:#000;stroke-width:20.83px;"/><path d="M1286.27,1551.4c-128.35,59.175 -64.244,183.072 2.362,192.265" style="fill:none;stroke:#000;stroke-width:20.83px;"/><path d="M1345,1672.26c-104.151,53.787 -31.491,204.789 18.85,217.603" style="fill:none;stroke:#000;stroke-width:20.83px;"/><path d="M1251.9,1735.46c-88.344,53.788 -28.761,165.717 3.044,178.531" style="fill:none;stroke:#000;stroke-width:20.83px;"/><path d="M1668.86,1520.89c-117.264,44.638 -121.013,215.297 -51.915,244.917" style="fill:none;stroke:#000;stroke-width:20.83px;"/><path d="M1732.4,1398.63c-88.132,57.698 -66.924,164.592 -30.329,179.641" style="fill:none;stroke:#000;stroke-width:20.83px;"/><path d="M1810.27,1283.68c-88.133,57.698 -77.926,138.618 -41.331,153.667" style="fill:none;stroke:#000;stroke-width:20.83px;"/><path d="M1772.43,1129.43c-88.133,57.698 -46.808,171.909 -10.213,186.958" style="fill:none;stroke:#000;stroke-width:20.83px;"/><path d="M1784.81,971.536c-88.132,57.698 -28.063,157.129 8.532,172.179" style="fill:none;stroke:#000;stroke-width:20.83px;"/><path d="M1720.62,994.354c-88.132,57.698 -28.063,157.129 8.532,172.178" style="fill:none;stroke:#000;stroke-width:20.83px;"/><path d="M1694.49,895.199c-91.191,45.503 -70.668,151.279 -22.848,176.438" style="fill:none;stroke:#000;stroke-width:20.83px;"/><path d="M1693.2,1145.04c-88.132,57.698 -52.995,161.951 -16.4,177" style="fill:none;stroke:#000;stroke-width:20.83px;"/><path d="M1568.51,1143.97c-145.234,66.133 -53.391,161.411 -14.894,180.479" style="fill:none;stroke:#000;stroke-width:20.83px;"/><path d="M1636.98,1045.89c-121.298,76.718 -38.944,172.09 -6.342,189.523" style="fill:none;stroke:#000;stroke-width:20.83px;"/><path d="M1600.8,907.807c-84.72,88.801 -28.496,175.65 -18.872,185.493" style="fill:none;stroke:#000;stroke-width:20.83px;"/><path d="M1544.45,997.343c-117.323,57.936 -73.892,160.924 -45.71,188.335" style="fill:none;stroke:#000;stroke-width:20.83px;"/><path d="M1478.68,1159.21c-117.324,57.936 -63.755,160.133 -35.573,187.544" style="fill:none;stroke:#000;stroke-width:20.83px;"/><path d="M1399.42,1263.08c-117.323,57.936 -63.755,160.133 -35.573,187.544" style="fill:none;stroke:#000;stroke-width:20.83px;"/><path d="M1323.06,1361.91c-117.324,57.936 -63.755,160.133 -35.573,187.544" style="fill:none;stroke:#000;stroke-width:20.83px;"/><path d="M1736.42,1293.12c-99.418,40.321 -111.393,139.391 -62.13,173.946" style="fill:none;stroke:#000;stroke-width:20.83px;"/><path d="M1635.91,1275.99c-99.418,40.32 -111.393,139.39 -62.13,173.946" style="fill:none;stroke:#000;stroke-width:20.83px;"/><path d="M1640.72,1396.51c-99.419,40.32 -93.59,145.68 -44.326,180.235" style="fill:none;stroke:#000;stroke-width:20.83px;"/><path d="M1538.42,1396.87c-111.895,47.847 -116.887,171.999 -49.576,195.683" style="fill:none;stroke:#000;stroke-width:20.83px;"/><path d="M1359.5,1464.95c-97.853,47.265 -83.441,173.121 -24.774,197.162" style="fill:none;stroke:#000;stroke-width:20.83px;"/><path d="M1445.81,1357.76c-97.853,47.265 -97.427,171.903 -38.76,195.945" style="fill:none;stroke:#000;stroke-width:20.83px;"/><path d="M1500.09,1284.44c-53.768,46.125 -63.076,134.61 -33.197,159.396" style="fill:none;stroke:#000;stroke-width:20.83px;"/><path d="M1559.31,1531.82c-99.418,40.321 -89.919,168.751 -40.656,203.306" style="fill:none;stroke:#000;stroke-width:20.83px;"/><path d="M1874.64,814.156c-124.686,35.383 -111.347,175.292 -45.534,188.397" style="fill:none;stroke:#000;stroke-width:20.83px;"/><path d="M1944.19,763.601c-104.316,37.682 -101.895,164.83 -48.215,195.549" style="fill:none;stroke:#000;stroke-width:20.83px;"/><path d="M1784.51,810.05c-104.317,37.683 -101.895,164.83 -48.215,195.549" style="fill:none;stroke:#000;stroke-width:20.83px;"/><path d="M1786.73,2172.55c-81.193,20.837 -65.255,147.886 20.717,165.412" style="fill:none;stroke:#000;stroke-width:20.83px;"/><path d="M1743.61,2047.04c-58.936,15.117 -58.799,126.934 0.8,151.24" style="fill:none;stroke:#000;stroke-width:20.83px;"/><path d="M1693.9,2129.73c-106.558,18.042 -85.494,120.964 2.307,150.149" style="fill:none;stroke:#000;stroke-width:20.83px;"/><path d="M1621.48,2087.92c-88.053,0.77 -77.343,126.302 -5.157,170.064" style="fill:none;stroke:#000;stroke-width:20.83px;"/><path d="M1694.22,1982.91c-106.558,18.042 -85.495,120.964 2.307,150.149" style="fill:none;stroke:#000;stroke-width:20.83px;"/><path d="M1574.94,1957.73c-79.288,14.596 -69.527,137.084 -14.922,170.465" style="fill:none;stroke:#000;stroke-width:20.83px;"/><path d="M2103.49,1599.7c-122.208,46.443 -49.404,198.782 5.829,206.693" style="fill:none;stroke:#000;stroke-width:20.83px;"/><path d="M2202.7,1450.81c-131.007,49.987 -111.309,181.679 -46.545,216.865" style="fill:none;stroke:#000;stroke-width:20.83px;"/><path d="M2086.16,1475.98c-131.007,49.987 -118.157,178.078 -53.394,213.264" style="fill:none;stroke:#000;stroke-width:20.83px;"/><path d="M2004.21,1518.46c-147.749,47.813 -134.429,164.66 -51.593,202.193" style="fill:none;stroke:#000;stroke-width:20.83px;"/><path d="M1946.73,1388.82c-97.309,49.835 -80.537,147.252 -35.106,183.285" style="fill:none;stroke:#000;stroke-width:20.83px;"/><path d="M1831.47,1376.51c-97.309,49.835 -73.863,149.944 -28.432,185.977" style="fill:none;stroke:#000;stroke-width:20.83px;"/><path d="M1900.76,1264.81c-97.309,49.835 -70.981,145.781 -25.55,181.814" style="fill:none;stroke:#000;stroke-width:20.83px;"/><path d="M1981.49,1243.76c-97.308,49.836 -39.156,149.639 6.274,185.671" style="fill:none;stroke:#000;stroke-width:20.83px;"/><path d="M1942.65,1101.49c-97.308,49.836 -53.405,157.28 -7.974,193.313" style="fill:none;stroke:#000;stroke-width:20.83px;"/><path d="M2046.28,1148.34c-97.309,49.835 -39.156,149.638 6.274,185.671" style="fill:none;stroke:#000;stroke-width:20.83px;"/><path d="M2097.36,1046.92c-97.308,49.835 -39.156,149.638 6.275,185.671" style="fill:none;stroke:#000;stroke-width:20.83px;"/><path d="M2007.09,1004.68c-97.309,49.835 -46.808,139.701 -1.378,175.734" style="fill:none;stroke:#000;stroke-width:20.83px;"/><path d="M1897.74,958.745c-120.406,29.115 -61.668,126.371 -1.378,175.735" style="fill:none;stroke:#000;stroke-width:20.83px;"/><path d="M2178.86,912.248c-106.511,50.292 -88.73,151.076 -33.749,186.635" style="fill:none;stroke:#000;stroke-width:20.83px;"/><path d="M2100.65,905.75c-110.115,41.815 -100.263,143.68 -48.229,183.427" style="fill:none;stroke:#000;stroke-width:20.83px;"/><path d="M1989.46,873.141c-110.115,41.815 -100.263,143.681 -48.229,183.427" style="fill:none;stroke:#000;stroke-width:20.83px;"/><path d="M1866.63,1102.59c-110.115,41.816 -78.188,154.991 -26.153,194.738" style="fill:none;stroke:#000;stroke-width:20.83px;"/><path d="M1866.63,1102.59c-110.115,41.816 -78.188,154.991 -26.153,194.738" style="fill:none;stroke:#000;stroke-width:20.83px;"/><path d="M2170.39,750.309c-106.511,50.292 -88.729,151.076 -33.748,186.635" style="fill:none;stroke:#000;stroke-width:20.83px;"/><path d="M2054.02,802.091c-92.037,48.241 -80.058,134.189 -33.748,170.976" style="fill:none;stroke:#000;stroke-width:20.83px;"/><path d="M2236.03,616.064c-94.354,55.513 -58.777,172.413 -25.155,198.8" style="fill:none;stroke:#000;stroke-width:20.83px;"/><path d="M2116.65,650.181c-94.354,55.513 -58.777,172.413 -25.155,198.799" style="fill:none;stroke:#000;stroke-width:20.83px;"/><path d="M2017.67,674.341c-94.354,55.513 -68.394,185.065 -34.771,211.452" style="fill:none;stroke:#000;stroke-width:20.83px;"/><path d="M2275.5,1320.18c-104.548,52.958 -79.773,140.297 -39.919,171.285" style="fill:none;stroke:#000;stroke-width:20.83px;"/><path d="M2356.81,1204.49c-104.549,52.958 -79.774,140.297 -39.92,171.284" style="fill:none;stroke:#000;stroke-width:20.83px;"/><path d="M2257.95,1196.28c-104.549,52.958 -79.774,140.297 -39.92,171.284" style="fill:none;stroke:#000;stroke-width:20.83px;"/><path d="M2146.02,1207.96c-88.145,52.017 -58.238,125.076 -35.786,157.062" style="fill:none;stroke:#000;stroke-width:20.83px;"/><path d="M2175.18,1312.94c-104.549,52.959 -99.65,166.702 -59.796,197.69" style="fill:none;stroke:#000;stroke-width:20.83px;"/><path d="M2079.63,1322.13c-104.548,52.958 -99.65,166.702 -59.796,197.689" style="fill:none;stroke:#000;stroke-width:20.83px;"/><path d="M2317.9,1048.51c-120.695,52.959 -68.362,152.627 -9.921,183.615" style="fill:none;stroke:#000;stroke-width:20.83px;"/><path d="M2199.11,1060.63c-58.307,25.584 -76.233,62.069 -72.597,96.445c3.891,36.783 32.467,71.152 62.676,87.169" style="fill:none;stroke:#000;stroke-width:20.83px;"/><path d="M2265.97,924.786c-120.695,52.958 -76.925,155.995 -18.483,186.983" style="fill:none;stroke:#000;stroke-width:20.83px;"/><path d="M2338.98,782.383c-120.694,52.959 -76.924,155.996 -18.483,186.983" style="fill:none;stroke:#000;stroke-width:20.83px;"/><path d="M2305,628.567c-73.84,53.882 -42.318,156.677 -18.484,186.983" style="fill:none;stroke:#000;stroke-width:20.83px;"/><path d="M2258.07,768.463c-73.839,53.881 -80.075,162.311 -56.24,192.617" style="fill:none;stroke:#000;stroke-width:20.83px;"/><path d="M2395.54,622.129c-85.59,61.633 -59.377,182.966 -18.483,186.983" style="fill:none;stroke:#000;stroke-width:20.83px;"/><path d="M2163.12,1995.32c-109.281,51.329 -52.68,160.152 -0.257,202.254" style="fill:none;stroke:#000;stroke-width:20.83px;"/><path d="M2618.22,1049.31c-110.371,63.718 -50.138,171.903 10.822,191.582" style="fill:none;stroke:#000;stroke-width:20.83px;"/><path d="M2549.33,1144.48c-137.847,72.282 -69.612,182.562 22.123,192.648" style="fill:none;stroke:#000;stroke-width:20.83px;"/><path d="M2667.55,693.957c-107.96,61.871 -74.786,177.821 -13.935,204.998" style="fill:none;stroke:#000;stroke-width:20.83px;"/><path d="M2750.95,553.953c-97.429,58.003 -93.39,161.481 -38.476,186.958" style="fill:none;stroke:#000;stroke-width:20.83px;"/><path d="M2746.83,1140.26c-79.359,37.938 -49.533,98.312 -11.837,145.913" style="fill:none;stroke:#000;stroke-width:20.83px;"/><path d="M2688.01,1166.33c-92.055,36.735 -45.681,113.348 -0.323,161.675" style="fill:none;stroke:#000;stroke-width:20.83px;"/><path d="M2633.01,1242.08c-102.293,52.051 -41.242,144.268 10.732,182.697" style="fill:none;stroke:#000;stroke-width:20.83px;"/><path d="M2569.29,1337.46c-94.579,58.276 -53.694,125.527 -10.249,157.072" style="fill:none;stroke:#000;stroke-width:20.83px;"/><path d="M2505.72,1433.8c-102.589,52.093 -81.974,211.369 -30.107,249.416" style="fill:none;stroke:#000;stroke-width:20.83px;"/><path d="M2438.31,1625.07c-102.589,52.092 -48.18,165.693 3.687,203.74" style="fill:none;stroke:#000;stroke-width:20.83px;"/><path d="M2320.53,1600.03c-112.541,68.252 -53.722,212.497 14.313,224.291" style="fill:none;stroke:#000;stroke-width:20.83px;"/><path d="M2402.2,1429.35c-116.007,77.319 -86.067,238.371 -13.094,245.356" style="fill:none;stroke:#000;stroke-width:20.83px;"/><path d="M2474.69,1275.51c-101.685,80.369 -69.842,199.788 -29.834,204.676" style="fill:none;stroke:#000;stroke-width:20.83px;"/><path d="M2443.24,1208.51c-101.003,56.64 -77.735,115.743 -38.474,146.605" style="fill:none;stroke:#000;stroke-width:20.83px;"/><path d="M2466.55,1062.39c-119.442,61.857 -48.668,131.896 3.313,159.159" style="fill:none;stroke:#000;stroke-width:20.83px;"/><path d="M2542.04,971.26c-111.55,50.786 -60.248,144.405 -14.841,178.678" style="fill:none;stroke:#000;stroke-width:20.83px;"/><path d="M2471.13,883.08c-111.55,50.787 -81.508,158.779 -36.1,193.052" style="fill:none;stroke:#000;stroke-width:20.83px;"/><path d="M2391.8,1771.36c-92.725,31.727 -39.056,170.186 21.28,184.494" style="fill:none;stroke:#000;stroke-width:20.83px;"/><path d="M2355.73,1905.18c-92.725,31.727 -68.814,158.929 -8.478,173.237" style="fill:none;stroke:#000;stroke-width:20.83px;"/><path d="M2234.57,1891.92c-92.726,31.727 -68.814,158.929 -8.478,173.237" style="fill:none;stroke:#000;stroke-width:20.83px;"/><path d="M2268.63,1771.56c-84.172,50.197 -32.49,171.362 29.5,172.898" style="fill:none;stroke:#000;stroke-width:20.83px;"/><path d="M2286.72,2014.46c-92.725,31.727 -68.814,158.928 -8.478,173.236" style="fill:none;stroke:#000;stroke-width:20.83px;"/><path d="M2221.14,2119.24c-92.725,31.727 -57.171,176.887 3.165,191.195" style="fill:none;stroke:#000;stroke-width:20.83px;"/><path d="M2276.43,2274.82c-106.624,34.707 -80.038,170.492 -14.66,183.718" style="fill:none;stroke:#000;stroke-width:20.83px;"/><path d="M2843.32,1293.95c-74.435,38.618 -70.271,96.786 -45.306,154.709" style="fill:none;stroke:#000;stroke-width:20.83px;"/><path d="M2771.2,1393.53c-103.708,34.509 -110.236,147.957 -60.928,209.296" style="fill:none;stroke:#000;stroke-width:20.83px;"/><path d="M2699.81,1674.46c-103.081,55.114 -53.222,173.604 -4.633,211.314" style="fill:none;stroke:#000;stroke-width:20.83px;"/><path d="M2602.92,1974.77c-103.081,55.114 -58.176,148.259 -9.587,185.969" style="fill:none;stroke:#000;stroke-width:20.83px;"/><path d="M2555.89,1833.9c-103.081,55.114 -58.176,148.258 -9.588,185.969" style="fill:none;stroke:#000;stroke-width:20.83px;"/><path d="M2456.44,1920.34c-103.082,55.113 -54.966,143.459 -6.377,181.169" style="fill:none;stroke:#000;stroke-width:20.83px;"/><path d="M2482.08,1796.81c-88.319,59.606 -28.147,127.853 10.174,162.439" style="fill:none;stroke:#000;stroke-width:20.83px;"/><path d="M2615.38,1706.28c-103.081,55.114 -59.087,135.874 -10.498,173.584" style="fill:none;stroke:#000;stroke-width:20.83px;"/><path d="M2521.38,1642.86c-103.081,55.113 -33.606,163.879 14.983,201.589" style="fill:none;stroke:#000;stroke-width:20.83px;"/><path d="M2584.62,1480.56c-103.082,55.114 -55.407,202.646 -6.819,240.356" style="fill:none;stroke:#000;stroke-width:20.83px;"/><path d="M2681.16,1557.9c-103.081,55.114 -88.587,139.506 -39.998,177.216" style="fill:none;stroke:#000;stroke-width:20.83px;"/><path d="M2665.01,1410.7c-103.082,55.113 -88.587,139.506 -39.999,177.216" style="fill:none;stroke:#000;stroke-width:20.83px;"/><path d="M2772,1270.65c-106.092,59.924 -130.023,148.189 -72.574,171.746" style="fill:none;stroke:#000;stroke-width:20.83px;"/><path d="M2524.84,2013.5c-103.081,55.114 -72.164,143.547 -23.575,181.258" style="fill:none;stroke:#000;stroke-width:20.83px;"/><path d="M2399.99,2031.17c-103.081,55.114 -59.28,140.549 -10.691,178.259" style="fill:none;stroke:#000;stroke-width:20.83px;"/><path d="M2629.1,2143.6c-103.081,55.114 -36.952,138.423 11.637,176.133" style="fill:none;stroke:#000;stroke-width:20.83px;"/><path d="M2565.38,2147.24c-115.88,50.243 -44.515,152.386 14.029,193.885" style="fill:none;stroke:#000;stroke-width:20.83px;"/><path d="M2462.77,2153.56c-115.881,50.242 -44.515,152.385 14.028,193.884" style="fill:none;stroke:#000;stroke-width:20.83px;"/><path d="M2333.24,2144.22c-115.881,50.242 -44.515,152.386 14.029,193.885" style="fill:none;stroke:#000;stroke-width:20.83px;"/><path d="M2608.78,2288.95c-64.844,67.021 11.88,83.72 28.221,100.054" style="fill:none;stroke:#000;stroke-width:20.83px;"/><path d="M2520.53,2296.3c-64.844,67.021 11.88,83.72 28.222,100.053" style="fill:none;stroke:#000;stroke-width:20.83px;"/><path d="M2658.47,1839.78c-103.082,55.114 -59.563,155.193 -10.974,192.904" style="fill:none;stroke:#000;stroke-width:20.83px;"/><path d="M3212.6,733.377c-127.907,65.536 -79.5,170.899 12.841,197.38" style="fill:none;stroke:#000;stroke-width:20.83px;"/><path d="M3093.34,682.071c-93.287,74.051 -65.056,171.539 -11.242,188.545" style="fill:none;stroke:#000;stroke-width:20.83px;"/><path d="M3160.35,1017.59c-107.769,64.958 -70.611,164.54 -1.607,191.69" style="fill:none;stroke:#000;stroke-width:20.83px;"/><path d="M3037.59,1034.11c-96.014,66.253 -28.035,149.535 24.864,174.911" style="fill:none;stroke:#000;stroke-width:20.83px;"/><path d="M3147.68,1235.95c-101.518,55.49 -81.492,148.752 -20.685,188.319" style="fill:none;stroke:#000;stroke-width:20.83px;"/><path d="M3046.43,1291.24c-84.928,49.534 -80.533,83.613 -39.541,132.556" style="fill:none;stroke:#000;stroke-width:20.83px;"/><path d="M3109.9,1184.94c-78.747,34.929 -77.27,75.903 -39.54,132.556" style="fill:none;stroke:#000;stroke-width:20.83px;"/><path d="M2957.21,1290.38c-84.299,44.149 -97.838,96.393 -53.212,141.592" style="fill:none;stroke:#000;stroke-width:20.83px;"/><path d="M3162.72,1585.7c-101.518,55.491 -85.501,117.004 -24.694,156.571" style="fill:none;stroke:#000;stroke-width:20.83px;"/><path d="M3201.61,1684.73c-101.518,55.49 -57.652,119.131 3.155,158.698" style="fill:none;stroke:#000;stroke-width:20.83px;"/><path d="M3172.78,1825.05c-108.477,59.762 -75.629,156.538 -9.318,192.725" style="fill:none;stroke:#000;stroke-width:20.83px;"/><path d="M3202.88,1992.98c-104.234,60.119 15.159,166.415 68.343,181.359" style="fill:none;stroke:#000;stroke-width:20.83px;"/><path d="M3253.76,2167.34c-55.63,86.018 31.116,159.929 59.462,159.499" style="fill:none;stroke:#000;stroke-width:20.83px;"/><path d="M3241.97,2280.28c-83.747,45.126 -51.835,155.168 -8.146,177.053" style="fill:none;stroke:#000;stroke-width:20.83px;"/><path d="M3184.47,2118.34c-99.556,44.879 -54.854,182.165 7.659,204.343" style="fill:none;stroke:#000;stroke-width:20.83px;"/><path d="M3090.74,2145.25c-99.556,44.879 -54.854,182.164 7.659,204.343" style="fill:none;stroke:#000;stroke-width:20.83px;"/><path d="M2983.44,2115.61c-99.557,44.88 -54.855,182.165 7.659,204.343" style="fill:none;stroke:#000;stroke-width:20.83px;"/><path d="M2874.51,2068.14c-117.156,39.14 -72.079,179.311 0.003,204.61" style="fill:none;stroke:#000;stroke-width:20.83px;"/><path d="M2755.42,2102.52c-117.156,39.14 -72.079,179.31 0.004,204.61" style="fill:none;stroke:#000;stroke-width:20.83px;"/><path d="M2927.36,2235.5c-99.557,44.879 -65.532,153.201 -3.019,175.38" style="fill:none;stroke:#000;stroke-width:20.83px;"/><path d="M2823.15,2235.06c-99.556,44.88 -65.532,153.201 -3.019,175.38" style="fill:none;stroke:#000;stroke-width:20.83px;"/><path d="M2703.04,2263.14c-99.557,44.879 -65.533,153.201 -3.019,175.379" style="fill:none;stroke:#000;stroke-width:20.83px;"/><path d="M2681.02,2009.53c-99.557,44.879 -65.532,153.201 -3.019,175.38" style="fill:none;stroke:#000;stroke-width:20.83px;"/><path d="M3163.29,2295.36c-99.557,44.879 -54.855,182.164 7.659,204.343" style="fill:none;stroke:#000;stroke-width:20.83px;"/><path d="M3098.14,2354.88c-99.557,44.879 -50.982,135.079 11.531,157.258" style="fill:none;stroke:#000;stroke-width:20.83px;"/><path d="M3038.22,2296.37c-99.556,44.879 -54.854,182.164 7.659,204.343" style="fill:none;stroke:#000;stroke-width:20.83px;"/><path d="M2971.92,2383.56c-111.383,40.523 -64.311,139.423 2.73,163.27" style="fill:none;stroke:#000;stroke-width:20.83px;"/><path d="M2876.12,2387.4c-111.383,40.523 -64.311,139.424 2.73,163.27" style="fill:none;stroke:#000;stroke-width:20.83px;"/><path d="M2771.56,2378.16c-111.384,40.523 -57.691,158.165 9.35,182.012" style="fill:none;stroke:#000;stroke-width:20.83px;"/><path d="M3036.11,1976.13c-99.556,44.879 -54.854,182.164 7.659,204.343" style="fill:none;stroke:#000;stroke-width:20.83px;"/><path d="M3036.11,1976.13c-99.556,44.879 -54.854,182.164 7.659,204.343" style="fill:none;stroke:#000;stroke-width:20.83px;"/><path d="M2934.59,1955.16c-99.557,44.879 -59.446,176.108 3.067,198.286" style="fill:none;stroke:#000;stroke-width:20.83px;"/><path d="M2813.66,1968.9c-99.556,44.879 -75.861,152.355 -13.348,174.534" style="fill:none;stroke:#000;stroke-width:20.83px;"/><path d="M2736.09,1866.93c-99.556,44.88 -61.184,159.251 1.329,181.43" style="fill:none;stroke:#000;stroke-width:20.83px;"/><path d="M2875.32,1853.42c-99.556,44.88 -65.696,183.589 -3.182,205.768" style="fill:none;stroke:#000;stroke-width:20.83px;"/><path d="M3117.09,1969.37c-99.557,44.879 -54.854,182.164 7.659,204.343" style="fill:none;stroke:#000;stroke-width:20.83px;"/><path d="M3342.4,2272.33c-56.746,79.605 17.898,150.541 47.215,155.691" style="fill:none;stroke:#000;stroke-width:20.83px;"/><path d="M3543.04,1108.96c-107.769,64.959 -42.737,183.028 26.267,210.179" style="fill:none;stroke:#000;stroke-width:20.83px;"/><path d="M3459.88,999.831c-107.769,64.958 -42.737,183.028 26.267,210.178" style="fill:none;stroke:#000;stroke-width:20.83px;"/><path d="M3470.08,1211.42c-107.769,64.958 -42.737,183.028 26.267,210.178" style="fill:none;stroke:#000;stroke-width:20.83px;"/><path d="M3399.71,1313.28c-107.769,64.959 -42.736,183.028 26.268,210.179" style="fill:none;stroke:#000;stroke-width:20.83px;"/><path d="M3393.06,1102.65c-107.769,64.959 -50.988,175.458 18.016,202.609" style="fill:none;stroke:#000;stroke-width:20.83px;"/><path d="M3325.29,1209.77c-107.768,64.959 -50.987,175.458 18.017,202.608" style="fill:none;stroke:#000;stroke-width:20.83px;"/><path d="M3336.43,1418.46c-107.769,64.959 -60.481,181.229 8.523,208.379" style="fill:none;stroke:#000;stroke-width:20.83px;"/><path d="M3259.55,1313.69c-116.541,69.19 -71.76,184.837 5.177,208.16" style="fill:none;stroke:#000;stroke-width:20.83px;"/><path d="M3229.3,1501.7c-110.744,67.773 -61.531,179.174 11.61,203.425" style="fill:none;stroke:#000;stroke-width:20.83px;"/><path d="M3184.66,1382.16c-123.656,55.481 -96.756,172.33 -22.972,204.255" style="fill:none;stroke:#000;stroke-width:20.83px;"/><ellipse cx="3970.37" cy="1775.21" rx="196.087" ry="187.233" style="fill:#fff;stroke:#000;stroke-width:1px;"/><circle cx="3889.81" cy="1753.5" r="59.214" style="stroke:#000;stroke-width:1px;"/><path d="M3603.29,3400.11l40.57,167.705l-557.047,421.268c-136.968,-216.546 -349.795,-635.806 -703.837,-1432.43c-491.193,434.029 -874.415,757.861 -1169.95,992.2l304.217,333.796l-143.073,133.092l-476.894,-565.286c410.863,-378.061 825.784,-748.68 1247.44,-1106.94l438.406,-4.292c217.851,370.947 418.49,852.764 609.899,1394.04l410.268,-333.153Z" style="stroke:#000;stroke-width:16.67px;"/></g></g></svg>