<?xml version="1.0" encoding="UTF-8" standalone="no"?><!DOCTYPE svg PUBLIC "-//W3C//DTD SVG 1.1//EN" "http://www.w3.org/Graphics/SVG/1.1/DTD/svg11.dtd"><svg width="100%" height="100%" viewBox="0 0 4820 4016" version="1.1" xmlns="http://www.w3.org/2000/svg" xmlns:xlink="http://www.w3.org/1999/xlink" xml:space="preserve" xmlns:serif="http://www.serif.com/" style="fill-rule:evenodd;clip-rule:evenodd;stroke-linecap:round;stroke-linejoin:round;stroke-miterlimit:1.5;"><rect id="Artboard6" x="0" y="0" width="4819.65" height="4015.75" style="fill:none;"/><clipPath id="_clip1"><rect x="0" y="0" width="4819.65" height="4015.75"/></clipPath><g clip-path="url(#_clip1)"><g><path d="M752.643,1253.02l-220.792,22.233" style="fill:none;stroke:#000;stroke-width:20.83px;"/><path d="M685.015,1305.61l-358.656,27.808" style="fill:none;stroke:#000;stroke-width:20.83px;"/><path d="M703.638,1594.2c-85.063,37.339 -156.969,79.516 -214.546,126.962" style="fill:none;stroke:#000;stroke-width:20.83px;"/><path d="M670.997,1564.77c-85.063,37.338 -156.969,79.515 -214.547,126.962" style="fill:none;stroke:#000;stroke-width:20.83px;"/><path d="M648.327,1516.97c-85.063,37.339 -186.725,87.429 -244.302,134.875" style="fill:none;stroke:#000;stroke-width:20.83px;"/><path d="M623.482,1474.55c-85.063,37.339 -283.356,125.894 -340.933,173.34" style="fill:none;stroke:#000;stroke-width:20.83px;"/><path d="M623.077,1473.68c-93.485,18.422 -445.764,108.335 -496.37,171.44" style="fill:none;stroke:#000;stroke-width:20.83px;"/><path d="M612.137,1443.69c-93.485,18.422 -577.192,122.608 -627.798,185.713" style="fill:none;stroke:#000;stroke-width:20.83px;"/><path d="M602.292,1407.18c-77.771,14.782 -574.612,49.795 -630.116,114.034" style="fill:none;stroke:#000;stroke-width:20.83px;"/><path d="M603.805,1360.88c-77.772,14.781 -574.613,49.795 -630.117,114.034" style="fill:none;stroke:#000;stroke-width:20.83px;"/><path d="M785.62,1716.19c-150.663,115.435 -283.257,247.989 -402.823,392.887" style="fill:none;stroke:#000;stroke-width:20.83px;"/><path d="M761.704,1688.02c-152.243,107.407 -279.295,222.507 -383.588,344.559" style="fill:none;stroke:#000;stroke-width:20.83px;"/><path d="M743.869,1661.5c-124.161,76.886 -240.149,165.187 -349.524,262.727" style="fill:none;stroke:#000;stroke-width:20.83px;"/><path d="M396.569,2280.16c128.305,-210.087 276.746,-390.829 450.091,-535.28" style="fill:none;stroke:#000;stroke-width:20.83px;"/><path d="M399.769,2171.04c128.304,-210.087 273.673,-282.733 447.018,-427.184" style="fill:none;stroke:#000;stroke-width:20.83px;"/><path d="M718.566,1640.4c-107.677,50.734 -207.917,120.139 -302.682,203.288" style="fill:none;stroke:#000;stroke-width:20.83px;"/><path d="M848.538,1746.54c-98.663,187.728 -225.683,341.876 -354.019,494.466" style="fill:none;stroke:#000;stroke-width:20.83px;"/><path d="M1560.9,1720.66c-87.186,165.246 -241.958,285.846 -360.38,272.074" style="fill:none;stroke:#000;stroke-width:20.83px;"/><path d="M2363.69,1979.91c-87.186,165.245 -234.186,197.786 -352.607,184.014" style="fill:none;stroke:#000;stroke-width:20.83px;"/><path d="M2257.86,1939.51c-87.185,165.245 -234.185,197.786 -352.607,184.014" style="fill:none;stroke:#000;stroke-width:20.83px;"/><path d="M2081.57,1916.19c-26.057,59.459 -98.73,79.428 -182.212,90.242" style="fill:none;stroke:#000;stroke-width:20.83px;"/><path d="M2154.95,1951.72c-26.057,59.459 -181.651,92.706 -265.133,103.519" style="fill:none;stroke:#000;stroke-width:20.83px;"/><path d="M1471.75,1713.28c-108.338,152.729 -216.528,227.039 -315.137,224.99" style="fill:none;stroke:#000;stroke-width:20.83px;"/><path d="M1420.41,1671.89c-108.338,152.729 -184.457,182.37 -283.066,180.322" style="fill:none;stroke:#000;stroke-width:20.83px;"/><path d="M1345.26,1634.55c-76.619,129.072 -130.897,153.832 -201.445,151.572" style="fill:none;stroke:#000;stroke-width:20.83px;"/><path d="M1296.05,1598.7c-56.133,105.89 -96.139,126.071 -148.26,123.98" style="fill:none;stroke:#000;stroke-width:20.83px;"/><path d="M1277.04,1582.25c-70.948,84.385 -109.263,76.826 -151.903,88.498" style="fill:none;stroke:#000;stroke-width:20.83px;"/><path d="M3372.19,1851.85c54.568,180.873 104.1,360.136 54.069,446.909" style="fill:none;stroke:#000;stroke-width:20.83px;"/><path d="M3372.19,1851.85c54.568,180.873 104.1,360.136 54.069,446.909" style="fill:none;stroke:#000;stroke-width:20.83px;"/><path d="M3252.54,1786.44c67.265,158.902 62.475,380.388 -4.199,448.559" style="fill:none;stroke:#000;stroke-width:20.83px;"/><path d="M3251.17,1897.14c85.875,107.465 82.219,376.579 14.159,413.922" style="fill:none;stroke:#000;stroke-width:20.83px;"/><path d="M3251.29,1898c22.442,199.203 -10.784,434.058 -85.409,415.776" style="fill:none;stroke:#000;stroke-width:20.83px;"/><path d="M3197.94,1943.91c22.441,199.203 -51.16,334.226 -125.785,315.943" style="fill:none;stroke:#000;stroke-width:20.83px;"/><path d="M3163.79,1963.18c-6.355,183.143 -104.749,254.256 -148.96,252.935" style="fill:none;stroke:#000;stroke-width:20.83px;"/><path d="M3162.91,1963.51c-68.691,170.323 -166.519,187.476 -168.451,194.85" style="fill:none;stroke:#000;stroke-width:20.83px;"/><path d="M3162.91,1963.51c-68.691,170.323 -166.519,187.476 -168.451,194.85" style="fill:none;stroke:#000;stroke-width:20.83px;"/><path d="M3160.94,1966.7c-89.076,143.679 -242.26,168.7 -252.681,153.551" style="fill:none;stroke:#000;stroke-width:20.83px;"/><path d="M2888.89,71.238c-153.602,-110.988 -395.86,-118.333 -637.323,-76.654" style="fill:none;stroke:#000;stroke-width:20.83px;"/><path d="M2450.61,85.818c-142.394,-97.072 -235.925,-54.514 -484.724,-40.72" style="fill:none;stroke:#000;stroke-width:20.83px;"/><path d="M2125.08,135.83c-152.33,-64.846 -214.527,-41.507 -350.396,-32.263" style="fill:none;stroke:#000;stroke-width:20.83px;"/><path d="M1998.74,184.219c-152.33,-64.846 -214.527,-41.507 -350.396,-32.263" style="fill:none;stroke:#000;stroke-width:20.83px;"/><path d="M1873.61,250.476c-152.33,-64.845 -214.527,-41.507 -350.397,-32.263" style="fill:none;stroke:#000;stroke-width:20.83px;"/><path d="M1773.06,325.562c-121.167,-92.273 -186.729,-74.321 -345.893,-58.78" style="fill:none;stroke:#000;stroke-width:20.83px;"/><path d="M1651.28,371.225c-112.742,-84.778 -115.429,-64.593 -280.523,-54.328" style="fill:none;stroke:#000;stroke-width:20.83px;"/><path d="M1600.4,417.984c-112.742,-84.779 -115.429,-64.594 -280.523,-54.329" style="fill:none;stroke:#000;stroke-width:20.83px;"/><path d="M1492.5,424.633c-5.124,-25.412 -103.295,-20.382 -222.621,-14.092" style="fill:none;stroke:#000;stroke-width:20.83px;"/><path d="M1442.67,454.077c-5.072,-24.218 -104.426,-20.205 -223.772,-14.385" style="fill:none;stroke:#000;stroke-width:20.83px;"/><path d="M1391.83,504.378c-5.123,-25.411 -101.181,-28.448 -220.507,-22.158" style="fill:none;stroke:#000;stroke-width:20.83px;"/><path d="M1318.57,565.871c-5.124,-25.412 -96.373,-30.111 -215.699,-23.821" style="fill:none;stroke:#000;stroke-width:20.83px;"/><path d="M1287.81,615.228c-5.124,-25.412 -84.741,-23.653 -204.067,-17.363" style="fill:none;stroke:#000;stroke-width:20.83px;"/><path d="M1214.65,675.517c-16.793,-32.799 -149.785,-31.233 -222.742,4.412" style="fill:none;stroke:#000;stroke-width:20.83px;"/><path d="M1187.2,729.893c-44.262,-30.508 -175.57,-12.865 -189.182,7.191" style="fill:none;stroke:#000;stroke-width:20.83px;"/><path d="M1132.96,770.765c-50.151,-21.42 -177.834,51.703 -164.7,55.211" style="fill:none;stroke:#000;stroke-width:20.83px;"/><path d="M2320.36,102.479c-120.399,-60.937 -153.224,-42.86 -417.963,-50.522" style="fill:none;stroke:#000;stroke-width:20.83px;"/><path d="M2638.5,55.566c-160.533,-86.014 -294.294,-57.044 -528.009,-43.282" style="fill:none;stroke:#000;stroke-width:20.83px;"/><path d="M3056.86,1278.39c-74.452,58.172 -33.913,160.274 14.953,173.806" style="fill:none;stroke:#000;stroke-width:20.83px;"/><path d="M2966.03,1289.05c-74.452,58.172 -33.913,160.274 14.953,173.806" style="fill:none;stroke:#000;stroke-width:20.83px;"/><path d="M2908.31,1132.21c-106.061,52.135 -62.165,204.18 13.189,222.77" style="fill:none;stroke:#000;stroke-width:20.83px;"/><path d="M2783.25,1161.36c-106.061,52.134 -62.166,204.179 13.189,222.77" style="fill:none;stroke:#000;stroke-width:20.83px;"/><path d="M3076.21,971.346c-87.614,29.665 -100.394,167.103 -39.853,205.92" style="fill:none;stroke:#000;stroke-width:20.83px;"/><path d="M3046.35,812.919c-87.615,29.664 -90.613,154.842 -30.072,193.658" style="fill:none;stroke:#000;stroke-width:20.83px;"/><path d="M2956.74,609.35c-87.615,29.664 -56.993,135.687 3.548,174.504" style="fill:none;stroke:#000;stroke-width:20.83px;"/><path d="M2938.66,843.665c-87.614,29.665 -90.612,154.842 -30.071,193.659" style="fill:none;stroke:#000;stroke-width:20.83px;"/><path d="M2972.9,966.397c-87.615,29.665 -80.086,186.57 -19.545,225.387" style="fill:none;stroke:#000;stroke-width:20.83px;"/><path d="M2871.89,991.918c-103.705,24.393 -111.399,189.612 -34.346,233.838" style="fill:none;stroke:#000;stroke-width:20.83px;"/><path d="M2769.78,1010.13c-103.705,24.393 -117.373,145.254 -40.32,189.48" style="fill:none;stroke:#000;stroke-width:20.83px;"/><path d="M2845.66,854.474c-103.705,24.393 -117.374,145.254 -40.32,189.481" style="fill:none;stroke:#000;stroke-width:20.83px;"/><path d="M2893.85,611.425c-103.705,24.393 -117.373,145.254 -40.32,189.481" style="fill:none;stroke:#000;stroke-width:20.83px;"/><path d="M2930.71,439.742c-103.705,24.393 -93.636,143.517 -16.583,187.744" style="fill:none;stroke:#000;stroke-width:20.83px;"/><path d="M3024.74,422.742c-61.343,50.4 -14.731,84.895 28.464,108.335" style="fill:none;stroke:#000;stroke-width:20.83px;"/><path d="M3001.38,1146.51c-85.225,31.152 -44.191,150.571 13.216,187.436" style="fill:none;stroke:#000;stroke-width:20.83px;"/><path d="M3076.63,1146.63c-81.997,40.697 -26.166,142.749 25.582,170.201" style="fill:none;stroke:#000;stroke-width:20.83px;"/><path d="M3206.34,572.866c-121.605,55.176 -105.887,180.705 -22.793,212.538" style="fill:none;stroke:#000;stroke-width:20.83px;"/><path d="M3272.95,475.766c-114.775,73.44 -61.341,156.225 17.375,176.349" style="fill:none;stroke:#000;stroke-width:20.83px;"/><path d="M3340.26,366.626c-114.775,73.44 -63.913,144.556 14.803,164.68" style="fill:none;stroke:#000;stroke-width:20.83px;"/><path d="M4847.47,1193.82c-350.238,-356.761 -767.606,-639.823 -1106.98,-711.658c-287.802,123.552 -468.4,304.059 -516.251,555.092c-3.593,284.557 42.866,524.469 302.118,574.572c254.801,31.757 1054.38,-145.31 1250.22,-287.794l-259.988,24.817c119.445,-24.823 330.879,-155.029 330.879,-155.029Z" style="stroke:#000;stroke-width:20.83px;"/><path d="M3732.54,500.863c-61.925,50.089 -87.484,98.159 -67.032,143.674" style="fill:none;stroke:#000;stroke-width:20.83px;"/><path d="M3620.73,486.118c-75.777,55.412 -43.453,138.297 -4.173,176.577" style="fill:none;stroke:#000;stroke-width:20.83px;"/><path d="M3533.32,375.26c-106.094,68.884 -35.36,183.688 35.506,207.933" style="fill:none;stroke:#000;stroke-width:20.83px;"/><path d="M3462.06,279.888c-106.094,68.884 -54.489,156.899 16.376,181.143" style="fill:none;stroke:#000;stroke-width:20.83px;"/><path d="M3399.43,248.302c-106.094,68.884 -54.489,156.899 16.377,181.143" style="fill:none;stroke:#000;stroke-width:20.83px;"/><path d="M3295.12,192.179c-106.094,68.883 -25.648,152.255 45.218,176.499" style="fill:none;stroke:#000;stroke-width:20.83px;"/><path d="M3207.48,178.3c-56.135,67.426 4.922,77.025 35.95,101.842" style="fill:none;stroke:#000;stroke-width:20.83px;"/><path d="M3060.08,136.794c-21.027,71.417 17.444,78.27 28.542,100.329" style="fill:none;stroke:#000;stroke-width:20.83px;"/><path d="M2966.45,98.792c-53.092,70.473 -11.156,83.287 16.066,105.445" style="fill:none;stroke:#000;stroke-width:20.83px;"/><path d="M3240,276.616c-106.094,68.884 -38.465,166.002 32.401,190.246" style="fill:none;stroke:#000;stroke-width:20.83px;"/><path d="M3180.71,381.648c-106.094,68.883 -49.47,171.497 21.396,195.742" style="fill:none;stroke:#000;stroke-width:20.83px;"/><path d="M3073.27,287.131c-106.094,68.884 -49.471,171.497 21.395,195.742" style="fill:none;stroke:#000;stroke-width:20.83px;"/><path d="M2977.46,290.695c-106.094,68.884 -49.471,171.498 21.395,195.743" style="fill:none;stroke:#000;stroke-width:20.83px;"/><path d="M2942.29,167.836c-85.091,57.81 -69.473,145.276 -21.196,181.431" style="fill:none;stroke:#000;stroke-width:20.83px;"/><path d="M2880.51,285.751c-98.041,52.998 -61.756,134.428 -0.878,175.265" style="fill:none;stroke:#000;stroke-width:20.83px;"/><path d="M2833.43,437.133c-98.041,52.998 -51.83,153.342 9.048,194.178" style="fill:none;stroke:#000;stroke-width:20.83px;"/><path d="M2792.59,589.117c-98.042,52.998 -83.977,144.023 -23.099,184.86" style="fill:none;stroke:#000;stroke-width:20.83px;"/><path d="M2716.38,428.949c-98.042,52.998 -43.158,162.186 17.72,203.023" style="fill:none;stroke:#000;stroke-width:20.83px;"/><path d="M2761.04,301.267c-98.041,52.998 -40.864,141.053 20.014,181.89" style="fill:none;stroke:#000;stroke-width:20.83px;"/><path d="M2833.79,178.742c-99.556,58.034 -77.6,148.957 -15.586,182.461" style="fill:none;stroke:#000;stroke-width:20.83px;"/><path d="M2892.82,74.351c-76.601,62.49 -59.507,128.227 -14.892,149.064" style="fill:none;stroke:#000;stroke-width:20.83px;"/><path d="M2802.24,52.33c-80.406,63.018 -78.374,155.686 -31.647,176.584" style="fill:none;stroke:#000;stroke-width:20.83px;"/><path d="M2733.97,142.053c-103.519,49.697 -90.455,166.376 -27.262,204.058" style="fill:none;stroke:#000;stroke-width:20.83px;"/><path d="M2657.42,275.24c-103.519,49.696 -51.256,156.565 11.937,194.246" style="fill:none;stroke:#000;stroke-width:20.83px;"/><path d="M2631.65,436.157c-116.733,42.474 -44.893,163.333 25.179,204.775" style="fill:none;stroke:#000;stroke-width:20.83px;"/><path d="M2531.18,306.132c-108.775,67.754 -31.15,189.379 31.271,206.516" style="fill:none;stroke:#000;stroke-width:20.83px;"/><path d="M2485.14,226.98c-108.775,67.753 -70.157,167.67 -7.736,184.807" style="fill:none;stroke:#000;stroke-width:20.83px;"/><path d="M2485.14,226.98c-108.775,67.753 -70.157,167.67 -7.736,184.807" style="fill:none;stroke:#000;stroke-width:20.83px;"/><path d="M2536.22,71.533c-83.671,71.55 -50.358,170.665 -7.735,184.808" style="fill:none;stroke:#000;stroke-width:20.83px;"/><path d="M2449.93,91.525c-83.672,71.55 -68.308,166.783 -25.684,180.926" style="fill:none;stroke:#000;stroke-width:20.83px;"/><path d="M2383.44,213.758c-83.672,71.549 -68.308,166.783 -25.684,180.926" style="fill:none;stroke:#000;stroke-width:20.83px;"/><path d="M2322.56,376.742c-83.672,71.55 -68.308,166.783 -25.684,180.926" style="fill:none;stroke:#000;stroke-width:20.83px;"/><path d="M2345.55,523.893c-103.144,44.353 -64.031,136.867 3.986,186.477" style="fill:none;stroke:#000;stroke-width:20.83px;"/><path d="M2333.84,794.105c-82.617,43.048 -71.161,125.882 -27.147,177.017" style="fill:none;stroke:#000;stroke-width:20.83px;"/><path d="M2271.96,923.125c-117.152,53.392 -117.474,203.978 -46.406,247.01" style="fill:none;stroke:#000;stroke-width:20.83px;"/><path d="M2179.7,1110.4c-115.36,60.704 -50.005,185.162 17.876,215.191" style="fill:none;stroke:#000;stroke-width:20.83px;"/><path d="M2130.8,1264.14c-115.36,60.704 -50.734,157.075 17.147,187.105" style="fill:none;stroke:#000;stroke-width:20.83px;"/><path d="M2076.82,1388.62c-93.151,67.659 -36.176,154.877 7.944,170.308" style="fill:none;stroke:#000;stroke-width:20.83px;"/><path d="M1931.02,1333.72c-93.152,67.659 -15.984,158.743 28.136,174.174" style="fill:none;stroke:#000;stroke-width:20.83px;"/><path d="M1902.72,1472.61c-93.151,67.66 -36.176,154.878 7.944,170.309" style="fill:none;stroke:#000;stroke-width:20.83px;"/><path d="M1846.97,1338.62c-93.152,67.659 -36.177,154.877 7.943,170.308" style="fill:none;stroke:#000;stroke-width:20.83px;"/><path d="M1772.84,1216.14c-110.792,35.724 -33.89,172.127 12.695,197.669" style="fill:none;stroke:#000;stroke-width:20.83px;"/><path d="M1960.9,1597.92c-93.151,67.66 -36.176,154.878 7.944,170.309" style="fill:none;stroke:#000;stroke-width:20.83px;"/><path d="M2026.97,1706.08c-93.151,67.659 -33.757,195.219 10.362,210.65" style="fill:none;stroke:#000;stroke-width:20.83px;"/><path d="M1905.39,1652.84c-126.062,82.362 -67.369,225.42 15.847,223.385" style="fill:none;stroke:#000;stroke-width:20.83px;"/><path d="M1845.94,1559.41c-108.057,63.612 -67.996,151.788 -16.25,182.525" style="fill:none;stroke:#000;stroke-width:20.83px;"/><path d="M1797.45,1418.18c-108.058,63.612 -67.997,151.788 -16.251,182.525" style="fill:none;stroke:#000;stroke-width:20.83px;"/><path d="M2079.07,1737.92c-93.151,67.66 -18.378,156.884 25.742,172.315" style="fill:none;stroke:#000;stroke-width:20.83px;"/><path d="M2201.09,1795.83c-113.005,54.219 -45.272,183.249 6.268,203.703" style="fill:none;stroke:#000;stroke-width:20.83px;"/><path d="M2130.42,1675.01c-93.152,67.659 -36.177,154.878 7.943,170.309" style="fill:none;stroke:#000;stroke-width:20.83px;"/><path d="M2075.3,1571.01c-93.151,67.659 -41.085,153.259 3.035,168.69" style="fill:none;stroke:#000;stroke-width:20.83px;"/><path d="M2020.03,1465.48c-110.882,57.811 -51.16,150.767 1.112,170.726" style="fill:none;stroke:#000;stroke-width:20.83px;"/><path d="M2029.1,1268.27c-110.881,57.811 -51.159,150.767 1.112,170.726" style="fill:none;stroke:#000;stroke-width:20.83px;"/><path d="M1975.63,1168.88c-102.294,57.783 -52.092,169.836 -8.911,189.826" style="fill:none;stroke:#000;stroke-width:20.83px;"/><path d="M1856.36,1160.88c-102.294,57.782 -10.233,176.596 32.948,196.586" style="fill:none;stroke:#000;stroke-width:20.83px;"/><path d="M1839.42,1017.59c-115.863,45.404 -95.992,180.021 -34.902,212.506" style="fill:none;stroke:#000;stroke-width:20.83px;"/><path d="M1732.48,1022.69c-115.863,45.405 -78.457,202.669 -17.367,235.154" style="fill:none;stroke:#000;stroke-width:20.83px;"/><path d="M1659.63,1184c-115.863,45.404 -58.849,186.965 2.241,219.45" style="fill:none;stroke:#000;stroke-width:20.83px;"/><path d="M1728.51,1364.22c-115.863,45.405 -56.387,146.945 4.703,179.43" style="fill:none;stroke:#000;stroke-width:20.83px;"/><path d="M1610.37,1347.71c-100.425,44.795 -53.03,144.002 -5.958,177.04" style="fill:none;stroke:#000;stroke-width:20.83px;"/><path d="M1486.58,1367.15c-105.25,63.524 -50.956,182.865 4.094,184.932" style="fill:none;stroke:#000;stroke-width:20.83px;"/><path d="M1387.78,1352.86c-81.31,52.892 -54.283,178.252 -11.161,185.617" style="fill:none;stroke:#000;stroke-width:20.83px;"/><path d="M1287.33,1365.02c-80.244,40.048 -61.579,140.857 -18.913,153.717" style="fill:none;stroke:#000;stroke-width:20.83px;"/><path d="M1329.51,1476.36c-107.59,42.235 -37.009,151.832 35.923,162.271" style="fill:none;stroke:#000;stroke-width:20.83px;"/><path d="M1220.16,1455.42c-82.491,42.839 -12.004,123.278 40.36,133.222" style="fill:none;stroke:#000;stroke-width:20.83px;"/><path d="M1176.01,1381.5c-109.35,46.481 -71.626,148.749 3.785,155.567" style="fill:none;stroke:#000;stroke-width:20.83px;"/><path d="M1103.27,1306.87c-89.586,29.228 -49.576,129.5 3.784,155.568" style="fill:none;stroke:#000;stroke-width:20.83px;"/><path d="M1016.69,1312.54c-92.79,36.624 -51.953,166.271 11.613,168.777" style="fill:none;stroke:#000;stroke-width:20.83px;"/><path d="M920.814,1304.08c-92.79,36.623 -68.404,173.399 -4.839,175.905" style="fill:none;stroke:#000;stroke-width:20.83px;"/><path d="M852.573,1174.23c-92.789,36.624 -55.633,179.361 7.933,181.867" style="fill:none;stroke:#000;stroke-width:20.83px;"/><path d="M963.675,1446.32c-92.79,36.623 -39.414,187.957 24.152,190.463" style="fill:none;stroke:#000;stroke-width:20.83px;"/><path d="M913.444,1539.71c-69.728,36.21 -38.114,151.688 1.658,154.62" style="fill:none;stroke:#000;stroke-width:20.83px;"/><path d="M866.5,1444.47c-69.728,36.21 -26.585,121.235 13.187,124.166" style="fill:none;stroke:#000;stroke-width:20.83px;"/><path d="M815.382,1332.4c-69.728,36.211 -25.235,157.919 14.537,160.851" style="fill:none;stroke:#000;stroke-width:20.83px;"/><path d="M961.652,1163.58c-92.789,36.623 -51.952,166.27 11.614,168.776" style="fill:none;stroke:#000;stroke-width:20.83px;"/><path d="M908.358,1008.53c-119.375,31.596 -84.326,188.321 0.11,194.773" style="fill:none;stroke:#000;stroke-width:20.83px;"/><path d="M953.595,947.707c-71.199,35.767 -30.533,129.632 10.049,133.05" style="fill:none;stroke:#000;stroke-width:20.83px;"/><path d="M820.707,989.178c-71.198,35.767 -30.532,129.632 10.05,133.049" style="fill:none;stroke:#000;stroke-width:20.83px;"/><path d="M786.385,1090.95c-84.931,40.931 -54.202,171.866 -0.378,170.305" style="fill:none;stroke:#000;stroke-width:20.83px;"/><path d="M756.053,1248.38c-84.931,40.93 -35.19,154.74 18.634,153.179" style="fill:none;stroke:#000;stroke-width:20.83px;"/><path d="M1069.91,1448.64c-89.586,29.228 -15.981,145.099 37.379,171.167" style="fill:none;stroke:#000;stroke-width:20.83px;"/><path d="M1174.93,1124.4c-134.124,23.286 -96.549,188.334 -10.02,215.305" style="fill:none;stroke:#000;stroke-width:20.83px;"/><path d="M1174.93,1124.4c-134.124,23.286 -96.549,188.334 -10.02,215.305" style="fill:none;stroke:#000;stroke-width:20.83px;"/><path d="M1204.05,936.654c-116.175,25.291 -69.311,161.657 -19.696,184.506" style="fill:none;stroke:#000;stroke-width:20.83px;"/><path d="M1368.75,593.217c-97.382,47.94 -59.39,173.613 -19.697,184.505" style="fill:none;stroke:#000;stroke-width:20.83px;"/><path d="M1303.13,674.55c-109.268,54.63 -80.662,178.953 -32.371,185.006" style="fill:none;stroke:#000;stroke-width:20.83px;"/><path d="M1232.01,745.964c-124.588,53.409 -97.218,181.561 -26.584,189.395" style="fill:none;stroke:#000;stroke-width:20.83px;"/><path d="M1150.92,805.272c-124.589,53.409 -97.219,181.561 -26.585,189.394" style="fill:none;stroke:#000;stroke-width:20.83px;"/><path d="M1127.03,994.797c-99.689,48.134 -67.209,163.753 -31.319,178.946" style="fill:none;stroke:#000;stroke-width:20.83px;"/><path d="M1071.56,862.555c-93.748,65.837 -45.262,198.116 -11.716,191.002" style="fill:none;stroke:#000;stroke-width:20.83px;"/><path d="M1018.41,1003.16c-93.749,65.838 -45.263,198.116 -11.717,191.002" style="fill:none;stroke:#000;stroke-width:20.83px;"/><path d="M1064.44,1138.6c-93.748,65.837 -45.263,198.116 -11.717,191.002" style="fill:none;stroke:#000;stroke-width:20.83px;"/><path d="M1471.02,1549.86c-105.25,63.524 -29.559,165.691 25.491,167.759" style="fill:none;stroke:#000;stroke-width:20.83px;"/><path d="M1426.03,1498.8c-109.277,57.71 -61.848,168.165 -4.128,173.29" style="fill:none;stroke:#000;stroke-width:20.83px;"/><path d="M1534.12,1215.62c-102.917,57.633 -43.839,184.22 7.56,194.954" style="fill:none;stroke:#000;stroke-width:20.83px;"/><path d="M1438.37,1185.84c-102.916,57.632 -51.967,199.081 -0.567,209.815" style="fill:none;stroke:#000;stroke-width:20.83px;"/><path d="M1397.41,1051.67c-127.132,63.954 -91.75,208.259 -24.073,214.743" style="fill:none;stroke:#000;stroke-width:20.83px;"/><path d="M1243.89,1073.3c-127.132,63.954 -57.084,184.589 10.593,191.074" style="fill:none;stroke:#000;stroke-width:20.83px;"/><path d="M1308.38,1191.13c-102.916,57.632 -23.071,204.877 28.329,215.611" style="fill:none;stroke:#000;stroke-width:20.83px;"/><path d="M1217.03,1257.68c-86.948,57.002 -21.981,165.918 10.696,177.391" style="fill:none;stroke:#000;stroke-width:20.83px;"/><path d="M1629.08,1027.71c-116.554,49.058 -113.057,218.893 -41.992,245.59" style="fill:none;stroke:#000;stroke-width:20.83px;"/><path d="M1688.05,903.617c-86.567,60.882 -60.58,166.321 -22.97,179.826" style="fill:none;stroke:#000;stroke-width:20.83px;"/><path d="M1761.8,786.218c-86.567,60.882 -72.803,140.933 -35.193,154.438" style="fill:none;stroke:#000;stroke-width:20.83px;"/><path d="M1716.99,634.357c-86.568,60.882 -39.947,172.793 -2.337,186.298" style="fill:none;stroke:#000;stroke-width:20.83px;"/><path d="M1722.77,476.871c-86.568,60.882 -21.643,157.352 15.967,170.857" style="fill:none;stroke:#000;stroke-width:20.83px;"/><path d="M1658.89,502.118c-86.568,60.882 -21.643,157.351 15.967,170.856" style="fill:none;stroke:#000;stroke-width:20.83px;"/><path d="M1628.27,404.57c-90.178,48.879 -64.932,153.233 -15.551,176.343" style="fill:none;stroke:#000;stroke-width:20.83px;"/><path d="M1637.63,653.042c-86.567,60.882 -46.623,163.139 -9.013,176.644" style="fill:none;stroke:#000;stroke-width:20.83px;"/><path d="M1511.62,656.945c-143.891,71.545 -47.046,162.618 -7.343,180.043" style="fill:none;stroke:#000;stroke-width:20.83px;"/><path d="M1576.6,556.697c-119.26,81.115 -31.996,172.661 1.682,188.695" style="fill:none;stroke:#000;stroke-width:20.83px;"/><path d="M1534.16,420.841c-81.792,91.671 -21.289,175.784 -11.147,185.187" style="fill:none;stroke:#000;stroke-width:20.83px;"/><path d="M1481.05,512.112c-116.046,62.282 -67.776,162.952 -38.137,189.083" style="fill:none;stroke:#000;stroke-width:20.83px;"/><path d="M1421.52,675.683c-116.045,62.282 -57.569,161.761 -27.93,187.892" style="fill:none;stroke:#000;stroke-width:20.83px;"/><path d="M1345.89,782.114c-116.045,62.282 -57.569,161.761 -27.93,187.892" style="fill:none;stroke:#000;stroke-width:20.83px;"/><path d="M1272.97,883.42c-116.045,62.283 -57.569,161.761 -27.93,187.893" style="fill:none;stroke:#000;stroke-width:20.83px;"/><path d="M1687.6,798.545c-98.71,44.054 -106.579,143.036 -55.339,175.431" style="fill:none;stroke:#000;stroke-width:20.83px;"/><path d="M1585.34,785.519c-98.71,44.053 -106.579,143.035 -55.339,175.43" style="fill:none;stroke:#000;stroke-width:20.83px;"/><path d="M1595.34,905.169c-98.711,44.053 -88.325,148.58 -37.085,180.974" style="fill:none;stroke:#000;stroke-width:20.83px;"/><path d="M1492.02,909.599c-110.993,52.034 -110.737,175.677 -41.73,196.542" style="fill:none;stroke:#000;stroke-width:20.83px;"/><path d="M1314.17,984.426c-96.832,50.897 -76.901,175.46 -16.61,197.026" style="fill:none;stroke:#000;stroke-width:20.83px;"/><path d="M1396.8,874.405c-96.832,50.896 -91.082,174.807 -30.792,196.373" style="fill:none;stroke:#000;stroke-width:20.83px;"/><path d="M1448.5,799.339c-52.346,48.005 -57.973,136.357 -26.732,159.81" style="fill:none;stroke:#000;stroke-width:20.83px;"/><path d="M1518.88,1042.95c-98.711,44.053 -83.633,171.371 -32.393,203.766" style="fill:none;stroke:#000;stroke-width:20.83px;"/><path d="M1806.79,316.808c-124.446,40.151 -105,178.731 -37.957,189.138" style="fill:none;stroke:#000;stroke-width:20.83px;"/><path d="M1874.89,263.77c-103.77,41.625 -95.897,167.951 -40.359,196.354" style="fill:none;stroke:#000;stroke-width:20.83px;"/><path d="M1715.57,316.319c-103.771,41.625 -95.898,167.951 -40.36,196.355" style="fill:none;stroke:#000;stroke-width:20.83px;"/><path d="M1775.96,1670.96c-81.13,23.955 -59.607,149.643 27.988,163.643" style="fill:none;stroke:#000;stroke-width:20.83px;"/><path d="M1727.04,1547.88c-58.891,17.379 -53.979,128.553 7.263,150.345" style="fill:none;stroke:#000;stroke-width:20.83px;"/><path d="M1680.36,1632.09c-106.874,22.186 -81.203,123.681 8.739,149.2" style="fill:none;stroke:#000;stroke-width:20.83px;"/><path d="M1605.42,1593.4c-88.917,4.276 -72.74,128.666 2.049,169.3" style="fill:none;stroke:#000;stroke-width:20.83px;"/><path d="M1674.41,1486.09c-106.873,22.186 -81.203,123.681 8.739,149.2" style="fill:none;stroke:#000;stroke-width:20.83px;"/><path d="M1552.85,1465.81c-79.472,17.673 -64.383,139.074 -7.798,170.087" style="fill:none;stroke:#000;stroke-width:20.83px;"/><path d="M2071.5,1088.75c-121.47,51.05 -41.423,199.618 14.711,205.281" style="fill:none;stroke:#000;stroke-width:20.83px;"/><path d="M2165.37,936.754c-130.208,54.924 -104.688,185.079 -37.764,217.483" style="fill:none;stroke:#000;stroke-width:20.83px;"/><path d="M2048.72,966.426c-130.208,54.924 -111.76,181.772 -44.836,214.176" style="fill:none;stroke:#000;stroke-width:20.83px;"/><path d="M1967.74,1011.93c-147.214,53.43 -128.771,169.079 -43.489,203.096" style="fill:none;stroke:#000;stroke-width:20.83px;"/><path d="M1904.14,885.321c-96.173,53.43 -75.072,149.623 -27.641,183.64" style="fill:none;stroke:#000;stroke-width:20.83px;"/><path d="M1787.18,877.672c-96.173,53.43 -68.215,152.033 -20.784,186.05" style="fill:none;stroke:#000;stroke-width:20.83px;"/><path d="M1852.41,763.854c-96.173,53.43 -65.482,147.779 -18.051,181.795" style="fill:none;stroke:#000;stroke-width:20.83px;"/><path d="M1933.07,739.698c-96.173,53.43 -33.169,150.345 14.262,184.362" style="fill:none;stroke:#000;stroke-width:20.83px;"/><path d="M1887.76,599.793c-96.173,53.431 -47.236,158.512 0.195,192.528" style="fill:none;stroke:#000;stroke-width:20.83px;"/><path d="M1994.44,642.241c-96.173,53.43 -33.169,150.345 14.262,184.362" style="fill:none;stroke:#000;stroke-width:20.83px;"/><path d="M2041.71,539.364c-96.173,53.43 -33.169,150.345 14.262,184.362" style="fill:none;stroke:#000;stroke-width:20.83px;"/><path d="M1948.72,500.961c-96.173,53.431 -41.322,140.771 6.109,174.788" style="fill:none;stroke:#000;stroke-width:20.83px;"/><path d="M1836.29,459.652c-120.39,33.748 -56.903,128.108 6.109,174.787" style="fill:none;stroke:#000;stroke-width:20.83px;"/><path d="M2118.29,402.214c-105.449,54.251 -83.185,153.751 -26.126,186.916" style="fill:none;stroke:#000;stroke-width:20.83px;"/><path d="M2039.02,398.87c-109.452,45.966 -95.152,146.858 -40.891,184.303" style="fill:none;stroke:#000;stroke-width:20.83px;"/><path d="M1925.3,370.88c-109.452,45.966 -95.152,146.857 -40.891,184.303" style="fill:none;stroke:#000;stroke-width:20.83px;"/><path d="M1811.01,603.921c-109.452,45.966 -72.37,157.223 -18.109,194.669" style="fill:none;stroke:#000;stroke-width:20.83px;"/><path d="M1811.01,603.921c-109.452,45.966 -72.37,157.223 -18.109,194.669" style="fill:none;stroke:#000;stroke-width:20.83px;"/><path d="M2102.83,241.536c-105.45,54.251 -83.185,153.751 -26.126,186.916" style="fill:none;stroke:#000;stroke-width:20.83px;"/><path d="M1987.48,297.661c-90.916,51.636 -75.147,136.615 -26.795,171.347" style="fill:none;stroke:#000;stroke-width:20.83px;"/><path d="M2163.41,105.441c-92.946,58.957 -52.018,173.772 -16.926,198.668" style="fill:none;stroke:#000;stroke-width:20.83px;"/><path d="M2044.26,144.121c-92.946,58.958 -52.018,173.773 -16.926,198.669" style="fill:none;stroke:#000;stroke-width:20.83px;"/><path d="M1945.31,172.089c-92.946,58.958 -61.192,186.736 -26.101,211.632" style="fill:none;stroke:#000;stroke-width:20.83px;"/><path d="M2233.33,803.969c-103.353,56.824 -74.598,142.677 -33.015,171.899" style="fill:none;stroke:#000;stroke-width:20.83px;"/><path d="M2310.53,685.691c-103.353,56.824 -74.598,142.677 -33.016,171.899" style="fill:none;stroke:#000;stroke-width:20.83px;"/><path d="M2210.32,681.473c-103.353,56.824 -74.598,142.677 -33.016,171.899" style="fill:none;stroke:#000;stroke-width:20.83px;"/><path d="M2097.74,697.552c-86.823,55.234 -53.493,126.684 -29.447,157.593" style="fill:none;stroke:#000;stroke-width:20.83px;"/><path d="M2131.68,800.765c-103.353,56.824 -93.55,169.724 -51.968,198.946" style="fill:none;stroke:#000;stroke-width:20.83px;"/><path d="M2035.55,813.718c-103.354,56.824 -93.55,169.723 -51.968,198.945" style="fill:none;stroke:#000;stroke-width:20.83px;"/><path d="M2264.57,532.16c-119.664,57.468 -62.545,154.482 -2.186,182.963" style="fill:none;stroke:#000;stroke-width:20.83px;"/><path d="M2145.09,548.947c-57.809,27.762 -74.36,64.754 -69.22,98.789c5.5,36.418 35.835,69.452 67.035,84.174" style="fill:none;stroke:#000;stroke-width:20.83px;"/><path d="M2206.83,411.208c-119.664,57.467 -71.05,158.172 -10.691,186.653" style="fill:none;stroke:#000;stroke-width:20.83px;"/><path d="M2274.51,266.707c-119.664,57.468 -71.05,158.172 -10.691,186.653" style="fill:none;stroke:#000;stroke-width:20.83px;"/><path d="M2233.61,115.123c-72.292,56.518 -36.062,157.471 -10.691,186.654" style="fill:none;stroke:#000;stroke-width:20.83px;"/><path d="M2192.17,256.092c-72.292,56.517 -73.963,164.577 -48.592,193.76" style="fill:none;stroke:#000;stroke-width:20.83px;"/><path d="M2324.8,105.113c-83.831,64.693 -52.172,184.288 -10.691,186.653" style="fill:none;stroke:#000;stroke-width:20.83px;"/><path d="M2148.62,1479.74c-108.203,55.392 -46.382,161.339 8.373,201.111" style="fill:none;stroke:#000;stroke-width:20.83px;"/><path d="M2567.98,520.983c-108.775,67.753 -43.311,172.92 19.111,190.057" style="fill:none;stroke:#000;stroke-width:20.83px;"/><path d="M2502.45,618.354c-136.166,77.366 -62.529,184.296 30.571,190.668" style="fill:none;stroke:#000;stroke-width:20.83px;"/><path d="M2602.65,165.687c-106.42,65.823 -67.958,179.789 -5.328,204.384" style="fill:none;stroke:#000;stroke-width:20.83px;"/><path d="M2680.92,23.158c-95.945,61.556 -87.449,164.283 -30.888,187.426" style="fill:none;stroke:#000;stroke-width:20.83px;"/><path d="M2701.78,606.289c-78.549,40.885 -45.842,99.726 -5.73,145.553" style="fill:none;stroke:#000;stroke-width:20.83px;"/><path d="M2643.47,634.551c-91.425,40.195 -41.308,114.523 6.574,160.766" style="fill:none;stroke:#000;stroke-width:20.83px;"/><path d="M2591.15,712.06c-101.113,55.832 -35.505,145.089 18.639,181.227" style="fill:none;stroke:#000;stroke-width:20.83px;"/><path d="M2530.85,809.434c-93.055,61.714 -48.883,126.952 -3.65,156.585" style="fill:none;stroke:#000;stroke-width:20.83px;"/><path d="M2470.74,907.765c-101.41,55.885 -73.787,213.431 -19.767,249.193" style="fill:none;stroke:#000;stroke-width:20.83px;"/><path d="M2410.81,1100.62c-101.41,55.885 -41.598,166.669 12.421,202.432" style="fill:none;stroke:#000;stroke-width:20.83px;"/><path d="M2290.77,1080.42c-110.774,72.349 -45.199,213.426 24.033,222.442" style="fill:none;stroke:#000;stroke-width:20.83px;"/><path d="M2365.99,907.464c-113.888,81.502 -76.77,240.442 -2.755,244.479" style="fill:none;stroke:#000;stroke-width:20.83px;"/><path d="M2432.64,751.609c-99.29,83.964 -62.026,201.432 -21.402,204.698" style="fill:none;stroke:#000;stroke-width:20.83px;"/><path d="M2398.02,686.246c-99.614,60.343 -73.587,118.181 -32.608,147.302" style="fill:none;stroke:#000;stroke-width:20.83px;"/><path d="M2415.33,540.034c-118.018,66.266 -43.534,133.084 10.14,158.12" style="fill:none;stroke:#000;stroke-width:20.83px;"/><path d="M2487.7,446.412c-110.518,54.943 -54.698,145.983 -7.365,178.25" style="fill:none;stroke:#000;stroke-width:20.83px;"/><path d="M2412.3,361.562c-110.519,54.943 -75.561,161.122 -28.228,193.389" style="fill:none;stroke:#000;stroke-width:20.83px;"/><path d="M2370.07,1247.93c-92.316,35.242 -32.191,170.772 29.37,182.593" style="fill:none;stroke:#000;stroke-width:20.83px;"/><path d="M2339.34,1382.43c-92.316,35.242 -62.732,160.765 -1.171,172.586" style="fill:none;stroke:#000;stroke-width:20.83px;"/><path d="M2216.39,1374.08c-92.316,35.242 -62.732,160.765 -1.171,172.586" style="fill:none;stroke:#000;stroke-width:20.83px;"/><path d="M2245.66,1253.04c-82.887,53.265 -25.507,171.679 37.18,170.735" style="fill:none;stroke:#000;stroke-width:20.83px;"/><path d="M2274.3,1493.84c-92.316,35.242 -62.731,160.765 -1.17,172.586" style="fill:none;stroke:#000;stroke-width:20.83px;"/><path d="M2212.53,1600.63c-92.316,35.242 -50.203,178.157 11.358,189.978" style="fill:none;stroke:#000;stroke-width:20.83px;"/><path d="M2275.02,1753.13c-106.23,38.759 -73.577,172.71 -6.968,183.255" style="fill:none;stroke:#000;stroke-width:20.83px;"/><path d="M2805.82,755.254c-73.544,41.364 -66.856,99.035 -39.164,155.632" style="fill:none;stroke:#000;stroke-width:20.83px;"/><path d="M2737.21,857.138c-103.292,38.445 -105.044,151.506 -52.616,210.53" style="fill:none;stroke:#000;stroke-width:20.83px;"/><path d="M2677.08,1139.31c-101.779,58.908 -46.354,174.735 4.339,210.293" style="fill:none;stroke:#000;stroke-width:20.83px;"/><path d="M2592.02,1441.77c-101.779,58.909 -52.441,149.732 -1.748,185.29" style="fill:none;stroke:#000;stroke-width:20.83px;"/><path d="M2538.5,1303.58c-101.779,58.909 -52.441,149.732 -1.748,185.29" style="fill:none;stroke:#000;stroke-width:20.83px;"/><path d="M2441.73,1393.49c-101.779,58.908 -49.402,144.832 1.291,180.391" style="fill:none;stroke:#000;stroke-width:20.83px;"/><path d="M2462.35,1269.64c-86.674,62.785 -22.977,128.245 17.211,161.106" style="fill:none;stroke:#000;stroke-width:20.83px;"/><path d="M2593.15,1174.32c-101.779,58.909 -53.889,137.454 -3.196,173.012" style="fill:none;stroke:#000;stroke-width:20.83px;"/><path d="M2495.49,1115c-101.779,58.909 -26.954,164.284 23.739,199.843" style="fill:none;stroke:#000;stroke-width:20.83px;"/><path d="M2552.45,951.109c-101.779,58.909 -47.323,203.699 3.37,239.258" style="fill:none;stroke:#000;stroke-width:20.83px;"/><path d="M2653.27,1024.16c-101.779,58.908 -83.535,142.241 -32.842,177.8" style="fill:none;stroke:#000;stroke-width:20.83px;"/><path d="M2630.67,878.448c-101.779,58.909 -83.535,142.242 -32.842,177.8" style="fill:none;stroke:#000;stroke-width:20.83px;"/><path d="M2732.77,734.927c-104.616,63.812 -125.023,152.528 -65.984,173.66" style="fill:none;stroke:#000;stroke-width:20.83px;"/><path d="M2514.8,1483.39c-101.779,58.909 -66.772,145.606 -16.079,181.164" style="fill:none;stroke:#000;stroke-width:20.83px;"/><path d="M2389.44,1505.94c-101.779,58.909 -53.885,142.11 -3.192,177.669" style="fill:none;stroke:#000;stroke-width:20.83px;"/><path d="M2625.68,1608.59c-101.779,58.909 -31.42,139.106 19.273,174.665" style="fill:none;stroke:#000;stroke-width:20.83px;"/><path d="M2561.46,1614.76c-114.916,54.575 -38.464,153.29 22.447,192.219" style="fill:none;stroke:#000;stroke-width:20.83px;"/><path d="M2458.08,1625.12c-114.916,54.575 -38.464,153.291 22.447,192.22" style="fill:none;stroke:#000;stroke-width:20.83px;"/><path d="M2326.83,1621c-114.917,54.574 -38.465,153.29 22.446,192.219" style="fill:none;stroke:#000;stroke-width:20.83px;"/><path d="M2611.36,1753.93c-62.644,69.224 15.574,82.769 32.779,98.358" style="fill:none;stroke:#000;stroke-width:20.83px;"/><path d="M2522.52,1764.75c-62.644,69.223 15.574,82.769 32.779,98.357" style="fill:none;stroke:#000;stroke-width:20.83px;"/><path d="M2642.38,1305.34c-101.779,58.909 -53.546,156.682 -2.853,192.24" style="fill:none;stroke:#000;stroke-width:20.83px;"/><path d="M3154.93,183.156c-126.413,70.261 -73.016,173.094 21.395,195.743" style="fill:none;stroke:#000;stroke-width:20.83px;"/><path d="M3032.27,136.897c-91.077,77.347 -58.398,173.154 -3.31,187.917" style="fill:none;stroke:#000;stroke-width:20.83px;"/><path d="M3114.28,467.835c-106.094,68.884 -64.307,166.416 6.559,190.661" style="fill:none;stroke:#000;stroke-width:20.83px;"/><path d="M2990.97,489.152c-94.163,69.702 -21.937,149.799 32.584,172.922" style="fill:none;stroke:#000;stroke-width:20.83px;"/><path d="M3110.8,685.451c-100.184,59.221 -75.973,151.153 -12.858,188.069" style="fill:none;stroke:#000;stroke-width:20.83px;"/><path d="M3010.88,744.463c-83.678,52.637 -77.784,86.346 -34.285,133.376" style="fill:none;stroke:#000;stroke-width:20.83px;"/><path d="M3070.46,636.233c-78.059,37.869 -74.818,78.55 -34.285,133.376" style="fill:none;stroke:#000;stroke-width:20.83px;"/><path d="M2920.71,747.164c-83.274,47.258 -94.721,99.743 -47.711,142.905" style="fill:none;stroke:#000;stroke-width:20.83px;"/><path d="M3140.92,1032.6c-100.184,59.221 -81.378,119.745 -18.263,156.662" style="fill:none;stroke:#000;stroke-width:20.83px;"/><path d="M3184.44,1129.52c-100.184,59.221 -53.155,120.75 9.96,157.667" style="fill:none;stroke:#000;stroke-width:20.83px;"/><path d="M3161.3,1270.18c-107.031,63.745 -69.719,158.66 -1.187,191.998" style="fill:none;stroke:#000;stroke-width:20.83px;"/><path d="M3198.87,1435.96c-102.73,63.93 22.416,164.861 76.779,177.599" style="fill:none;stroke:#000;stroke-width:20.83px;"/><path d="M3257.71,1607.3c-52.526,87.744 38.259,157.776 66.875,156.218" style="fill:none;stroke:#000;stroke-width:20.83px;"/><path d="M3250.63,1720.06c-82.675,48.207 -45.741,156.349 -0.673,176.368" style="fill:none;stroke:#000;stroke-width:20.83px;"/><path d="M3185.62,1561.34c-98.655,48.592 -47.638,183.312 16.459,202.873" style="fill:none;stroke:#000;stroke-width:20.83px;"/><path d="M3092.09,1591.83c-98.655,48.592 -47.638,183.312 16.459,202.872" style="fill:none;stroke:#000;stroke-width:20.83px;"/><path d="M2982.43,1566.64c-98.654,48.591 -47.637,183.311 16.459,202.872" style="fill:none;stroke:#000;stroke-width:20.83px;"/><path d="M2870.37,1523.79c-116.679,43.587 -65.16,181.161 8.737,203.443" style="fill:none;stroke:#000;stroke-width:20.83px;"/><path d="M2751.53,1562.71c-116.678,43.587 -65.16,181.161 8.737,203.443" style="fill:none;stroke:#000;stroke-width:20.83px;"/><path d="M2930.9,1688.08c-98.655,48.592 -59.661,154.939 4.436,174.499" style="fill:none;stroke:#000;stroke-width:20.83px;"/><path d="M2825.61,1691.8c-98.655,48.592 -59.661,154.94 4.435,174.5" style="fill:none;stroke:#000;stroke-width:20.83px;"/><path d="M2705.47,1724.5c-98.655,48.592 -59.661,154.939 4.435,174.499" style="fill:none;stroke:#000;stroke-width:20.83px;"/><path d="M2672.4,1473.21c-98.655,48.592 -59.661,154.94 4.436,174.5" style="fill:none;stroke:#000;stroke-width:20.83px;"/><path d="M3171.79,1738.19c-98.655,48.592 -47.638,183.312 16.459,202.872" style="fill:none;stroke:#000;stroke-width:20.83px;"/><path d="M3108.51,1799.98c-98.655,48.592 -45.736,136.341 18.361,155.901" style="fill:none;stroke:#000;stroke-width:20.83px;"/><path d="M3045.49,1744.18c-98.655,48.592 -47.638,183.312 16.458,202.872" style="fill:none;stroke:#000;stroke-width:20.83px;"/><path d="M2982.23,1833.52c-110.788,44.731 -59.015,141.192 9.726,162.23" style="fill:none;stroke:#000;stroke-width:20.83px;"/><path d="M2885.62,1841.16c-110.788,44.731 -59.016,141.191 9.726,162.23" style="fill:none;stroke:#000;stroke-width:20.83px;"/><path d="M2779.6,1836.14c-110.788,44.731 -51.527,159.562 17.215,180.6" style="fill:none;stroke:#000;stroke-width:20.83px;"/><path d="M2647.75,1849.29c-110.788,44.732 -51.527,159.562 17.214,180.601" style="fill:none;stroke:#000;stroke-width:20.83px;"/><path d="M2601.83,1800.86c-79.919,39.92 -52.941,122.402 -19.469,148.936" style="fill:none;stroke:#000;stroke-width:20.83px;"/><path d="M2503.27,1812.1c-79.919,39.921 -15.839,169.97 17.633,196.505" style="fill:none;stroke:#000;stroke-width:20.83px;"/><path d="M2402.2,1757.09c-105.272,66.406 -68.557,240.037 -0.155,230.08" style="fill:none;stroke:#000;stroke-width:20.83px;"/><path d="M3029.68,1425.86c-98.655,48.592 -47.638,183.312 16.459,202.872" style="fill:none;stroke:#000;stroke-width:20.83px;"/><path d="M3029.68,1425.86c-98.655,48.592 -47.638,183.312 16.459,202.872" style="fill:none;stroke:#000;stroke-width:20.83px;"/><path d="M2926.24,1409.06c-98.655,48.592 -52.535,177.472 11.561,197.033" style="fill:none;stroke:#000;stroke-width:20.83px;"/><path d="M2804.66,1427.54c-98.655,48.592 -70.132,154.51 -6.035,174.071" style="fill:none;stroke:#000;stroke-width:20.83px;"/><path d="M2721.95,1329.24c-98.655,48.592 -55.011,160.782 9.086,180.342" style="fill:none;stroke:#000;stroke-width:20.83px;"/><path d="M2862.02,1310.25c-98.655,48.592 -58.529,185.16 5.567,204.72" style="fill:none;stroke:#000;stroke-width:20.83px;"/><path d="M3111.2,1415.91c-98.655,48.592 -47.637,183.312 16.459,202.872" style="fill:none;stroke:#000;stroke-width:20.83px;"/><path d="M3351.74,1708.16c-53.926,81.412 24.506,148.969 54.341,152.92" style="fill:none;stroke:#000;stroke-width:20.83px;"/><path d="M3504.76,543.424c-106.095,68.884 -35.36,183.688 35.505,207.933" style="fill:none;stroke:#000;stroke-width:20.83px;"/><path d="M3416.1,438.233c-106.095,68.884 -35.36,183.688 35.505,207.933" style="fill:none;stroke:#000;stroke-width:20.83px;"/><path d="M3435.44,648.207c-106.095,68.883 -35.361,183.687 35.505,207.932" style="fill:none;stroke:#000;stroke-width:20.83px;"/><path d="M3368.7,752.295c-106.094,68.884 -35.36,183.687 35.505,207.932" style="fill:none;stroke:#000;stroke-width:20.83px;"/><path d="M3352.99,543.131c-106.095,68.884 -44.018,176.489 26.847,200.734" style="fill:none;stroke:#000;stroke-width:20.83px;"/><path d="M3289.1,652.335c-106.094,68.884 -44.018,176.49 26.847,200.734" style="fill:none;stroke:#000;stroke-width:20.83px;"/><path d="M3309.26,859.395c-106.094,68.884 -53.362,182.606 17.503,206.851" style="fill:none;stroke:#000;stroke-width:20.83px;"/><path d="M3227.13,758.292c-114.776,73.441 -64.603,186.643 14.113,206.767" style="fill:none;stroke:#000;stroke-width:20.83px;"/><path d="M3204.59,946.436c-108.979,71.801 -54.51,180.604 20.411,201.802" style="fill:none;stroke:#000;stroke-width:20.83px;"/><path d="M3154.4,829.353c-122.547,60.095 -90.386,175.205 -14.488,204.007" style="fill:none;stroke:#000;stroke-width:20.83px;"/><path d="M3997.35,855.989c-108.224,0.271 -195.877,84.387 -195.619,187.723c0.258,103.337 88.332,187.013 196.555,186.743c108.223,-0.271 195.877,-84.387 195.618,-187.723c-0.258,-103.337 -88.331,-187.013 -196.554,-186.743Z" style="fill:#fff;stroke:#000;stroke-width:1px;"/><path d="M3917.05,962.5c-32.681,0.081 -59.148,26.681 -59.066,59.362c0.081,32.681 26.681,59.148 59.362,59.066c32.681,-0.082 59.148,-26.681 59.066,-59.362c-0.082,-32.681 -26.681,-59.148 -59.362,-59.066Z" style="stroke:#000;stroke-width:1px;"/><path d="M1629.51,3682.87l171.544,332.874l459.077,0l39.968,-113.014l-255.48,-59.169l-88.563,-165.265l367.784,-604.514l148.202,-717.67l488.784,140.045l-80.18,592.096l535.917,86.667l86.007,-219.042l-296.422,-58.317l29.915,-582.784l-560.58,-341.699l-55.861,-68.512l-415.374,24.941l-48.577,992.803l-526.161,760.56Z"/></g></g></svg>